<svg width="86" height="13" viewBox="0 0 86 13" fill="none" xmlns="http://www.w3.org/2000/svg">
<mask id="path-1-inside-1_307_859" fill="white">
<path d="M30.663 2.75801C30.7991 2.99039 31.0261 2.99341 31.2238 3.0598C32.6003 3.43814 33.927 3.95844 35.1793 4.61102C36.1572 5.11451 37.0481 5.75241 37.8217 6.50323C38.4163 7.07185 38.8856 7.74343 39.2028 8.47999C39.4185 8.96132 39.4999 9.48559 39.4395 10.0041C39.3832 10.4111 39.2284 10.801 38.987 11.1444C38.7455 11.4878 38.4236 11.7758 38.0453 11.9868C37.3614 12.3705 36.6038 12.6268 35.8147 12.7413C33.6417 13.1247 31.4066 13.0815 29.2526 12.6145C28.5529 12.4655 27.8809 12.2204 27.2587 11.8872C26.2067 11.3352 25.4017 10.4509 24.9892 9.39443C24.5722 8.42617 24.4164 7.37756 24.5353 6.34029C24.6375 5.60235 24.9203 4.89609 25.362 4.276C25.4885 4.09794 25.6862 3.95308 25.6862 3.67241C25.6252 3.63333 25.5571 3.60474 25.4853 3.58794C24.7201 3.5306 23.9517 3.43402 23.1833 3.431C20.502 3.431 17.8176 3.38874 15.1396 3.45815C13.2299 3.50644 11.3235 3.6845 9.42037 3.83841C7.69122 3.97724 5.97617 4.14222 4.27512 4.33336C3.03661 4.47218 1.80779 4.68041 0.57577 4.85243C0.420277 4.87597 0.263184 4.88908 0.105674 4.89167C0.0700099 4.89167 0.0181165 4.83434 0.00514785 4.79511C-0.00782077 4.75588 0.00517001 4.67739 0.0278651 4.6623C0.174478 4.56226 0.336165 4.48292 0.507697 4.42689C1.56464 4.19753 2.61836 3.92896 3.68827 3.77505C5.39364 3.52758 7.10869 3.35856 8.82054 3.15334C10.0817 3.00244 11.343 2.83343 12.6074 2.69461C13.8719 2.55578 15.2012 2.39282 16.498 2.32341C19.0678 2.1504 21.6453 2.09802 24.2208 2.16647C25.1221 2.19967 26.0234 2.25702 26.9247 2.33247C27.2388 2.37568 27.5594 2.31706 27.8326 2.16647C29.6125 1.16452 31.5805 0.675611 33.6101 0.355711C34.9747 0.162132 36.351 0.0482326 37.7309 0.0146834C40.2559 -0.0708165 42.7794 0.217488 45.2073 0.868781C46.959 1.36701 48.7438 1.75817 50.5504 2.03974C51.9672 2.23892 53.3872 2.42604 54.8105 2.5709C58.6171 2.91239 62.4412 3.05644 66.2651 3.00244C69.1603 3.00244 72.0556 3.00245 74.9508 2.97529C78.3778 2.95115 81.8014 2.9119 85.2284 2.88474C85.4845 2.88474 85.7406 2.88476 86 2.9089C86 3.16241 85.8217 3.18655 85.6758 3.2107C84.4632 3.47929 83.2539 3.77202 82.0316 3.98931C80.2513 4.26996 78.4516 4.43032 76.6464 4.46915C71.6827 4.67437 66.7157 4.61705 61.7519 4.57179C58.8839 4.53917 56.0201 4.35983 53.1732 4.03459C50.3534 3.72061 47.5657 3.19376 44.8376 2.45924C43.4146 2.05624 41.9496 1.7952 40.4672 1.68059C39.3544 1.61471 38.2385 1.60464 37.1245 1.65041C35.5315 1.69782 33.9473 1.88987 32.3943 2.22383C31.9793 2.31437 31.5708 2.41999 31.1655 2.52562C30.9919 2.59117 30.8239 2.66886 30.663 2.75801ZM32.8676 11.3531C33.8863 11.3876 34.9049 11.286 35.8925 11.0513C36.2272 10.9747 36.553 10.8675 36.8652 10.7314C37.6822 10.3601 37.8962 9.80788 37.559 9.01115C37.3632 8.5772 37.0915 8.17642 36.755 7.82509C36.23 7.26454 35.6206 6.77766 34.9458 6.37952C34.0844 5.84232 33.1543 5.40738 32.177 5.08482C31.0228 4.71663 29.8491 4.40882 28.6787 4.0859C28.5469 4.02572 28.4003 3.99931 28.2538 4.00939C28.1074 4.01946 27.9665 4.06565 27.8456 4.14323C26.8729 4.89771 26.1823 5.80008 26.2245 7.05856C26.249 7.6035 26.3582 8.14224 26.5487 8.65804C26.6927 9.08479 26.932 9.47836 27.2511 9.81282C27.5702 10.1473 27.9617 10.4151 28.3999 10.5986C28.8329 10.7844 29.2833 10.9329 29.7454 11.0422C30.7656 11.2804 31.8165 11.385 32.8676 11.3531Z"/>
</mask>
<path d="M30.663 2.75801C30.7991 2.99039 31.0261 2.99341 31.2238 3.0598C32.6003 3.43814 33.927 3.95844 35.1793 4.61102C36.1572 5.11451 37.0481 5.75241 37.8217 6.50323C38.4163 7.07185 38.8856 7.74343 39.2028 8.47999C39.4185 8.96132 39.4999 9.48559 39.4395 10.0041C39.3832 10.4111 39.2284 10.801 38.987 11.1444C38.7455 11.4878 38.4236 11.7758 38.0453 11.9868C37.3614 12.3705 36.6038 12.6268 35.8147 12.7413C33.6417 13.1247 31.4066 13.0815 29.2526 12.6145C28.5529 12.4655 27.8809 12.2204 27.2587 11.8872C26.2067 11.3352 25.4017 10.4509 24.9892 9.39443C24.5722 8.42617 24.4164 7.37756 24.5353 6.34029C24.6375 5.60235 24.9203 4.89609 25.362 4.276C25.4885 4.09794 25.6862 3.95308 25.6862 3.67241C25.6252 3.63333 25.5571 3.60474 25.4853 3.58794C24.7201 3.5306 23.9517 3.43402 23.1833 3.431C20.502 3.431 17.8176 3.38874 15.1396 3.45815C13.2299 3.50644 11.3235 3.6845 9.42037 3.83841C7.69122 3.97724 5.97617 4.14222 4.27512 4.33336C3.03661 4.47218 1.80779 4.68041 0.57577 4.85243C0.420277 4.87597 0.263184 4.88908 0.105674 4.89167C0.0700099 4.89167 0.0181165 4.83434 0.00514785 4.79511C-0.00782077 4.75588 0.00517001 4.67739 0.0278651 4.6623C0.174478 4.56226 0.336165 4.48292 0.507697 4.42689C1.56464 4.19753 2.61836 3.92896 3.68827 3.77505C5.39364 3.52758 7.10869 3.35856 8.82054 3.15334C10.0817 3.00244 11.343 2.83343 12.6074 2.69461C13.8719 2.55578 15.2012 2.39282 16.498 2.32341C19.0678 2.1504 21.6453 2.09802 24.2208 2.16647C25.1221 2.19967 26.0234 2.25702 26.9247 2.33247C27.2388 2.37568 27.5594 2.31706 27.8326 2.16647C29.6125 1.16452 31.5805 0.675611 33.6101 0.355711C34.9747 0.162132 36.351 0.0482326 37.7309 0.0146834C40.2559 -0.0708165 42.7794 0.217488 45.2073 0.868781C46.959 1.36701 48.7438 1.75817 50.5504 2.03974C51.9672 2.23892 53.3872 2.42604 54.8105 2.5709C58.6171 2.91239 62.4412 3.05644 66.2651 3.00244C69.1603 3.00244 72.0556 3.00245 74.9508 2.97529C78.3778 2.95115 81.8014 2.9119 85.2284 2.88474C85.4845 2.88474 85.7406 2.88476 86 2.9089C86 3.16241 85.8217 3.18655 85.6758 3.2107C84.4632 3.47929 83.2539 3.77202 82.0316 3.98931C80.2513 4.26996 78.4516 4.43032 76.6464 4.46915C71.6827 4.67437 66.7157 4.61705 61.7519 4.57179C58.8839 4.53917 56.0201 4.35983 53.1732 4.03459C50.3534 3.72061 47.5657 3.19376 44.8376 2.45924C43.4146 2.05624 41.9496 1.7952 40.4672 1.68059C39.3544 1.61471 38.2385 1.60464 37.1245 1.65041C35.5315 1.69782 33.9473 1.88987 32.3943 2.22383C31.9793 2.31437 31.5708 2.41999 31.1655 2.52562C30.9919 2.59117 30.8239 2.66886 30.663 2.75801ZM32.8676 11.3531C33.8863 11.3876 34.9049 11.286 35.8925 11.0513C36.2272 10.9747 36.553 10.8675 36.8652 10.7314C37.6822 10.3601 37.8962 9.80788 37.559 9.01115C37.3632 8.5772 37.0915 8.17642 36.755 7.82509C36.23 7.26454 35.6206 6.77766 34.9458 6.37952C34.0844 5.84232 33.1543 5.40738 32.177 5.08482C31.0228 4.71663 29.8491 4.40882 28.6787 4.0859C28.5469 4.02572 28.4003 3.99931 28.2538 4.00939C28.1074 4.01946 27.9665 4.06565 27.8456 4.14323C26.8729 4.89771 26.1823 5.80008 26.2245 7.05856C26.249 7.6035 26.3582 8.14224 26.5487 8.65804C26.6927 9.08479 26.932 9.47836 27.2511 9.81282C27.5702 10.1473 27.9617 10.4151 28.3999 10.5986C28.8329 10.7844 29.2833 10.9329 29.7454 11.0422C30.7656 11.2804 31.8165 11.385 32.8676 11.3531Z" fill="white"/>
<path d="M31.2238 3.0598L30.2691 5.90381L30.3482 5.93039L30.4287 5.95251L31.2238 3.0598ZM35.1793 4.61102L33.7929 7.27147L33.7995 7.2749L33.8061 7.27829L35.1793 4.61102ZM37.8217 6.50323L35.7322 8.65596L35.7403 8.66376L35.7484 8.6715L37.8217 6.50323ZM39.2028 8.47999L36.4476 9.6668L36.4562 9.68675L36.465 9.70658L39.2028 8.47999ZM39.4395 10.0041L42.4112 10.4153L42.4156 10.3833L42.4193 10.3511L39.4395 10.0041ZM38.0453 11.9868L36.5839 9.36685L36.5776 9.37041L38.0453 11.9868ZM35.8147 12.7413L35.3838 9.77242L35.3385 9.77899L35.2934 9.78694L35.8147 12.7413ZM29.2526 12.6145L29.8882 9.68262L29.8774 9.68033L29.2526 12.6145ZM27.2587 11.8872L28.675 9.24258L28.6639 9.23667L28.6528 9.23085L27.2587 11.8872ZM24.9892 9.39443L27.7837 8.30326L27.7649 8.25517L27.7445 8.20775L24.9892 9.39443ZM24.5353 6.34029L21.5637 5.92891L21.5589 5.96364L21.5549 5.99848L24.5353 6.34029ZM25.362 4.276L27.8054 6.01663L27.808 6.01297L25.362 4.276ZM25.6862 3.67241H28.6862V2.03056L27.3033 1.14556L25.6862 3.67241ZM25.4853 3.58794L26.1683 0.666725L25.9416 0.613724L25.7094 0.596327L25.4853 3.58794ZM23.1833 3.431L23.1951 0.431H23.1833V3.431ZM15.1396 3.45815L15.2154 6.45719L15.2173 6.45714L15.1396 3.45815ZM9.42037 3.83841L9.66045 6.82879L9.6622 6.82865L9.42037 3.83841ZM4.27512 4.33336L4.6093 7.31469L4.6101 7.3146L4.27512 4.33336ZM0.57577 4.85243L0.160916 1.88126L0.143848 1.88364L0.126809 1.88622L0.57577 4.85243ZM0.105674 4.89167V7.89167H0.130304L0.154931 7.89126L0.105674 4.89167ZM0.0278651 4.6623L1.68889 7.1605L1.70391 7.15051L1.71881 7.14034L0.0278651 4.6623ZM0.507697 4.42689L-0.128513 1.49513L-0.278205 1.52761L-0.423809 1.57518L0.507697 4.42689ZM3.68827 3.77505L4.11544 6.74448L4.11909 6.74395L3.68827 3.77505ZM8.82054 3.15334L8.46415 0.174582L8.46346 0.174665L8.82054 3.15334ZM16.498 2.32341L16.6584 5.31912L16.6789 5.31802L16.6995 5.31663L16.498 2.32341ZM24.2208 2.16647L24.3312 -0.831499L24.3158 -0.832064L24.3005 -0.832473L24.2208 2.16647ZM26.9247 2.33247L27.3336 -0.63954L27.2545 -0.650417L27.175 -0.657075L26.9247 2.33247ZM27.8326 2.16647L29.2808 4.79376L29.2925 4.7873L29.3042 4.78073L27.8326 2.16647ZM33.6101 0.355711L33.1888 -2.61455L33.1659 -2.6113L33.143 -2.6077L33.6101 0.355711ZM37.7309 0.0146834L37.8038 3.0138L37.8181 3.01345L37.8324 3.01296L37.7309 0.0146834ZM45.2073 0.868781L46.028 -2.01677L46.0063 -2.02294L45.9846 -2.02877L45.2073 0.868781ZM50.5504 2.03974L50.0883 5.00395L50.1105 5.0074L50.1327 5.01053L50.5504 2.03974ZM54.8105 2.5709L54.5067 5.55548L54.5246 5.5573L54.5425 5.5589L54.8105 2.5709ZM66.2651 3.00244V0.00244059H66.2439L66.2227 0.00273973L66.2651 3.00244ZM74.9508 2.97529L74.9297 -0.0246442L74.9227 -0.0245785L74.9508 2.97529ZM85.2284 2.88474V-0.115263H85.2165L85.2046 -0.115169L85.2284 2.88474ZM86 2.9089H89V0.175187L86.278 -0.0781829L86 2.9089ZM85.6758 3.2107L85.186 0.250949L85.1061 0.264175L85.027 0.281695L85.6758 3.2107ZM82.0316 3.98931L82.4988 6.95271L82.5278 6.94814L82.5567 6.943L82.0316 3.98931ZM76.6464 4.46915L76.5819 1.46984L76.5522 1.47048L76.5225 1.47171L76.6464 4.46915ZM61.7519 4.57179L61.7178 7.5716L61.7246 7.57166L61.7519 4.57179ZM53.1732 4.03459L53.5137 1.05396L53.5052 1.05301L53.1732 4.03459ZM44.8376 2.45924L44.0202 5.34572L44.0389 5.35102L44.0577 5.35607L44.8376 2.45924ZM40.4672 1.68059L40.6985 -1.31049L40.6715 -1.31257L40.6445 -1.31417L40.4672 1.68059ZM37.1245 1.65041L37.2138 4.64909L37.2307 4.64858L37.2477 4.64789L37.1245 1.65041ZM32.3943 2.22383L31.7636 -0.709135L31.7548 -0.707229L32.3943 2.22383ZM31.1655 2.52562L30.4089 -0.377397L30.2547 -0.33721L30.1056 -0.280917L31.1655 2.52562ZM32.8676 11.3531L32.9694 8.35479L32.873 8.35152L32.7766 8.35445L32.8676 11.3531ZM35.8925 11.0513L35.2232 8.12689L35.211 8.12968L35.1988 8.13258L35.8925 11.0513ZM36.8652 10.7314L38.0645 13.4812L38.0854 13.4721L38.1061 13.4627L36.8652 10.7314ZM37.559 9.01115L40.3218 7.84192L40.308 7.80929L40.2934 7.77699L37.559 9.01115ZM36.755 7.82509L34.5654 9.87584L34.5768 9.88807L34.5884 9.90018L36.755 7.82509ZM34.9458 6.37952L33.3583 8.92508L33.3896 8.94458L33.4213 8.9633L34.9458 6.37952ZM32.177 5.08482L33.1173 2.23599L33.1031 2.23128L33.0887 2.22672L32.177 5.08482ZM28.6787 4.0859L27.433 6.81502L27.6504 6.91428L27.8808 6.97785L28.6787 4.0859ZM27.8456 4.14323L26.2254 1.6183L26.1127 1.69066L26.0068 1.77279L27.8456 4.14323ZM26.2245 7.05856L23.2262 7.15897L23.2267 7.17618L23.2275 7.19337L26.2245 7.05856ZM26.5487 8.65804L29.3913 7.69911L29.3777 7.65869L29.3629 7.61868L26.5487 8.65804ZM28.3999 10.5986L29.5831 7.84174L29.5709 7.83652L29.5587 7.8314L28.3999 10.5986ZM29.7454 11.0422L29.0549 13.9617L29.0634 13.9637L29.7454 11.0422ZM28.0746 4.27473C28.5694 5.11919 29.2817 5.55387 29.8378 5.76904C30.065 5.85693 30.2658 5.90753 30.3205 5.92168C30.4253 5.94879 30.3464 5.92976 30.2691 5.90381L32.1786 0.215788C32.0775 0.18185 31.9908 0.157361 31.934 0.141959C31.886 0.128918 31.8267 0.1138 31.8234 0.112945C31.7756 0.100593 31.8741 0.123465 32.0028 0.173258C32.1492 0.229905 32.3801 0.336753 32.6273 0.529858C32.8838 0.730264 33.095 0.974516 33.2513 1.24129L28.0746 4.27473ZM30.4287 5.95251C31.6026 6.27518 32.7309 6.71808 33.7929 7.27147L36.5656 1.95058C35.123 1.19881 33.5979 0.601092 32.019 0.167088L30.4287 5.95251ZM33.8061 7.27829C34.5268 7.64933 35.1751 8.11526 35.7322 8.65596L39.9111 4.3505C38.921 3.38955 37.7877 2.5797 36.5524 1.94375L33.8061 7.27829ZM35.7484 8.6715C36.0599 8.96939 36.2937 9.3095 36.4476 9.6668L41.9581 7.29318C41.4775 6.17736 40.7728 5.17431 39.895 4.33496L35.7484 8.6715ZM36.465 9.70658C36.4641 9.7045 36.4617 9.69831 36.4602 9.68844C36.4587 9.67852 36.4584 9.66762 36.4596 9.65702L42.4193 10.3511C42.5429 9.29002 42.3748 8.2225 41.9406 7.2534L36.465 9.70658ZM36.4678 9.59277C36.4784 9.51624 36.5059 9.45728 36.5329 9.41889L41.4411 12.8699C41.951 12.1447 42.2879 11.306 42.4112 10.4153L36.4678 9.59277ZM36.5329 9.41889C36.5591 9.38151 36.581 9.36848 36.5839 9.36686L39.5068 14.6068C40.2661 14.1832 40.9319 13.5941 41.4411 12.8699L36.5329 9.41889ZM36.5776 9.37041C36.2201 9.57094 35.8147 9.70986 35.3838 9.77242L36.2456 15.7102C37.3928 15.5437 38.5027 15.1701 39.5131 14.6032L36.5776 9.37041ZM35.2934 9.78694C33.5034 10.1028 31.6613 10.067 29.8882 9.68264L28.617 15.5464C31.152 16.096 33.78 16.1466 36.336 15.6957L35.2934 9.78694ZM29.8774 9.68033C29.45 9.5893 29.0448 9.44065 28.675 9.24258L25.8425 14.5319C26.717 15.0002 27.6558 15.3418 28.6278 15.5487L29.8774 9.68033ZM28.6528 9.23085C28.2079 8.99733 27.92 8.65226 27.7837 8.30326L22.1947 10.4856C22.8835 12.2496 24.2056 13.673 25.8646 14.5436L28.6528 9.23085ZM27.7445 8.20775C27.5326 7.71573 27.4571 7.19372 27.5158 6.6821L21.5549 5.99848C21.3756 7.56141 21.6117 9.13662 22.2339 10.5811L27.7445 8.20775ZM27.507 6.75167C27.5413 6.50357 27.6381 6.25155 27.8054 6.01663L22.9186 2.53537C22.2025 3.54062 21.7336 4.70114 21.5637 5.92891L27.507 6.75167ZM27.808 6.01297C27.7525 6.09116 27.7005 6.1498 27.7579 6.08178C27.7854 6.04921 27.909 5.90551 28.0322 5.72882C28.3256 5.30812 28.6862 4.61109 28.6862 3.67241H22.6862C22.6862 3.37587 22.741 3.08784 22.8375 2.82532C22.9298 2.57399 23.0427 2.39428 23.1109 2.29655C23.1688 2.21341 23.2192 2.15686 23.1741 2.21029C23.1589 2.22829 23.0348 2.37181 22.916 2.53902L27.808 6.01297ZM27.3033 1.14556C26.9501 0.919487 26.5653 0.759546 26.1683 0.666725L24.8022 6.50915C24.549 6.44994 24.3003 6.34718 24.0691 6.19927L27.3033 1.14556ZM25.7094 0.596327C25.1494 0.554358 24.102 0.434585 23.1951 0.431023L23.1715 6.43098C23.8013 6.43345 24.2908 6.50684 25.2611 6.57955L25.7094 0.596327ZM23.1833 0.431C20.5654 0.431 17.7914 0.388411 15.0618 0.459158L15.2173 6.45714C17.8438 6.38907 20.4386 6.431 23.1833 6.431V0.431ZM15.0637 0.459109C13.0475 0.510093 11.0277 0.698626 9.17854 0.848176L9.6622 6.82865C11.6193 6.67037 13.4124 6.50278 15.2154 6.45719L15.0637 0.459109ZM9.18029 0.848035C7.41988 0.98937 5.67318 1.15739 3.94013 1.35212L4.6101 7.3146C6.27916 7.12706 7.96257 6.96511 9.66045 6.82879L9.18029 0.848035ZM3.94094 1.35203C2.65747 1.49589 1.26861 1.72659 0.160916 1.88126L0.990624 7.82361C2.34696 7.63423 3.41576 7.44847 4.6093 7.31469L3.94094 1.35203ZM0.126809 1.88622C0.103848 1.88969 0.0802906 1.89168 0.0564166 1.89207L0.154931 7.89126C0.446078 7.88648 0.736706 7.86224 1.02473 7.81865L0.126809 1.88622ZM0.105674 1.89167C0.852324 1.89167 1.38553 2.17022 1.60846 2.30259C1.87129 2.45866 2.05894 2.6264 2.17833 2.74694C2.36962 2.94006 2.67053 3.29982 2.85356 3.85356L-2.84327 5.73666C-2.64726 6.32963 -2.31392 6.73767 -2.08453 6.96926C-1.94608 7.10904 -1.73797 7.29356 -1.45497 7.4616C-1.21188 7.60595 -0.658809 7.89167 0.105674 7.89167V1.89167ZM2.85356 3.85356C2.97717 4.2275 2.99637 4.53979 2.99948 4.70246C3.00307 4.88955 2.98773 5.0625 2.96119 5.21956C2.93634 5.36657 2.88739 5.58524 2.78202 5.83806C2.72862 5.96619 2.63984 6.15363 2.49797 6.36155C2.36515 6.55622 2.1107 6.88005 1.68889 7.1605L-1.63316 2.1641C-2.40116 2.67473 -2.69116 3.37374 -2.75618 3.52974C-2.86997 3.80275 -2.92562 4.04632 -2.95492 4.21975C-2.99747 4.47152 -3.06824 5.05608 -2.84327 5.73666L2.85356 3.85356ZM1.71881 7.14034C1.6274 7.20272 1.53278 7.24805 1.4392 7.27861L-0.423809 1.57518C-0.860452 1.7178 -1.27844 1.92179 -1.66308 2.18426L1.71881 7.14034ZM1.14391 7.35866C2.34206 7.09865 3.18577 6.87822 4.11544 6.74448L3.26109 0.805617C2.05094 0.979706 0.787223 1.29641 -0.128513 1.49513L1.14391 7.35866ZM4.11909 6.74395C5.77839 6.50317 7.37904 6.34763 9.17763 6.13201L8.46346 0.174665C6.83833 0.369486 5.00889 0.551989 3.25744 0.806144L4.11909 6.74395ZM9.17694 6.13209C10.5031 5.97343 11.6809 5.81435 12.9348 5.67669L12.28 -0.287475C11.005 -0.147492 9.66042 0.0314528 8.46415 0.174582L9.17694 6.13209ZM12.9348 5.67669C14.2556 5.53168 15.4692 5.38276 16.6584 5.31912L16.3377 -0.672305C14.9331 -0.597126 13.4881 -0.420114 12.28 -0.287475L12.9348 5.67669ZM16.6995 5.31663C19.1757 5.14993 21.6593 5.09945 24.1411 5.16541L24.3005 -0.832473C21.6313 -0.903414 18.9599 -0.849126 16.2965 -0.669818L16.6995 5.31663ZM24.1103 5.16444C24.9584 5.19567 25.8127 5.24987 26.6745 5.32201L27.175 -0.657075C26.2342 -0.735828 25.2858 -0.79634 24.3312 -0.831499L24.1103 5.16444ZM26.5159 5.30448C27.4588 5.43419 28.432 5.26162 29.2808 4.79376L26.3844 -0.460824C26.6867 -0.6275 27.0189 -0.682833 27.3336 -0.63954L26.5159 5.30448ZM29.3042 4.78073C30.6309 4.03389 32.1928 3.61613 34.0772 3.31913L33.143 -2.6077C30.9682 -2.26491 28.5941 -1.70485 26.361 -0.447797L29.3042 4.78073ZM34.0315 3.32597C35.2804 3.1488 36.5403 3.04452 37.8038 3.0138L37.658 -2.98443C36.1616 -2.94805 34.669 -2.82454 33.1888 -2.61455L34.0315 3.32597ZM37.8324 3.01296C40.0626 2.93745 42.29 3.19225 44.43 3.76633L45.9846 -2.02877C43.2689 -2.75727 40.4491 -3.07908 37.6293 -2.9836L37.8324 3.01296ZM44.3866 3.75433C46.2566 4.28622 48.1612 4.70358 50.0883 5.00395L51.0124 -0.924471C49.3264 -1.18725 47.6614 -1.55219 46.028 -2.01677L44.3866 3.75433ZM50.1327 5.01053C51.5638 5.21172 53.0274 5.40492 54.5067 5.55548L55.1143 -0.413684C53.747 -0.552842 52.3705 -0.733872 50.968 -0.931047L50.1327 5.01053ZM54.5425 5.5589C58.4524 5.90965 62.3801 6.05761 66.3074 6.00214L66.2227 0.00273973C62.5024 0.055281 58.7819 -0.0848779 55.0786 -0.417103L54.5425 5.5589ZM66.2651 6.00244C69.158 6.00244 72.0673 6.00247 74.9789 5.97516L74.9227 -0.0245785C72.0438 0.00242887 69.1627 0.00244059 66.2651 0.00244059V6.00244ZM74.9719 5.97521C78.3898 5.95114 81.8503 5.91161 85.2522 5.88464L85.2046 -0.115169C81.7526 -0.0878092 78.3657 -0.0488437 74.9297 -0.024636L74.9719 5.97521ZM85.2284 5.88474C85.5058 5.88474 85.6237 5.88685 85.7219 5.89599L86.278 -0.0781829C85.8575 -0.117328 85.4632 -0.115263 85.2284 -0.115263V5.88474ZM83 2.9089C83 2.62448 83.0503 2.19425 83.2824 1.72629C83.5264 1.23465 83.8872 0.870737 84.2601 0.628856C84.5996 0.408691 84.9024 0.319294 85.0376 0.284378C85.1584 0.253161 85.2705 0.236966 85.186 0.250949L86.1656 6.17044C86.1658 6.17041 86.2215 6.16141 86.2744 6.15168C86.3338 6.14075 86.4275 6.1223 86.5384 6.09363C86.748 6.03948 87.1228 5.92367 87.5251 5.66277C87.9608 5.38014 88.3754 4.96115 88.6573 4.39294C88.9274 3.8484 89 3.32008 89 2.9089H83ZM85.027 0.281695C83.738 0.567217 82.646 0.833043 81.5065 1.03562L82.5567 6.943C83.8618 6.71099 85.1884 6.39137 86.3246 6.1397L85.027 0.281695ZM81.5645 1.02591C79.9177 1.28551 78.2525 1.43391 76.5819 1.46984L76.711 7.46846C78.6507 7.42673 80.585 7.25441 82.4988 6.95271L81.5645 1.02591ZM76.5225 1.47171C71.6493 1.67319 66.763 1.61736 61.7793 1.57191L61.7246 7.57166C66.6683 7.61675 71.7161 7.67555 76.7704 7.46659L76.5225 1.47171ZM61.786 1.57198C59.0204 1.54053 56.2587 1.36758 53.5137 1.05397L52.8327 7.0152C55.7814 7.35208 58.7475 7.53782 61.7178 7.57159L61.786 1.57198ZM53.5052 1.05301C50.836 0.755803 48.1981 0.257187 45.6176 -0.4376L44.0577 5.35607C46.9333 6.13033 49.8708 6.68541 52.8412 7.01616L53.5052 1.05301ZM45.6551 -0.427249C44.0396 -0.884738 42.3782 -1.18061 40.6985 -1.31049L40.236 4.67166C41.5209 4.77102 42.7896 4.99721 44.0202 5.34572L45.6551 -0.427249ZM40.6445 -1.31417C39.4316 -1.38597 38.2155 -1.39694 37.0014 -1.34706L37.2477 4.64789C38.2616 4.60623 39.2772 4.61539 40.2899 4.67534L40.6445 -1.31417ZM37.0353 -1.34826C35.2607 -1.29545 33.4953 -1.08151 31.7636 -0.709122L33.025 5.15678C34.3993 4.86125 35.8022 4.69109 37.2138 4.64909L37.0353 -1.34826ZM31.7548 -0.707229C31.2733 -0.602174 30.8104 -0.482038 30.4089 -0.377397L31.9221 5.42864C32.3312 5.32203 32.6853 5.23091 33.0338 5.15489L31.7548 -0.707229ZM30.1056 -0.280917C29.7978 -0.16466 29.4982 -0.0262569 29.2095 0.133608L32.1164 5.38241C32.1497 5.36397 32.1861 5.347 32.2254 5.33216L30.1056 -0.280917ZM32.7659 14.3513C34.0509 14.395 35.3371 14.2668 36.5862 13.97L35.1988 8.13258C34.4727 8.30517 33.7216 8.38032 32.9694 8.35479L32.7659 14.3513ZM36.5618 13.9757C37.0768 13.8578 37.5802 13.6924 38.0645 13.4812L35.6658 7.98153C35.5259 8.04255 35.3776 8.09154 35.2232 8.12689L36.5618 13.9757ZM38.1061 13.4627C38.888 13.1074 39.919 12.4249 40.4308 11.1438C40.9477 9.85007 40.6594 8.63954 40.3218 7.84192L34.7963 10.1804C34.7959 10.1795 34.5691 9.64346 34.859 8.91781C34.9957 8.57577 35.1958 8.33442 35.3616 8.18559C35.4406 8.11472 35.5078 8.06807 35.5519 8.04046C35.5959 8.01296 35.6225 8.00083 35.6242 8.00004L38.1061 13.4627ZM40.2934 7.77699C39.9543 7.02576 39.4885 6.34195 38.9215 5.74999L34.5884 9.90018C34.6945 10.0109 34.772 10.1286 34.8246 10.2453L40.2934 7.77699ZM38.9446 5.77434C38.2204 5.0011 37.386 4.336 36.4703 3.79575L33.4213 8.9633C33.8552 9.21932 34.2396 9.52798 34.5654 9.87584L38.9446 5.77434ZM36.5333 3.83396C35.4663 3.16851 34.3185 2.63245 33.1173 2.23599L31.2367 7.93365C31.9901 8.1823 32.7026 8.51613 33.3583 8.92508L36.5333 3.83396ZM33.0887 2.22672C31.8603 1.83484 30.5967 1.50297 29.4766 1.19395L27.8808 6.97785C29.1016 7.31467 30.1853 7.59842 31.2653 7.94292L33.0887 2.22672ZM29.9245 1.35679C29.3324 1.0865 28.6861 0.972541 28.0479 1.01647L28.4598 7.00231C28.1144 7.02608 27.7614 6.96494 27.433 6.81502L29.9245 1.35679ZM28.0479 1.01647C27.41 1.06036 26.7807 1.26202 26.2254 1.6183L29.4657 6.66815C29.1522 6.86928 28.8048 6.97857 28.4598 7.00231L28.0479 1.01647ZM26.0068 1.77279C24.6868 2.79674 23.1376 4.51407 23.2262 7.15897L29.2228 6.95814C29.222 6.93488 29.2247 6.94093 29.2189 6.96224C29.2136 6.98215 29.2089 6.98523 29.2207 6.96576C29.2532 6.91202 29.3671 6.75975 29.6843 6.51367L26.0068 1.77279ZM23.2275 7.19337C23.266 8.04996 23.4377 8.89368 23.7345 9.69739L29.3629 7.61868C29.2787 7.3908 29.2319 7.15704 29.2214 6.92374L23.2275 7.19337ZM23.7061 9.61697C23.9938 10.47 24.467 11.2406 25.0804 11.8836L29.4218 7.74201C29.3971 7.71612 29.3915 7.69958 29.3913 7.69911L23.7061 9.61697ZM25.0804 11.8836C25.6932 12.526 26.4321 13.027 27.2412 13.3658L29.5587 7.8314C29.4913 7.80317 29.4471 7.7686 29.4218 7.74201L25.0804 11.8836ZM27.2168 13.3554C27.8102 13.6101 28.4255 13.8128 29.0549 13.9616L30.436 8.12277C30.1411 8.05303 29.8557 7.95872 29.5831 7.84174L27.2168 13.3554ZM29.0634 13.9637C30.3378 14.2612 31.6486 14.3915 32.9587 14.3517L32.7766 8.35445C31.9843 8.3785 31.1933 8.29955 30.4274 8.12075L29.0634 13.9637Z" fill="white" mask="url(#path-1-inside-1_307_859)"/>
</svg>
