<svg width="149" height="5" viewBox="0 0 149 5" fill="none" xmlns="http://www.w3.org/2000/svg">
<path d="M148.008 2.2574C147.808 2.00286 147.722 1.79682 147.573 1.71028C147.376 1.62681 147.162 1.58916 146.948 1.60017C143.97 1.57326 140.993 1.56587 138.015 1.5194C134.706 1.47067 131.398 1.44152 128.086 1.30151C123.761 1.12275 119.471 0.818794 115.119 0.634375C112.092 0.504658 109.06 0.427374 106.03 0.421749C100.883 0.406841 95.7395 0.48319 90.5936 0.494361C85.0708 0.511295 79.5472 0.502111 74.057 0.504928L72.5955 0.513472C66.9674 0.546894 61.3531 0.599409 55.7048 0.620437C48.443 0.657098 41.185 0.676227 33.9309 0.677828L12.3288 0.729617L3.06861 0.744461C2.58133 0.72768 2.09347 0.743589 1.60832 0.792083C1.20075 0.836844 0.82185 1.02124 0.537665 1.31316C0.253465 1.60508 0.0818602 1.98602 0.0529168 2.38965C0.048284 2.79252 0.182222 3.18488 0.432873 3.50271C0.683523 3.82054 1.03609 4.04504 1.43293 4.13951C1.80681 4.20469 2.18705 4.22735 2.56623 4.207C6.53493 4.20158 10.5031 4.17655 14.4253 4.16612L37.8193 4.09509L57.6617 4.03544L81.2213 3.96547C87.8354 3.94558 94.4487 3.89964 101.064 3.91887C106.211 3.93377 111.352 3.97498 116.494 3.65716C119.57 3.45895 122.643 3.15643 125.735 3.04254C131.021 2.87015 136.343 2.76835 141.65 2.62791C143.491 2.56786 145.33 2.50788 147.167 2.44798C147.452 2.40657 147.733 2.34284 148.008 2.2574Z" fill="#A5594B"/>
</svg>
