<svg width="523" height="490" viewBox="0 0 523 490" fill="none" xmlns="http://www.w3.org/2000/svg">
<path d="M376.325 107.583L378.61 104.877C380.349 102.535 382.459 100.493 384.855 98.8331C386.228 97.8658 387.779 97.1833 389.416 96.8269C391.053 96.4704 392.743 96.4471 394.385 96.7581C396.489 97.1845 398.561 97.7487 400.589 98.4467C406.583 100.459 412.551 102.58 418.515 104.654C419.23 104.909 419.942 105.14 420.626 105.456C425.403 107.631 430.175 109.83 434.94 112.053C438.301 113.55 441.059 116.13 442.777 119.385C444.235 122.139 445.783 124.837 447.184 127.607C449.162 131.451 449.926 135.813 449.375 140.118C448.949 145.587 447.996 151.005 446.527 156.296C445.765 158.79 445.781 161.452 446.571 163.927C447.333 166.506 448.061 169.1 448.857 171.665C450.407 177.27 450.949 183.113 450.458 188.922C450.072 192.474 448.758 195.868 446.649 198.762C446.242 199.397 445.736 199.971 445.316 200.596C441.778 205.813 436.719 208.223 430.596 208.822C429.755 208.896 428.906 209.006 427.891 209.107C428.013 210.32 428.156 211.354 428.243 212.428C428.463 215.856 428.801 219.296 428.845 222.727C428.768 228.15 426.987 233.423 423.755 237.797C422.382 239.61 420.718 241.184 418.831 242.453C414.287 246.091 409.441 249.331 404.347 252.14C402.677 253.123 401.057 254.188 399.492 255.332C399.069 255.628 398.699 255.99 398.346 256.28C398.516 257.206 399.153 257.091 399.62 257.05C403.088 256.894 406.5 257.911 409.306 259.937C412.03 261.645 414.583 263.61 416.931 265.806C419.348 268.063 421.615 270.216 423.881 272.498C425.997 274.646 427.714 277.155 428.95 279.909C430.663 283.633 432.739 287.178 435.147 290.491C436.448 292.329 437.715 294.182 438.861 296.128C439.875 297.769 440.758 299.489 441.501 301.271C442.221 303.074 442.543 305.015 442.445 306.96C442.348 308.905 441.832 310.809 440.935 312.543C440.075 313.786 439.556 315.231 439.429 316.733C439.46 317.26 438.899 317.874 438.517 318.378C436.772 320.572 434.724 322.508 432.435 324.125C425.314 329.413 417.612 333.865 409.483 337.393C400.64 341.292 390.881 342.573 381.368 341.081C378.402 340.602 375.456 339.943 372.508 339.392C371.697 339.251 370.87 339.207 369.743 339.083C369.956 339.769 370.223 340.438 370.54 341.082C372.458 344.474 373.265 348.388 372.849 352.277C372.577 355.16 372.284 358.068 371.959 361.013C376.501 366.848 381.051 372.799 385.724 378.657C391.614 386.043 397.855 393.115 404.194 400.097C417.085 414.052 431.121 426.901 446.156 438.511C454.516 445.044 463.057 451.338 471.874 457.278C477.645 461.168 483.313 465.233 489.2 468.961C496.722 473.721 504.389 478.233 512.064 482.838C515.536 484.92 519.103 486.865 522.523 489.163C521.883 489.01 521.254 488.814 520.641 488.576C506.308 482.268 492.38 475.084 478.935 467.066C465.985 459.26 453.483 450.736 441.488 441.534C435.08 436.648 428.855 431.562 422.814 426.276C417.004 421.177 411.541 415.718 406.217 410.094C398.622 402.075 391.456 393.66 384.748 384.883C381.659 380.862 378.787 376.762 375.779 372.722C375.269 372.098 374.726 371.502 374.152 370.936C373.901 371.348 373.692 371.784 373.529 372.238C372.748 375.595 371.681 378.88 370.341 382.059C369.798 383.471 369.254 384.883 368.869 386.364C368.262 388.335 368.14 390.421 368.516 392.442C368.716 393.612 368.928 394.77 369.059 395.946C369.275 398.109 368.652 400.279 367.317 402.005C364.885 405.051 361.952 407.661 358.645 409.721C355.985 411.561 353.072 413.003 349.999 414C346.4 415.14 342.816 416.314 339.197 417.351C335.1 418.332 331.291 420.281 328.09 423.035C325.58 425.309 322.304 426.544 318.93 426.488C318.061 426.494 317.204 426.511 316.353 426.598C307.759 427.461 300.01 424.838 292.561 420.989C291.621 420.482 290.719 419.909 289.859 419.274C287.686 417.702 285.556 416.078 283.415 414.467C280.612 412.466 278.272 409.888 276.55 406.904C274.828 403.92 273.763 400.599 273.427 397.161C273.37 396.743 273.255 396.341 273.198 396.075C272.529 395.511 272.01 395.921 271.569 396.137C268.634 397.489 265.697 398.818 262.807 400.296C260.19 401.585 257.991 403.595 256.471 406.089C255.13 408.178 253.522 410.084 251.688 411.757C249.122 414.075 246.934 416.781 245.203 419.774C243.449 422.748 241.385 425.528 239.046 428.068L235.496 432.275C233.755 434.384 231.292 435.768 228.593 436.153C223.763 436.755 218.944 437.344 214.189 437.857C210.961 438.093 207.722 437.682 204.663 436.65C199.487 435.232 194.43 433.417 189.538 431.219C187.108 430.089 184.508 429.364 181.84 429.074L173.21 427.905C169.479 427.411 165.849 426.351 162.445 424.76C156.28 422.015 150.366 418.742 144.768 414.978C138.013 410.347 132.525 404.101 128.797 396.8C127.369 394.267 126.526 391.444 126.327 388.536C126.265 388.092 126.154 387.656 125.998 387.236C122.414 387.975 118.948 388.728 115.512 389.418C110.546 390.362 105.568 391.318 100.597 392.062C94.0996 392.989 87.5314 393.276 80.9867 392.919C78.7368 392.824 76.4945 392.609 74.2689 392.275C69.9842 391.663 65.9743 389.827 62.7181 386.988C60.6609 385.252 58.7557 383.361 56.8076 381.522C53.6345 378.496 50.5669 375.319 47.2469 372.365C45.346 370.794 43.3358 369.36 41.2317 368.073C39.7146 367.054 38.0835 366.221 36.5791 365.212C33.9901 363.661 31.7496 361.592 29.9958 359.135C28.115 356.242 26.1297 353.217 24.3202 350.189C22.5972 347.311 21.7213 344.001 21.7927 340.637C21.8472 337.832 21.9268 335.049 22.1573 332.241C22.3696 330.309 22.3299 328.359 22.039 326.44C20.6506 318.664 21.516 310.637 24.5335 303.306C25.2991 301.298 26.0163 299.27 26.746 297.253C27.8672 294.323 28.5678 291.252 28.8266 288.13C29.0216 285.415 30.1455 282.844 32.0091 280.851C32.9099 279.784 33.8107 278.716 34.8504 277.766C37.1494 275.429 40.2446 274.051 43.5073 273.909C47.5909 273.574 51.6964 273.973 55.6295 275.088C57.3528 275.607 58.8911 276.165 60.5317 276.68C61.1217 276.851 61.7295 276.95 62.9883 277.251C62.616 276.843 62.2156 276.462 61.7903 276.11C56.6891 272.936 51.5577 269.824 46.4993 266.6C42.7056 264.181 39.0561 261.515 35.2516 259.11C32.5496 257.395 29.7509 255.795 26.9346 254.267C23.4949 252.514 20.1546 250.574 16.9285 248.455C13.5282 246.005 10.6039 242.954 8.29732 239.452C2.61208 231.537 -0.231625 221.917 0.225002 212.144C0.201259 208.682 1.13288 205.274 2.917 202.297C4.56469 199.62 5.48405 196.561 5.5827 193.428C5.80431 189.443 6.70216 185.522 8.23811 181.831C9.43736 178.368 10.8508 174.983 12.4702 171.694C13.5177 169.669 15.0376 167.924 16.9002 166.609C18.7628 165.293 20.9128 164.447 23.1664 164.141C25.5055 163.734 27.8938 163.727 30.23 164.119L32.986 164.617C33.0375 164.104 33.0152 163.588 32.9201 163.082C31.4132 159.03 30.9925 154.647 31.6996 150.368C32.0865 147.605 32.3064 144.809 32.5861 142.173C32.5115 141.917 32.4086 141.669 32.2793 141.436C29.1408 137.703 27.4319 132.97 27.4558 128.074C27.0742 120.318 28.1292 112.548 30.5675 105.156C31.4422 102.609 32.2703 100.066 32.974 97.4397C33.4484 95.3873 34.336 93.4508 35.5826 91.749C36.8292 90.0473 38.4084 88.6162 40.2232 87.5437C44.382 85.0482 48.4973 82.4507 52.8248 80.2932C59.1325 77.0907 66.3612 76.2452 73.2045 77.9095C74.2475 78.1588 75.2869 78.3611 76.2668 78.5571C77.3191 77.6174 77.0015 76.4573 77.0833 75.4385C77.3667 71.6643 78.5719 68.0115 80.5928 64.8014C83.6609 59.3985 88.4693 55.191 94.2253 52.8725C97.458 51.6107 100.275 49.4623 102.351 46.675C103.394 45.2965 104.31 43.8261 105.086 42.2819C106.498 39.6102 108.47 37.273 110.866 35.4322C113.329 33.4905 115.496 31.1992 117.297 28.6314C118.565 26.8729 119.898 25.1908 121.191 23.4536C121.686 22.7446 122.335 22.1577 123.09 21.7384C123.845 21.319 124.685 21.0783 125.545 21.035C127.144 20.8702 128.732 20.6124 130.302 20.263C131.887 19.84 133.568 20.019 135.022 20.7649C139.061 23.1733 143.28 22.4249 147.527 21.592C149.218 21.2783 150.892 20.9074 152.594 20.581C156.105 19.921 159.722 20.1905 163.085 21.3624C163.774 21.5958 164.494 21.7675 165.443 22.025C165.607 21.2863 165.719 20.5376 165.778 19.7841C165.846 17.6694 166.599 15.6296 167.924 13.9725C169.248 12.3153 171.072 11.1305 173.121 10.5973C176.135 9.79058 179.146 8.93721 182.128 8.01578C186.988 6.5221 192.116 6.15468 197.124 6.94153C199.051 7.21875 200.956 7.5216 202.862 7.82424C205.735 8.29675 208.687 8.03247 211.44 7.05646C213.991 6.18474 216.56 5.39389 219.097 4.48818C227.778 1.37071 236.031 2.52558 243.982 6.77723C250.128 10.0705 256.282 13.3279 262.426 16.5978C262.966 16.8796 263.549 17.1105 264.197 17.418C264.371 16.9557 264.592 16.6423 264.561 16.398C264.307 14.3629 264.748 12.2968 265.813 10.5354C266.311 9.45665 267.049 8.50539 267.971 7.75517C268.893 7.00492 269.973 6.47574 271.128 6.20881C272.068 5.96504 273.025 5.79054 273.989 5.68635C276.172 5.35286 278.263 5.18037 280.409 4.96779C286.838 4.37301 293.219 3.31569 299.502 1.80362C304.438 0.612623 309.543 0.333983 314.566 0.98198C317.342 1.31083 320.073 1.93806 322.712 2.85237C325.356 3.71334 328.04 4.47676 330.7 5.24224C333.361 6.00773 336.096 6.68397 338.815 7.30313C341.304 7.95057 343.832 8.43531 346.386 8.75372C354.619 9.52226 360.268 13.9413 364.252 20.8716C365.718 23.3815 366.697 26.1484 367.136 29.0279C367.7 32.6366 368.159 36.2661 368.408 39.9142C368.698 44.2057 368.801 48.5137 368.857 52.8257C369.014 59.1753 369.552 65.5072 370.468 71.7871C370.494 72.1076 370.543 72.4258 370.615 72.7388C372.643 81.3471 373.358 90.1533 374.543 98.8123C374.884 101.276 375.375 103.691 375.831 106.121C375.95 106.722 375.996 107.436 376.696 107.657C376.63 108.393 376.643 109.133 376.734 109.865C377.241 112.055 377.841 114.237 378.395 116.423C379.566 121.114 380.09 125.948 379.95 130.79C379.973 132.404 379.796 134.016 379.423 135.589C378.116 140.699 376.144 145.618 373.557 150.221C373.197 150.853 372.948 151.557 372.552 152.462C373.04 152.453 373.528 152.406 374.01 152.322C377.88 151.352 381.641 149.984 385.235 148.239C387.17 147.14 389.362 146.581 391.58 146.619C393.799 146.658 395.962 147.293 397.843 148.458C401.283 150.425 404.589 152.627 408.018 154.607C409.759 155.581 411.231 156.973 412.301 158.658C413.371 160.343 414.006 162.269 414.151 164.265C414.459 166.462 414.5 168.564 414.698 170.71C415.329 176.769 413.648 182.858 409.993 187.758C408.383 189.955 407.59 192.644 407.753 195.354C407.803 197.091 408.391 198.765 409.435 200.147C409.711 200.677 410.176 201.083 410.739 201.285C411.302 201.486 411.922 201.467 412.474 201.231C413.21 201.025 413.902 200.717 414.611 200.467C415.503 200.098 416.415 199.778 417.342 199.509C420.72 198.682 424.121 199.158 426.117 203.476C426.516 204.335 426.886 205.126 427.359 206.025C427.817 206.02 428.177 206.106 428.439 206C431.121 204.87 433.887 203.897 436.432 202.52C439.092 201.062 441.39 199.018 443.149 196.544C444.907 194.069 446.082 191.229 446.582 188.24C447.762 182.722 447.488 177.001 445.787 171.641C444.913 168.989 444.165 166.291 443.406 163.605C442.579 161.018 442.608 158.227 443.488 155.646C445.094 150.502 446.146 145.204 446.625 139.843C447.217 136.207 446.541 132.486 444.712 129.307C443.437 127.078 441.933 124.917 440.586 122.801C438.587 119.711 435.642 117.355 432.187 116.083C429.677 115.14 427.228 114.073 424.744 113.022C415.77 109.213 406.686 105.638 397.84 101.371C397.361 101.133 396.869 100.921 396.366 100.736C395.242 100.353 394.13 99.9804 392.962 99.6481C391.866 99.3476 390.718 99.2822 389.591 99.4564C388.465 99.6307 387.386 100.041 386.426 100.659C384.56 101.742 382.871 103.105 381.417 104.7C380.58 105.691 379.744 106.682 378.794 107.578C377.844 108.473 377.064 108.142 376.325 107.583ZM192.98 49.724C193.044 49.901 193.124 50.0713 193.221 50.2322C193.284 50.2855 193.448 50.2709 193.556 50.2967C193.474 50.2491 193.402 50.1879 193.341 50.1157C193.215 50.0092 193.076 49.8919 193.014 49.7092C192.348 50.1913 191.389 49.3819 190.772 50.1891C188.739 48.6037 186.35 49.0026 184.019 48.9726C181.046 50.2055 177.908 50.9893 174.709 51.2984C174.402 51.3954 174.105 51.5242 173.824 51.6824C172.613 52.1565 171.307 52.3262 170.02 52.1771C168.733 52.028 167.504 51.5645 166.442 50.827C165.812 50.4473 165.254 49.9554 164.542 49.4418C162.959 50.9245 161.008 51.9538 158.895 52.4212C156.324 52.9064 153.775 53.3665 151.3 54.0197C148.826 54.673 146.316 55.3174 143.865 56.1215C142.858 56.4835 141.929 57.0368 141.129 57.7506C135.51 62.5391 131.099 68.1505 129.465 75.5404L129.363 75.867C128.167 80.122 126.437 84.2113 124.214 88.0367C121.677 92.5576 120.028 97.5191 119.358 102.651C118.878 104.439 119.036 106.335 119.805 108.011C119.995 108.323 119.848 108.83 119.87 109.24C119.891 109.65 119.917 110.106 120.689 110.062C121.644 107.778 122.663 105.418 123.599 103.053C123.759 102.414 123.848 101.759 123.864 101.101C124.117 99.2908 124.226 97.4461 124.646 95.6682C126.443 88.2639 129.75 81.9378 137.209 78.681C138.298 78.2004 139.277 77.4981 140.082 76.6189C140.887 75.7398 141.501 74.7033 141.885 73.5757C142.235 72.6744 142.608 71.7712 143.02 70.8998C143.287 70.1955 143.666 69.5382 144.143 68.9539C146.68 66.4602 149.263 63.9622 152.885 63.102C155.29 62.5101 157.622 61.6457 159.835 60.5255L167.683 56.705C171.584 54.6358 175.758 53.1391 180.078 52.2607C183.663 51.6743 187.223 50.784 190.782 50.0234C192.032 50.6426 192.208 50.6389 192.98 49.724ZM244.723 279.814L244.231 279.398C244.231 279.398 244.191 279.625 244.214 279.623C244.383 279.67 244.555 279.706 244.728 279.731C246.1 279.974 247.452 280.267 248.831 280.451C251.385 280.779 253.973 280.939 256.511 281.363C261.159 282.156 265.876 282.493 270.595 282.369C275.316 282.458 280.035 282.018 284.666 281.058C287.685 280.298 290.82 280.116 293.892 279.575C296.969 278.969 299.891 277.73 302.472 275.937C304.167 274.8 305.874 273.673 307.542 272.491C308.728 271.743 309.854 270.904 310.912 269.982C316.391 264.945 321.546 259.564 326.344 253.872C329.816 249.61 332.928 245.067 335.645 240.29C337.377 237.055 339.298 233.924 341.397 230.913C345.103 225.882 348.956 220.931 353.027 216.185C356.105 212.696 358.196 208.449 359.082 203.889C359.377 202.31 359.621 200.689 359.882 199.125C360.371 195.139 359.713 191.103 357.986 187.494C356.61 184.538 354.128 182.248 351.072 181.115C350.374 180.847 349.629 180.721 348.879 180.744C348.445 180.756 348.02 180.875 347.641 181.091C347.263 181.307 346.943 181.613 346.711 181.982C346.501 182.451 346.359 182.946 346.29 183.454C350.344 184.309 352.186 187.016 353.251 190.569C353.901 192.736 354.102 195.016 353.842 197.269C353.277 202.189 352.632 207.127 352.066 212.023C351.767 214.174 350.783 216.175 349.261 217.729C347.465 219.754 345.278 221.396 342.834 222.553C339.94 223.806 337.568 226.029 336.126 228.837C335.741 229.6 335.369 230.374 334.961 231.14C333.321 234.107 331.769 236.996 330.125 239.917C329.146 241.671 327.755 243.162 326.075 244.261C324.394 245.361 322.473 246.035 320.48 246.225C319.094 246.398 317.698 246.478 316.302 246.464C315.223 246.488 314.182 246.415 313.072 246.348C310.893 246.232 308.746 246.946 307.062 248.348C305.891 249.275 304.749 250.269 303.658 251.307C301.23 253.65 298.088 255.108 294.742 255.445C292.059 255.698 289.36 255.68 286.684 255.39C284.445 255.176 282.195 254.974 279.927 254.844C277.879 254.681 275.822 255.103 273.995 256.061C270.152 258.027 266.652 260.608 263.636 263.702L254.615 273.495C252.303 276.391 249.042 278.376 245.417 279.093C245.29 279.116 245.02 279.564 244.723 279.814ZM279.07 303.642C274.369 308.602 269.256 313.153 263.787 317.246C263.189 317.706 262.645 318.232 262.162 318.812C260.713 320.408 259.064 321.811 257.258 322.985C249.972 327.991 242.393 332.551 234.561 336.642C228.933 339.834 222.912 342.267 216.656 343.877C214.885 344.338 213.145 344.912 211.446 345.595C210.33 345.972 209.255 346.465 208.239 347.065C202.98 350.446 197.752 353.867 192.555 357.328C188.328 360.12 183.814 362.446 179.093 364.266C174.779 365.964 170.507 367.74 166.276 369.595C163.207 370.954 159.967 371.881 156.648 372.349C153.788 372.742 150.929 373.288 148.09 373.938C143.486 375.014 138.903 376.194 134.358 377.406C133.762 377.618 133.252 378.023 132.911 378.557C131.521 380.992 130.521 383.629 129.948 386.37C129.526 388.055 129.641 389.826 130.277 391.435C130.706 392.533 131.19 393.61 131.727 394.659C135.515 401.938 141.206 408.041 148.197 412.323C153.977 415.808 160.064 418.76 166.383 421.143C168.401 421.868 170.492 422.378 172.62 422.664C175.467 423.13 178.412 423.482 181.242 423.739C185.081 424.182 188.851 425.077 192.474 426.408C197.068 428.108 201.867 429.439 206.582 430.893C208.832 431.635 211.208 431.933 213.577 431.771C217.968 431.408 222.346 430.881 226.729 430.424C228.335 430.203 229.821 429.437 230.938 428.253C234.571 424.854 237.71 420.962 240.262 416.692C242.446 413.097 245.145 409.839 248.27 407.023C249.41 406.031 250.391 404.87 251.177 403.579C253.439 399.485 256.994 396.254 261.282 394.396C263.808 393.221 266.343 392.01 268.896 390.879C271.021 389.993 272.855 388.522 274.183 386.637C276.113 384.035 277.643 381.161 278.722 378.109C279.809 374.849 281.148 371.649 281.994 368.316C284.088 360.074 286.145 351.823 287.83 343.476C288.965 337.906 289.525 332.199 290.336 326.552C290.661 324.638 290.657 322.685 290.325 320.777L289.233 315.286C287.202 313.785 285.287 312.134 283.506 310.345C281.869 308.22 280.387 305.98 279.07 303.642ZM132.712 303.715C131.832 302.695 130.729 301.89 129.488 301.364C126.973 300.134 124.545 298.732 122.223 297.17C117.151 293.347 111.666 290.219 106.365 286.769C102.392 283.989 97.7192 282.373 92.8664 282.1C92.4394 282.077 92.0149 282.024 91.5957 281.941C86.2934 281.039 80.8614 281.15 75.5868 282.27C72.3721 282.929 69.2523 283.451 66.9352 286.043C66.8575 286.124 66.7617 286.185 66.6558 286.221C63.6818 287.746 61.3535 290.296 60.1024 293.397C59.0366 295.386 58.3974 297.574 58.2259 299.82C58.1461 302.522 57.3994 305.166 56.0528 307.517C54.9925 309.516 54.1033 311.594 53.214 313.672C52.6935 314.921 52.4314 316.261 52.444 317.61C52.4566 318.96 52.7435 320.291 53.2871 321.523C53.942 323.109 54.7267 324.637 55.6333 326.092C58.0346 329.773 60.7506 333.237 63.751 336.446C66.5506 339.41 69.5525 342.176 72.7351 344.723C76.5935 347.974 79.7498 351.978 82.0141 356.492C83.3729 359.243 85.2823 361.682 87.6245 363.659C89.9667 365.636 92.6921 367.108 95.6322 367.985C97.8685 368.741 100.17 369.291 102.415 370.01C112.587 373.206 123.358 374.082 133.942 372.573C135.852 372.276 137.742 371.858 139.601 371.322C144.849 369.721 150.194 368.468 155.602 367.571C158.589 367.162 161.5 366.303 164.236 365.022C167.275 363.649 170.281 362.161 173.409 361.015C180.939 358.093 188.111 354.311 194.784 349.745C195.367 349.288 195.923 348.799 196.452 348.28L194.579 347.939C191.209 347.272 187.813 346.712 184.483 345.947C181.337 345.224 178.34 343.969 175.622 342.234C174.21 341.347 172.765 340.345 171.315 339.426C167.189 336.701 162.573 334.799 157.717 333.825C155.714 333.484 153.718 333.083 151.728 332.6C147.3 331.63 143.204 329.537 139.83 326.52C137.938 324.793 136.055 323.03 134.217 321.239C130.608 317.566 126.736 314.16 122.633 311.049C121.521 310.242 120.311 309.525 119.134 308.793C118.811 308.602 118.548 308.323 118.376 307.989C118.203 307.655 118.128 307.279 118.158 306.903C118.179 306.52 118.325 306.154 118.573 305.861C118.821 305.567 119.157 305.362 119.531 305.276C120.144 305.02 120.783 304.83 121.436 304.708C122.806 304.494 124.188 304.29 125.589 304.166C127.6 303.883 129.848 303.779 132.704 303.622L132.712 303.715ZM292.976 318.097C294.864 323.542 293.909 328.284 293.299 333.078C292.94 335.756 292.735 338.433 292.442 341.058C292.163 343.412 291.968 345.794 291.474 348.096C289.665 357.61 287.378 367.03 284.619 376.319C282.798 382.07 280.081 387.502 276.568 392.414C276.213 392.876 275.972 393.415 275.865 393.987C275.758 394.559 275.789 395.147 275.954 395.703C276.854 399.584 278.447 403.265 280.657 406.57C281.596 408.004 282.714 409.313 283.983 410.464C286.531 412.745 289.221 414.884 291.91 417.023C292.579 417.558 293.298 418.026 294.058 418.422C302.204 422.898 311.587 424.632 320.828 423.369C322.66 423.195 324.392 422.436 325.767 421.204C329.645 417.746 334.281 415.254 339.295 413.931C342.393 412.999 345.434 411.932 348.544 410.858C353.408 409.068 357.848 406.276 361.575 402.663C362.864 401.681 363.815 400.32 364.295 398.773C364.774 397.227 364.758 395.571 364.249 394.041C363.169 390.066 363.382 385.841 364.856 381.977L366.029 378.616L367.215 375.265C368.215 372.518 368.552 369.865 366.595 367.344C366.532 367.255 366.484 367.156 366.454 367.051C365.33 364.947 365.035 362.494 365.625 360.172C366.215 357.449 366.553 354.667 367.023 351.909C367.656 348.367 366.906 344.727 364.928 341.742C364.305 340.738 363.683 339.734 363.122 338.76C362.804 338.204 362.376 337.719 361.864 337.335C361.352 336.952 360.766 336.677 360.143 336.529C357.869 335.894 355.622 335.151 353.378 334.302C346.947 331.892 340.29 330.123 333.505 329.018C328.965 328.277 324.39 327.527 319.819 326.977C314.364 326.392 309.032 324.995 304 322.831C301.354 321.664 298.699 320.533 296.091 319.399C295.247 318.991 294.48 318.67 292.918 317.961L292.976 318.097ZM218.883 216.405C216.754 217.071 214.503 217.241 212.305 216.903C209.189 216.754 206.084 216.592 202.969 216.596C198.35 216.615 193.734 216.81 189.121 216.898C187.286 216.947 185.483 217.411 183.848 218.257C182.207 219.049 180.579 219.851 178.977 220.674C176.282 222.117 173.131 222.432 170.219 221.552C168.895 221.174 167.527 220.824 166.166 220.568C164.781 220.356 163.365 220.452 162.018 220.849C160.671 221.247 159.425 221.935 158.37 222.866C157.919 223.238 157.546 223.696 157.273 224.213C157 224.73 156.832 225.295 156.78 225.876C156.682 226.838 156.702 227.812 156.674 228.768C156.586 230.869 156.69 232.871 156.55 234.907C156.307 237.926 156.439 240.96 156.943 243.942C157.763 248.398 156.313 249.938 151.712 249.449C149.045 249.145 146.413 248.606 143.845 247.836C140.98 247.007 138.194 245.852 135.38 244.783C132.085 243.502 128.656 242.593 125.155 242.072C122.189 241.585 119.152 241.701 116.224 242.412C113.287 243.114 110.262 243.365 107.256 243.155C105.545 243.083 103.824 243.023 102.057 243.119C99.4702 243.199 96.9454 243.957 94.7348 245.317C93.0857 246.157 91.7354 247.489 90.8719 249.127C90.0083 250.765 89.6744 252.628 89.9164 254.458C90.1312 256.38 90.4734 258.279 90.735 260.197C90.7973 260.676 90.9749 261.132 91.2526 261.525C91.5303 261.919 91.8998 262.238 92.3293 262.456C94.0059 263.414 95.6826 264.372 97.2539 265.48C101.173 268.288 105.084 271.131 108.918 274.04C111.079 275.814 113.677 276.978 116.445 277.411C119.124 277.767 121.655 278.836 123.773 280.506C125.123 281.577 126.738 282.263 128.449 282.494C130.134 282.793 131.842 282.954 133.555 282.973C137.534 282.893 141.508 282.614 145.492 282.451C147.54 282.357 149.523 281.685 151.213 280.512C152.807 279.442 154.519 278.515 156.192 277.556C157.799 276.537 159.643 275.959 161.538 275.881C163.433 275.803 165.312 276.227 166.984 277.111C167.172 277.21 167.368 277.295 167.569 277.365C173.541 279.653 180.159 279.664 186.169 277.397C187.955 276.65 189.784 276.013 191.646 275.491C201.468 273.096 211.319 270.77 221.548 270.786C222.195 270.788 222.829 270.779 223.472 270.734C225.284 270.61 225.522 270.507 225.899 268.78C226.258 267.317 226.874 265.929 227.717 264.679C229.115 262.37 230.867 260.294 232.908 258.528C235.334 256.55 237.669 254.474 240.111 252.553C243.979 249.66 245.999 245.576 248.031 241.351C247.261 240.871 246.564 240.283 245.961 239.604C244.871 238.288 243.392 237.353 241.735 236.93C235.42 234.427 229.834 230.393 225.475 225.188C223.314 222.473 221.313 219.544 218.91 216.297L218.883 216.405ZM232.223 228.228C233.907 229.433 235.034 230.274 236.18 231.067C240.565 234.154 245.692 236.027 251.046 236.498C252.123 236.51 253.196 236.628 254.249 236.851C256.025 237.332 257.916 237.194 259.613 236.46C261.222 235.86 262.805 235.238 264.407 234.544C267.681 233.111 270.488 230.779 272.501 227.82C273.76 225.945 275.004 224.036 276.072 222.13C278.24 218.281 280.309 214.369 282.415 210.49C283.551 208.402 284.724 206.346 285.8 204.252C286.636 202.668 287.115 200.922 287.201 199.137C287.288 197.353 286.981 195.574 286.302 193.927C285.702 192.333 285.077 190.718 284.318 189.185C283.147 186.782 281.872 184.401 280.667 182.013C275.384 171.758 272.683 160.353 272.796 148.782C272.711 143.619 273.628 138.481 275.494 133.653C278.711 125.794 277.88 118.021 274.819 110.433C274.213 109.054 273.332 107.816 272.228 106.794C271.124 105.773 269.821 104.99 268.4 104.494C267.014 103.865 265.465 103.687 263.967 103.983C262.47 104.28 261.099 105.036 260.046 106.147C259.472 106.636 258.983 107.215 258.598 107.863C257.522 109.957 256.461 112.086 255.543 114.249C253.158 119.917 250.889 125.551 248.52 131.277C246.784 135.601 243.914 139.382 240.215 142.219C236.885 144.782 233.462 147.225 230.023 149.61C227.87 151.045 225.925 152.772 224.245 154.742C218.819 161.207 215.504 169.176 214.753 177.563C214.116 185.734 214.644 193.945 216.322 201.951C216.598 203.211 216.95 204.453 217.377 205.669C219.423 211.559 222.449 217.054 226.327 221.925C228.078 224.193 230.063 226.27 232.249 228.12L232.223 228.228ZM285.55 287.027C285.304 287.319 285.143 287.509 285.036 287.637C284.461 290.263 283.864 292.892 283.349 295.525C283.213 296.266 283.235 297.025 283.412 297.755C283.942 299.943 284.52 302.127 285.199 304.267C285.637 305.829 286.495 307.239 287.681 308.342C291.093 311.604 294.989 314.32 299.233 316.393C305.881 319.658 312.996 321.883 320.33 322.992C333.059 324.276 345.553 327.233 357.489 331.787C359.231 332.637 361.226 332.82 363.103 332.304C364.692 333.795 366.716 334.741 368.883 335.006C372.101 335.546 375.192 336.262 378.323 337.033C385.135 338.635 392.221 338.745 399.099 337.355C403.241 336.655 407.242 335.265 410.933 333.242C415.796 330.449 420.637 327.658 425.406 324.721C427.703 323.33 429.823 321.638 431.987 320.048C432.371 319.693 432.71 319.292 432.995 318.853C432.734 318.575 432.441 318.329 432.124 318.118C429.246 316.661 426.715 314.607 424.698 312.091C422.565 309.546 420.11 307.291 417.394 305.383C413.748 302.726 410.451 299.623 407.579 296.143C406.543 294.916 405.413 293.773 404.198 292.724C401.749 290.657 399.235 288.644 396.688 286.669C393.06 283.804 388.862 281.744 384.37 280.626C380.09 279.603 375.807 278.533 372.221 275.638C370.391 276.27 368.669 276.775 366.956 277.396C363.311 278.74 359.475 279.479 355.601 279.584C353.416 279.612 351.302 279.787 349.15 279.776C348.455 279.738 347.759 279.846 347.107 280.094C346.455 280.342 345.861 280.724 345.364 281.216C342.304 283.93 338.838 286.145 335.093 287.778C331.418 289.573 327.722 291.392 324.057 293.174C322.496 293.923 320.914 294.568 319.307 295.192C316.993 296.09 314.695 297.021 312.344 297.758C310.634 298.406 308.841 298.806 307.021 298.945C303.676 299.121 300.341 298.519 297.277 297.187C294.214 295.855 291.505 293.829 289.363 291.267C288.476 290.192 287.656 289.064 286.758 288.002C286.396 287.608 286.001 287.245 285.577 286.918L285.55 287.027ZM39.6204 181.748C39.2953 184.274 38.2624 186.661 36.6411 188.633C35.0432 190.526 33.4238 192.445 31.6978 194.209C29.9718 195.972 28.0337 198.166 26.145 200.097C23.7798 202.501 22.2898 205.629 21.9165 208.974C21.7199 210.462 21.4299 211.958 21.2926 213.452C21.1054 215.336 21.3087 217.236 21.8895 219.033C22.4703 220.83 23.4163 222.485 24.6682 223.894C25.7109 225.115 26.841 226.258 28.0495 227.314C30.2774 229.169 32.2236 231.339 33.8276 233.756C35.2906 235.992 36.8558 238.183 38.3187 240.419C39.1371 241.748 40.2909 242.837 41.6651 243.577C43.0392 244.316 44.5856 244.681 46.1498 244.634C48.8755 244.758 51.7117 245.085 54.4918 245.299C54.826 245.261 55.1521 245.169 55.4571 245.025C51.9282 241.525 48.4661 238.125 45.0848 234.706C42.8604 232.521 41.0708 229.933 39.8099 227.077C39.2561 226.079 39.0502 224.923 39.2242 223.79C39.3981 222.657 39.9421 221.612 40.771 220.817C41.0391 220.499 41.3073 220.182 41.7041 219.711C40.2242 217.455 39.2003 214.928 38.69 212.272C38.133 209.322 37.61 206.357 37.087 203.391C36.4074 199.075 37.415 194.834 38.2951 190.616C38.4267 190.207 38.5952 189.81 38.7984 189.431L41.3842 182.91C41.5035 182.604 41.5842 182.284 41.6245 181.959C42.0778 179.281 41.7193 176.534 40.5952 174.072C39.4711 171.611 37.6329 169.549 35.3187 168.152C34.8619 167.879 34.338 167.738 33.8044 167.744C30.0395 167.853 26.2706 167.914 22.5821 168.239C21.34 168.325 20.1329 168.699 19.056 169.33C17.9791 169.962 17.0617 170.835 16.3764 171.88C15.7849 172.65 15.2692 173.475 14.8367 174.344C12.0111 180.663 9.21085 187.003 8.65869 193.956C8.58782 194.709 8.47595 195.457 8.32346 196.197C7.99167 198.333 7.22096 200.38 6.06043 202.208C3.95703 205.5 2.8771 209.338 2.95859 213.232C2.7973 222.789 5.812 232.106 11.5286 239.72C14.1678 243.392 17.5852 246.432 21.539 248.625C23.9646 249.976 26.4655 251.238 28.9624 252.453C33.2887 254.587 37.4395 257.057 41.3772 259.84C46.671 263.503 52.1005 266.953 57.4655 270.48C61.8543 273.044 66.0203 275.97 69.9204 279.228C72.2701 278.774 74.7168 278.359 77.1326 277.852C80.7149 277.067 84.3984 276.882 88.0331 277.303C91.0996 277.715 94.1788 278.138 97.2706 278.571C99.7265 278.933 102.094 279.736 104.258 280.944C107.346 282.636 110.428 284.387 113.518 286.103C116.906 287.952 120.131 290.084 123.158 292.476C124.285 293.3 125.465 294.049 126.691 294.718C130.907 297.275 135.135 299.82 139.401 302.267C141.04 303.284 142.796 304.1 144.63 304.7C149.257 306.08 153.929 307.304 158.639 308.406C162.218 309.167 165.892 309.402 169.546 309.104C172.752 308.916 175.974 308.632 179.191 308.431C184.03 308.087 188.776 306.892 193.211 304.901C199.316 302.173 205.046 298.663 210.256 294.46C212.029 293.078 213.455 291.3 214.42 289.27C216.843 283.974 219.833 278.954 223.338 274.298C223.424 274.197 223.307 273.925 223.28 273.727C223.252 273.53 222.951 273.45 222.734 273.528C217.905 274.13 213.107 274.694 208.337 275.455C205.585 275.874 202.87 276.608 200.071 277.183C195.724 277.939 191.485 279.237 187.454 281.048C184.59 282.337 181.498 283.03 178.367 283.084C174.05 283.401 169.725 282.728 165.722 281.116C164.561 280.547 163.269 280.297 161.976 280.39C160.683 280.483 159.435 280.917 158.359 281.647C156.959 282.441 155.609 283.323 154.317 284.285C151.873 286.282 148.805 287.349 145.662 287.294C141.997 287.335 138.318 287.624 134.654 287.535C132.404 287.516 130.16 287.324 127.942 286.961C125.353 286.662 122.924 285.569 120.987 283.834C119.778 282.763 118.279 282.073 116.676 281.849C115.924 281.715 115.184 281.569 114.447 281.469C112.102 281.157 109.869 280.294 107.929 278.95C106.718 278.08 105.484 277.212 104.303 276.281C100.147 272.897 95.763 269.801 91.1829 267.015C87.7735 264.987 84.289 263.047 81.1243 260.703C77.9866 258.435 74.4219 256.825 70.6414 255.968C67.9299 255.319 65.2941 254.392 62.7753 253.203C60.4317 252.139 58.0129 251.164 55.6466 250.255C51.8829 249.024 47.892 248.625 43.9483 249.086C44.2427 249.722 44.5872 250.332 44.9785 250.913C45.744 251.798 46.642 252.577 47.3968 253.476C50.6977 257.305 54.7463 260.418 59.2966 262.625C62.7514 264.344 66.1242 266.212 69.5185 268.053C72.6293 269.748 75.515 271.825 78.1089 274.237C78.6516 274.695 79.2698 275.217 78.8864 276.286C77.7046 276.203 76.5902 275.715 75.7296 274.905C74.0699 273.722 72.4834 272.427 70.731 271.405C67.0193 269.273 63.2218 267.244 59.4603 265.223C55.1761 263.229 51.2525 260.543 47.846 257.271C45.5577 254.861 43.4519 252.235 41.2494 249.724C40.4652 248.716 39.5787 247.793 38.6039 246.969C37.0015 245.708 35.5964 244.214 34.4349 242.537C32.1597 239.42 29.9295 236.276 27.6095 233.187C27.0104 232.437 26.3402 231.748 25.6083 231.128C24.6996 230.361 23.8035 229.605 22.8948 228.838C20.9684 227.09 19.4286 224.957 18.3731 222.576C17.3176 220.194 16.7694 217.616 16.7632 215.004C16.7021 211.658 17.0748 208.316 17.872 205.061C18.3665 202.613 19.471 200.327 21.0825 198.414C25.1533 193.821 29.2978 189.268 33.4191 184.717C34.6154 183.437 36.0874 182.446 37.7218 181.821C38.3619 181.683 39.0145 181.614 39.6684 181.614L39.6204 181.748ZM288.673 66.9246C289.406 67.4129 290.032 67.8754 290.822 68.3469C296.485 71.6239 302.197 74.7906 307.784 78.1567C311.498 80.3154 314.894 82.9767 317.878 86.066C321.742 90.2191 325.869 94.1371 329.768 98.2754C331.321 99.8754 332.784 101.561 334.151 103.324C337.645 108.21 340.727 113.38 343.365 118.78C344.71 121.225 345.684 123.859 346.257 126.595C348.013 134.243 348.987 142.056 349.162 149.912C349.148 153.36 349.333 156.802 349.482 160.235C349.699 163.131 349.549 166.045 349.035 168.908C348.935 169.411 348.696 169.95 349.329 170.506C351.416 168.871 353.365 167.066 355.157 165.111C355.773 164.227 356.47 163.401 357.238 162.645C360.835 159.231 364.219 155.597 367.37 151.766C369.59 149.397 371.321 146.613 372.465 143.577C373.083 141.923 373.815 140.364 374.509 138.774C375.76 135.799 376.357 132.593 376.261 129.374C376.169 123.444 375.057 117.581 372.973 112.043C371.55 108.215 370.515 104.251 369.884 100.211C368.918 93.6734 367.758 87.0589 366.742 80.4789C366.206 76.9571 364.881 73.6075 362.866 70.6806C360.241 66.8716 356.916 63.6004 353.066 61.0398C350.763 59.4665 348.451 57.9292 346.144 56.4387C338.337 51.2824 329.461 47.9558 320.172 46.705C315.689 46.2184 311.259 45.3413 306.933 44.0836C304.662 43.3863 302.264 43.1886 299.903 43.5034C298.336 43.5786 296.823 44.1118 295.55 45.0372C294.278 45.9627 293.302 47.2396 292.743 48.71C292.147 50.2092 291.444 51.6828 290.98 53.2058C289.853 57.0351 289.082 60.9582 288.675 64.9248C288.639 65.5912 288.639 66.2587 288.673 66.9246ZM347.224 232.459C347.521 232.492 347.82 232.489 348.117 232.451C350.757 231.887 353.476 231.827 356.132 232.274C358.059 232.551 359.965 232.854 361.859 233.169C365.355 233.772 368.914 233.932 372.455 233.647C374.055 233.518 375.668 233.399 377.263 233.353C381.238 233.117 385.166 232.34 388.937 231.042C392.199 229.943 395.538 229.084 398.847 228.134C400.386 227.693 401.966 227.306 403.499 226.795C406.338 225.751 409.335 225.216 412.353 225.215C414.196 225.281 416.006 224.688 417.46 223.542C418.402 222.835 419.369 222.15 420.284 221.399C420.985 220.888 421.577 220.242 422.026 219.499C422.474 218.757 422.77 217.932 422.896 217.075C423.252 214.736 423.48 212.379 423.58 210.016C423.549 208.293 423.263 206.586 422.734 204.95C422.654 204.578 422.501 204.227 422.283 203.916C422.066 203.605 421.787 203.341 421.465 203.14C421.143 202.939 420.784 202.806 420.408 202.746C420.033 202.687 419.649 202.704 419.279 202.796C418.219 202.981 417.179 203.27 416.175 203.658C415.051 204.016 413.976 204.522 412.838 204.846C411.851 205.153 410.797 205.16 409.811 204.865C408.824 204.571 407.948 203.989 407.296 203.193C406.785 202.651 406.345 202.046 405.986 201.391C404.717 199.193 404.09 196.679 404.176 194.133C404.262 191.587 405.058 189.111 406.474 186.986C407.357 185.555 408.266 184.299 409.081 182.898C410.618 180.3 411.586 177.408 411.919 174.414C412.277 170.877 412.201 167.312 411.692 163.8C411.524 162.076 410.918 160.428 409.93 159.011C408.942 157.595 407.606 156.458 406.05 155.71C403.866 154.585 401.825 153.188 399.712 151.928C398.601 151.273 397.52 150.556 396.359 150.012C394.988 149.263 393.448 148.876 391.882 148.886C390.316 148.897 388.776 149.304 387.406 150.071C383.231 152.341 378.724 153.93 374.056 154.776C372.601 155.015 371.135 155.179 369.664 155.269C367.798 157.48 365.707 159.958 363.626 162.424C360.495 166.134 357.172 169.662 353.953 173.298C353.361 173.922 352.806 174.58 352.29 175.268C352.009 175.728 351.773 176.213 351.585 176.718L355.168 178.567C357.77 179.893 359.86 182.039 361.119 184.677C363.124 188.624 364.05 193.038 363.804 197.474C363.543 201.562 362.811 205.609 361.621 209.535C360.784 212.546 359.386 215.375 357.502 217.873C354.231 222.031 351.071 226.262 347.875 230.484C347.503 230.976 346.752 231.43 347.161 232.406L347.224 232.459ZM67.4591 280.045C66.0354 278.582 64.7707 277.776 62.7922 278.457C61.6436 278.748 60.4563 278.848 59.2777 278.754C56.0421 278.722 52.8331 278.581 49.5975 278.548C47.456 278.525 45.3145 278.502 43.1629 278.645C41.975 278.69 40.8107 279.003 39.7568 279.56C38.7028 280.117 37.7864 280.905 37.0759 281.863C36.5565 282.555 35.9982 283.217 35.4031 283.845C34.1193 285.179 33.3958 286.953 33.3835 288.799C33.0859 294.181 31.6017 299.437 29.0376 304.192C25.7267 310.902 24.2703 318.367 24.8207 325.807C24.9658 327.933 24.907 330.069 24.6451 332.186C24.3111 334.733 24.1569 337.323 23.9668 339.904C23.7367 342.929 24.3948 345.95 25.8599 348.595C27.0894 350.851 28.3531 353.092 29.606 355.346C31.8987 359.511 35.3323 362.929 39.5056 365.201C44.714 368.203 49.5207 371.85 53.8128 376.057C56.5384 378.64 59.2082 381.263 61.8909 383.897C66.1741 388.047 71.8593 390.44 77.8366 390.609C79.1358 390.682 80.4115 390.758 81.7069 390.785C89.5612 390.98 97.419 390.315 105.141 388.803C111.475 387.621 117.886 386.504 124.157 385.269C124.886 385.122 125.596 384.895 126.345 384.7L128.165 377.729C127.68 377.642 127.188 377.591 126.695 377.576C118.21 377.745 109.766 376.502 101.708 373.896C99.9955 373.364 98.4357 372.831 96.751 372.498C92.1031 371.53 87.8015 369.348 84.2815 366.174C81.7965 364.127 79.7747 361.575 78.348 358.686C77.4795 356.725 76.3336 354.9 74.9454 353.269C71.4656 349.505 67.8837 345.786 64.0551 342.359C60.368 339.246 57.0521 335.718 54.1724 331.843C52.5312 329.594 51.0793 327.212 49.8319 324.721C48.7882 322.707 48.2147 320.479 48.1542 318.205C48.0937 315.931 48.5479 313.669 49.4827 311.589C50.4363 309.435 51.3267 307.227 52.4514 305.152C53.4967 303.382 54.086 301.381 54.1655 299.331C54.2504 296.417 55.148 293.58 56.7567 291.139C57.1311 290.617 57.4558 290.06 57.7267 289.478C58.7253 287.059 60.5597 285.076 62.8928 283.894C64.6721 282.954 66.2298 281.641 67.4591 280.045ZM217.024 212.617C216.718 211.75 216.509 211.051 216.218 210.37C213.641 204.219 212.229 197.635 212.055 190.952C212.037 188.413 211.848 185.795 211.616 183.227C211.048 177.747 211.876 172.203 214.022 167.112C215.107 164.546 216.224 161.942 217.591 159.528C220.33 154.235 224.497 149.811 229.616 146.764C232.193 145.198 234.684 143.495 237.078 141.66C241.363 138.71 244.746 134.622 246.842 129.86C248.778 125.184 250.898 120.598 252.906 115.94C253.45 114.68 253.861 113.373 254.277 112.266C254.108 111.928 254.086 111.801 254.011 111.737C253.703 111.445 253.379 111.171 253.039 110.917C250.714 109.318 249.095 106.885 248.513 104.117C248.201 102.874 247.979 101.6 247.667 100.357C247.491 99.6428 247.213 98.9733 246.966 98.2423C244.868 98.2934 242.793 97.8213 240.929 96.8685C239.854 96.3613 238.645 96.2084 237.473 96.4318C235.556 96.7498 233.598 96.707 231.702 96.3052C227.255 95.5145 222.7 95.5058 218.239 96.2797C216.748 96.4562 215.309 96.9479 214.018 97.7221C206.876 102.139 205.934 102.692 202.744 110.749L202.524 111.368C200.589 116.503 198.643 121.626 196.734 126.782C195.248 131.181 192.9 135.243 189.827 138.73C188.078 140.661 186.88 143.026 186.362 145.576C185.871 147.774 185.522 150.001 185.317 152.243C185.088 153.798 185.211 155.382 185.677 156.878C186.142 158.374 186.938 159.744 188.006 160.887C188.207 161.135 188.389 161.399 188.551 161.674C189.387 162.729 189.97 163.963 190.254 165.281C190.539 166.6 190.517 167.968 190.192 169.282C189.877 170.756 189.382 172.188 189.09 173.66C187.599 181.496 189.443 188.145 196.002 193.048C202.289 197.595 207.183 203.804 210.144 210.988C210.349 211.487 210.609 211.947 210.852 212.478C212.891 212.887 214.988 212.925 217.045 212.591L217.024 212.617ZM277.205 67.5821C276.423 66.9217 275.89 66.5806 275.376 66.1906C271.205 63.0013 267.332 59.441 263.802 55.553C261.807 53.3109 259.664 51.2049 257.389 49.2486C254.776 47.0439 252.097 44.8919 249.354 42.8162C246.354 40.3801 242.986 38.4343 239.375 37.0497C233.182 34.9133 226.871 33.1987 220.823 30.6615C220.542 30.5333 220.111 30.7361 219.39 30.8232C220.74 32.0705 222.275 33.1014 223.941 33.8804C225.658 34.7552 227.232 35.8855 228.61 37.2332C231.675 40.2377 234.412 43.5612 236.774 47.1478C240.435 52.4127 244.108 57.6882 247.806 62.9851C251.039 67.1354 253.549 71.8054 255.229 76.7996C256.037 79.4983 257.83 81.7879 260.253 83.2148C267.623 87.9441 273.255 94.9401 276.309 103.162C276.698 104.057 276.953 105.006 277.067 105.977C277.199 107.339 277.529 108.673 278.047 109.937C281.125 117.701 281.371 126.319 278.743 134.284C277.603 137.428 276.885 140.708 276.607 144.036C275.702 154.605 277.351 165.22 281.413 174.984C282.707 178.034 284.229 180.994 285.74 183.966C287.876 187.807 289.601 191.866 290.885 196.076C291.046 196.409 291.27 196.709 291.544 196.958C293.26 194.925 294.795 192.979 296.445 191.151C298.095 189.324 300.051 187.493 301.813 185.738C301.703 185.253 301.72 184.876 301.559 184.631C300.704 183.327 300.147 181.849 299.926 180.302C299.705 178.754 299.825 177.175 300.279 175.674C300.742 173.563 301.146 171.446 301.586 169.337C302.045 167.007 302.118 164.62 301.8 162.272C301.326 158.553 300.454 154.9 299.199 151.373C297.822 147.409 297.01 143.268 296.789 139.07C296.533 135.944 297.088 132.8 298.399 129.941C299.565 127.509 300.757 125.098 302.108 122.78C303.46 120.461 304.819 118.671 306.14 116.696C303.492 113.177 300.944 109.743 298.33 106.362C296.951 104.59 295.439 102.9 294.021 101.225C291.845 98.8448 289.225 96.9145 286.306 95.5409C284.38 94.567 282.768 93.0711 281.653 91.2222C278.754 86.5702 276.615 81.4817 275.315 76.1473C274.831 73.0845 274.727 70.2119 277.279 67.6226L277.205 67.5821ZM291.121 44.9474L292.397 43.4352C293.578 41.949 295.089 40.7593 296.809 39.962C298.529 39.1648 300.41 38.7824 302.299 38.8458C303.802 38.8717 305.299 39.015 306.778 39.2746C311.025 39.9002 315.255 40.5979 319.448 41.2637C324.565 41.876 329.611 42.9591 334.523 44.4994C345.188 47.9329 354.886 53.8221 362.841 61.696C363.422 62.1859 363.782 63.1423 364.945 62.9928C364.942 62.3813 364.958 61.8506 364.94 61.3346C364.801 57.8885 364.662 54.4424 364.502 51.0217C364.248 45.4331 364.084 39.7895 363.67 34.262C363.457 31.8021 363.085 29.3596 362.559 26.9493C361.679 22.9298 359.59 19.2842 356.573 16.5018C354.343 14.1259 351.297 12.6814 348.039 12.4544C343.638 12.1953 339.288 11.4098 335.081 10.1144C334.25 9.89812 333.408 9.72491 332.559 9.59555C328.636 8.95001 324.804 7.85487 321.137 6.33178C318.649 5.32459 316.001 4.76176 313.313 4.66856C308.696 4.36769 304.054 4.78045 299.552 5.89256C296.742 6.61067 293.911 7.26003 291.058 7.84072C285.288 9.17799 279.402 9.93308 273.489 10.0945C272.847 10.1041 272.207 10.1842 271.58 10.3333C270.888 10.462 270.246 10.7828 269.725 11.2593C269.204 11.7358 268.827 12.3486 268.637 13.0274C268.276 14.1153 268.289 15.2902 268.673 16.365C269.566 18.9076 271.102 21.1713 273.133 22.9358C274.685 24.2459 276.25 25.5666 277.803 26.8767C283.483 31.4934 287.857 37.5163 290.497 44.3554C290.497 44.3554 290.656 44.5767 291.131 44.9347L291.121 44.9474ZM342.48 188.377C342.108 189.869 341.882 191.136 341.476 192.359C340.771 194.398 340.054 196.425 339.191 198.395C337.686 201.868 334.858 204.247 332.156 206.732C328.01 210.241 322.92 212.438 317.538 213.042C313.928 213.607 310.258 213.578 306.601 213.865C304.021 214.08 301.457 214.353 298.894 214.649C295.05 215.082 291.215 215.632 287.365 215.995C286.73 215.982 286.105 216.167 285.576 216.523C285.047 216.879 284.64 217.389 284.411 217.984C282.379 222.392 279.96 226.612 277.182 230.595C275.993 232.389 274.6 234.04 273.032 235.514C268.176 239.9 261.908 242.387 255.39 242.514L252.711 242.668L249.26 249.547C248.33 251.38 246.985 252.973 245.335 254.199C242.857 256.111 240.417 258.055 237.95 259.954C235.45 261.847 233.207 264.057 231.277 266.529C230.696 267.142 230.265 267.88 230.016 268.686C229.767 269.491 229.708 270.343 229.844 271.173C231.46 271.818 233.26 272.707 235.018 273.364C237.342 274.106 239.703 274.727 242.093 275.222C243.465 275.535 244.897 275.48 246.246 275.064C247.594 274.648 248.812 273.885 249.777 272.851C251.514 271.075 253.31 269.305 254.964 267.524C259.594 262.246 265.014 257.716 271.026 254.1C273.9 252.35 277.23 251.511 280.577 251.693C282.665 251.78 284.859 252.022 287.003 252.221C289.677 252.507 292.379 252.439 295.04 252.019C297.076 251.717 298.987 250.839 300.548 249.487C301.589 248.56 302.669 247.665 303.761 246.781C305.227 245.495 306.939 244.523 308.791 243.923C310.643 243.323 312.595 243.108 314.528 243.291C315.382 243.381 316.24 243.387 317.088 243.407C318.922 243.441 320.749 243.148 322.485 242.543C324.458 241.913 326.117 240.545 327.113 238.724C328.799 235.6 330.594 232.524 332.145 229.329C334.033 225.047 337.375 221.567 341.576 219.511C343.697 218.433 345.607 216.977 347.211 215.215C348.232 214.232 348.893 212.934 349.087 211.533C349.602 206.289 350.116 201.044 350.535 195.784C350.595 193.816 350.087 191.875 349.071 190.196C348.664 189.375 348.004 188.707 347.187 188.292C346.37 187.877 345.44 187.736 344.534 187.89C343.971 187.916 343.333 188.161 342.534 188.314L342.48 188.377ZM123.822 308.898C124.117 309.179 124.429 309.442 124.756 309.686C126.918 311.271 129.154 312.745 131.22 314.445C134.577 317.278 137.934 320.112 141.253 323.042C144.9 326.241 149.364 328.367 154.154 329.187C156.256 329.59 158.386 329.908 160.54 330.224C164.152 330.841 167.608 332.141 170.726 334.055C173.178 335.58 175.567 337.205 178.051 338.691C183.695 341.814 190.028 343.498 196.495 343.595C196.604 343.597 196.714 343.587 196.821 343.566C201.555 343.383 206.207 342.228 210.489 340.174C211.658 339.664 212.854 339.221 214.073 338.847C217.656 337.519 221.442 336.362 224.927 334.691C235.007 329.839 245.255 325.301 254.859 319.503C256.405 318.537 257.881 317.464 259.277 316.29C260.788 315.063 262.183 313.717 263.644 312.447C265.104 311.178 266.463 310.105 267.758 308.826C269.533 307.082 271.165 305.174 272.893 303.434C274.419 301.902 275.543 300.016 276.162 297.946C277.11 294.851 278.143 291.784 279.092 288.713C279.253 288.053 279.364 287.383 279.423 286.708C277.071 286.55 274.99 286.839 272.859 286.804C270.729 286.768 268.523 286.821 266.413 286.76C264.304 286.699 261.917 286.403 259.679 286.212C257.565 285.782 255.413 285.554 253.252 285.531C252.585 287.884 250.636 288.632 248.706 289.332C242.506 291.605 237.029 295.52 232.861 300.656C231.925 301.842 230.899 302.955 229.792 303.984C224.994 308.32 219.901 312.318 214.552 315.949C211.795 317.842 208.765 319.299 205.569 320.269C199.881 321.888 194.338 323.847 188.764 325.996C187.17 326.661 185.492 327.098 183.779 327.294C178.102 328.024 172.342 327.284 167.052 325.145C161.557 322.718 155.828 320.85 149.952 319.57C147.217 319.005 144.579 318.053 142.117 316.743C139.299 315.192 136.513 313.602 133.714 312.002C131.27 310.462 128.603 309.304 125.805 308.57C125.12 308.383 124.485 308.087 123.875 308.834L123.822 308.898ZM316.109 272.889C319.767 273.061 323.171 274.302 326.771 273.749C328.054 273.667 329.341 273.711 330.614 273.881C331.795 273.942 332.976 274.155 334.147 274.099C336.838 274.051 339.524 274.303 342.155 274.852C347.461 275.723 352.87 275.817 358.213 275.131C359.602 274.988 360.97 274.682 362.289 274.219C365.644 273.112 369.016 271.933 372.338 270.711C375.794 269.479 379.002 267.63 381.805 265.254C384.904 262.581 388.027 259.93 391.035 257.159C394.42 253.833 398.26 251.007 402.439 248.768C407.556 246.063 412.395 242.859 416.886 239.202C418.286 238.194 419.535 236.991 420.593 235.629C423.829 231.257 425.501 225.927 425.337 220.507C425.263 220.016 425.141 219.535 424.973 219.069C423.28 221.972 421.013 224.502 418.312 226.502C416.847 227.79 414.98 228.525 413.037 228.578C409.7 228.654 406.401 229.344 403.304 230.612C402.297 230.996 401.267 231.311 400.218 231.554C396.374 232.505 392.583 233.664 388.861 235.025C386.447 235.947 383.933 236.58 381.373 236.908C373.674 237.657 365.944 238.161 358.284 236.331C356.19 235.868 354.059 235.592 351.915 235.504C350.309 235.345 348.685 235.607 347.205 236.266C345.725 236.924 344.439 237.955 343.474 239.259C340.828 242.373 338.341 245.62 336.022 248.985C332.576 254.212 328.72 259.157 324.491 263.775C323.312 265.173 321.943 266.411 320.635 267.679C318.946 269.211 317.444 270.939 316.162 272.825L316.109 272.889ZM322.108 209.24C322.798 209.129 323.48 208.979 324.153 208.789C328.093 206.983 331.552 204.265 334.244 200.861C336.937 197.457 338.784 193.465 339.633 189.216C340.727 183.167 340.978 177.001 340.379 170.894C339.932 167.276 339.624 163.621 339.014 160.016C337.654 152.178 335.237 144.567 331.827 137.394C330.635 134.769 329.014 132.363 327.029 130.277C324.862 128.056 322.77 125.747 320.603 123.527C319.625 122.531 318.584 121.601 317.484 120.743C314.269 118.203 311.758 118.412 309.064 121.426C308.241 122.288 307.518 123.24 306.908 124.262C305.389 126.984 303.956 129.757 302.585 132.56C301.415 135.005 300.967 137.731 301.295 140.414C301.64 144.271 302.426 148.074 303.638 151.746C306.12 158.44 306.422 165.762 304.502 172.667C304.079 174.116 303.859 175.606 303.58 177.089C303.217 178.513 303.308 180.011 303.841 181.373C304.373 182.736 305.32 183.894 306.548 184.685C307.896 185.649 309.157 186.561 310.467 187.492C315.667 191 319.509 196.183 321.359 202.189C322.18 204.417 322.455 206.813 322.162 209.177L322.108 209.24ZM86.5696 121.608C84.961 123.514 83.8456 124.836 82.741 126.144C80.7937 128.324 79.3236 130.886 78.426 133.665C77.6434 135.898 76.814 138.135 75.9032 140.239C74.1931 144.215 73.3239 148.497 73.3507 152.815C73.4117 155.303 73.4726 157.792 73.7059 160.23C74.127 163.642 74.1786 167.092 73.8597 170.52C73.5347 173.646 73.9843 176.798 75.1691 179.698C76.2226 182.393 77.2423 185.102 78.2852 187.81C80.8556 194.108 85.031 199.612 90.3972 203.776C93.0982 206.055 96.1081 207.943 98.9484 210.057C99.2676 210.34 99.6526 210.539 100.069 210.636C100.485 210.733 100.92 210.724 101.333 210.611C103.09 210.092 104.863 209.63 106.576 209.008C108.997 208.136 111.369 207.092 113.787 206.174C115.971 205.305 118.096 204.292 120.148 203.143C120.138 202.591 120.151 202.166 120.104 201.735C119.358 196.369 120.401 190.895 123.071 186.158C125.1 182.474 127.171 178.739 129.22 175.159C130.85 172.485 131.993 169.544 132.594 166.475C132.852 165.315 132.87 164.117 132.648 162.953C132.426 161.789 131.969 160.685 131.304 159.707C130.451 158.465 129.597 157.223 128.846 155.936C127.378 152.141 126.482 148.145 126.19 144.078C126.449 141.62 126.874 139.171 127.204 136.731C127.254 136.259 127.278 135.786 127.277 135.313C125.572 135.31 124.081 135.336 122.583 135.268C121.511 135.168 120.428 135.317 119.42 135.704C118.411 136.09 117.504 136.704 116.768 137.497C116.071 138.323 115.221 138.998 114.448 139.76C112.11 142.018 110.242 144.718 108.956 147.702C106.125 153.989 103.721 160.457 101.758 167.063C100.749 170.486 100.539 174.091 101.144 177.598C101.567 179.913 102.246 182.182 102.809 184.485C103.372 186.788 104.125 189.251 104.51 191.687C104.876 194.016 105.495 196.297 106.356 198.488C107.174 200.592 107.785 202.762 108.453 204.914C108.577 205.28 108.735 205.783 108.005 206.059C107.664 205.902 107.338 205.714 107.031 205.498C103.295 202.534 100.847 198.241 100.191 193.503C99.8792 191.695 99.7187 189.862 99.2818 188.101C98.4389 184.67 97.4684 181.262 96.5088 177.841C96.3805 177.321 96.1325 176.839 95.7846 176.433C95.4366 176.027 94.9981 175.709 94.5042 175.503C94.0104 175.298 93.4748 175.211 92.9398 175.249C92.4049 175.288 91.8854 175.451 91.4229 175.725C90.6271 176.185 89.7108 176.391 88.7982 176.313C87.8857 176.236 87.0209 175.879 86.3207 175.292C84.8445 174.213 83.6744 172.768 82.9236 171.098C81.5445 168.302 80.3015 165.448 78.9116 162.665C78.006 160.827 77.5252 158.807 77.5049 156.752C77.4846 154.698 77.9253 152.662 78.7943 150.794C79.8157 148.416 81.2176 146.219 82.9447 144.289C85.4927 141.036 86.9225 137.051 87.0189 132.931C86.9992 131.214 86.8795 129.501 86.6608 127.799C86.5829 125.971 86.5486 124.244 86.5696 121.608ZM207.897 212.139C206.956 210.387 206.186 208.867 205.398 207.419C202.701 202.392 198.971 197.999 194.452 194.526C193.556 193.77 192.66 193.014 191.752 192.247C191.096 191.695 190.509 191.068 190.001 190.378C186.299 184.752 184.662 178.779 186.807 172.038C187.2 170.804 187.594 169.569 187.818 168.279C188.03 167.437 188.039 166.558 187.846 165.714C187.653 164.871 187.263 164.086 186.707 163.425C186.378 162.995 186.028 162.591 185.616 162.156C184.335 160.706 183.358 159.011 182.743 157.173C182.127 155.334 181.885 153.389 182.031 151.45C181.969 145.474 184.13 139.674 188.093 135.178C189.656 133.56 190.916 131.676 191.814 129.615C193.352 125.821 194.83 122.021 196.305 118.174C196.433 117.869 196.234 117.439 196.165 117.033C191.153 119.157 187.445 122.86 183.309 125.918C182.866 126.262 182.501 126.695 182.236 127.189C180.476 130.273 178.335 133.143 177.421 136.659C177.215 137.852 176.62 138.945 175.73 139.768C174.839 140.592 173.704 141.098 172.5 141.209C171.747 141.271 171.028 141.562 170.441 142.042C169.854 142.523 169.426 143.17 169.215 143.898C168.981 144.415 168.711 144.914 168.408 145.393C165.906 150.048 162.428 152.966 156.778 152.158C155.976 152.023 155.15 152.126 154.402 152.453C153.654 152.78 153.016 153.317 152.566 153.999C150.262 156.88 148.912 160.405 148.705 164.079C148.476 168.295 149.31 172.493 151.131 176.287C153.534 181.122 156.095 186.025 158.696 190.83C160.39 194.186 162.574 197.268 165.175 199.976C170.354 204.945 176.003 209.399 182.044 213.276C182.383 213.534 182.781 213.705 183.202 213.776C183.623 213.848 184.056 213.817 184.464 213.686C186.775 213.085 189.163 212.847 191.542 212.98C196.482 212.913 201.42 212.815 206.355 212.686C206.871 212.575 207.373 212.409 207.854 212.19L207.897 212.139ZM153.621 222.296C152.232 222.125 151.419 221.961 150.592 221.916C148.221 221.86 145.892 221.291 143.768 220.247C141.661 219.209 139.603 218.038 137.557 216.877C134.38 214.882 131.355 212.656 128.505 210.217C126.877 208.843 125.043 207.687 123.256 206.527C122.592 206.067 121.807 205.812 120.997 205.793C120.187 205.775 119.388 205.994 118.698 206.423C116.895 207.382 114.979 208.115 113.105 208.927C111.231 209.739 109.698 210.404 108.02 211.163C106.342 211.923 104.487 212.533 102.462 213.37L104.111 215.872C101.777 216.077 100.376 214.46 98.3783 214.036C98.0084 214.089 97.6454 214.185 97.2962 214.319C96.4573 214.7 95.5322 214.845 94.6204 214.739C93.7086 214.632 92.8447 214.279 92.1216 213.717C91.1504 213.049 90.1686 212.395 89.2081 211.715C88.2038 210.896 86.976 210.399 85.6824 210.285C82.5754 210.047 79.4485 210.192 76.3716 210.717C71.926 211.708 73.0206 211.436 70.6417 214.28C69.8429 215.295 69.3357 216.507 69.1748 217.785C68.3207 221.947 69.0663 226.268 71.2622 229.882C72.1244 231.38 73.0622 232.832 74.0725 234.234C76.1015 237.001 78.3646 239.588 80.8371 241.966C82.4444 243.518 83.9895 245.17 85.5968 246.722C86.1365 247.15 86.714 247.529 87.3226 247.852C87.5772 247.719 87.8128 247.552 88.0229 247.355C89.593 245.007 91.7254 243.087 94.2237 241.773C96.722 240.46 99.5058 239.794 102.319 239.838C104.145 239.818 105.969 239.905 107.783 240.097C110.456 240.375 113.159 240.217 115.787 239.628C119.068 238.884 122.459 238.789 125.768 239.348C129.8 239.965 133.755 240.992 137.574 242.413C141.354 243.932 145.283 245.06 149.297 245.78C150.655 245.99 152.036 246.068 153.695 246.228C153.315 243.426 152.805 240.907 152.67 238.378C152.535 235.849 152.848 233.045 152.768 230.323C152.507 227.641 152.782 224.929 153.578 222.347L153.621 222.296ZM169.337 25.9638C170.952 25.7364 172.515 25.2201 173.951 24.4397C176.473 23.5 178.96 22.4223 181.536 21.7247C184.551 20.9181 187.694 20.3942 190.692 19.8125C196.638 18.5451 202.815 19.108 208.411 21.4273C210.037 22.0603 211.76 22.8613 213.471 23.5222C215.182 24.1831 217.222 25.121 219.124 25.8122C225.738 28.2172 232.377 30.5927 239.041 32.9385C242.086 33.9833 244.983 35.4116 247.663 37.1897C253.801 41.5172 259.506 46.4269 264.701 51.8511C269.559 56.6693 274.332 61.589 279.224 66.522C280.444 66.241 281.679 66.0262 282.922 65.8786C284.146 65.8227 285.372 65.8405 286.594 65.9317C286.712 65.5095 286.859 65.2849 286.833 65.1108C286.06 61.3141 285.977 57.4042 286.589 53.5689C286.753 51.9665 286.904 50.3536 287.019 48.7319C287.182 46.7925 286.834 44.848 286.009 43.0924C284.111 38.6303 281.251 34.6489 277.632 31.4321L272.218 26.8628C270.323 25.4555 268.62 23.8064 267.152 21.9569C266.549 21.2086 265.723 20.6723 264.794 20.424C262.57 19.6394 260.393 18.7314 258.272 17.7048C252.441 14.9601 246.757 11.9908 241.01 9.12109C237.947 7.45794 234.566 6.45346 231.085 6.17093C227.603 5.8884 224.096 6.33414 220.786 7.48004C219.266 8.02561 217.743 8.52445 216.199 9.04869C215.284 9.36457 214.382 9.69112 213.483 10.0643C209.369 11.777 204.835 12.1766 200.503 11.208C198.925 10.8766 197.298 10.6787 195.746 10.3919C192.771 9.91364 189.734 9.923 186.755 10.4195C182.247 11.3856 177.834 12.7587 173.569 14.5221C172.749 14.8161 172.015 15.3133 171.437 15.9671C170.859 16.6208 170.455 17.4097 170.263 18.2598C169.611 20.8041 169.278 23.4177 169.273 26.0401L169.337 25.9638ZM77.5267 92.9147C76.4106 93.6482 75.4019 94.2545 74.4581 94.9375C72.6572 96.3522 70.413 97.076 68.1342 96.977C65.6629 96.9372 63.1971 97.2695 60.8195 97.9626C56.8508 99.0139 53.28 101.229 50.5676 104.324C46.3882 108.738 44.7505 114.341 43.3773 120.014C43.0164 121.14 42.8957 122.328 43.0233 123.5C43.1509 124.672 43.5239 125.803 44.1178 126.818C45.8878 129.658 46.7593 132.971 46.6183 136.326C46.7069 140.634 46.3112 144.943 45.4391 149.169C44.448 153.468 43.3257 157.742 42.2626 162.024C42.0067 163.07 41.6194 164.092 41.4228 165.144C41.093 166.653 41.1227 168.216 41.5093 169.707C41.8959 171.198 42.6284 172.574 43.6477 173.723C43.9838 172.941 44.1953 172.358 44.4823 171.838C45.0969 170.588 45.8268 169.397 46.6623 168.282C47.8452 167.027 49.1223 165.864 50.4826 164.805C51.1614 164.163 52.0085 163.728 52.9234 163.552C53.8383 163.375 54.783 163.464 55.6452 163.809C56.1544 163.999 56.7728 164.521 57.5027 163.81C57.4559 162.943 57.4374 161.992 57.3597 161.035C57.1583 158.611 57.2521 156.169 57.6391 153.764C57.8583 152.103 58.4666 150.514 59.4145 149.128C60.3624 147.743 61.623 146.599 63.0931 145.79C65.24 144.578 67.4248 143.397 69.6386 142.285C70.0799 142.095 70.4785 141.817 70.81 141.468C71.1414 141.119 71.3989 140.707 71.5667 140.256C72.5543 137.652 73.7361 135.125 74.6246 132.459C75.6111 129.598 77.1505 126.956 79.1543 124.684C81.8935 121.643 84.4415 118.419 87.1933 115.389C88.765 113.573 90.0201 111.505 90.9055 109.274C90.3608 108.358 89.816 107.441 89.2606 106.538C87.7648 104.44 85.919 102.617 83.8032 101.148C81.5793 99.4524 79.7959 97.2463 78.6016 94.7137C78.2673 94.1071 77.8938 93.5233 77.4837 92.9656L77.5267 92.9147ZM236.92 92.6575C235.695 91.9067 235.095 91.4656 234.457 91.1454C232.174 89.9585 229.899 88.8651 227.578 87.6463C225.384 86.523 223.066 85.6614 220.668 85.079C218.172 84.452 215.704 83.7402 213.185 83.1152C209.964 82.2462 206.79 81.2437 203.55 80.5764C198.505 79.5388 193.404 78.5412 188.33 77.8708C183.255 77.2004 178.483 77.0679 173.56 76.8077C171.562 76.6747 169.56 77.0625 167.75 77.9332C165.94 78.8039 164.382 80.1279 163.23 81.7761C162.534 82.5956 162.137 83.6266 162.104 84.6985C162.075 86.5242 161.835 88.345 161.775 90.2088C161.715 92.0727 161.662 93.4419 161.663 95.0533C161.66 95.9105 161.847 96.7566 162.21 97.5301C162.574 98.3036 163.106 98.9853 163.766 99.5261C167.662 102.788 170.291 107.315 171.201 112.328C171.41 113.607 171.923 114.814 172.699 115.847C173.475 116.881 174.489 117.71 175.657 118.264C177.204 119.19 178.941 119.756 180.741 119.922C180.929 119.956 181.104 120.039 181.25 120.163C181.396 120.286 181.508 120.445 181.574 120.625C181.551 120.826 181.481 121.021 181.371 121.192C181.26 121.363 181.112 121.506 180.937 121.61C180.275 121.91 179.552 122.046 178.829 122.007C177.362 121.719 175.921 121.311 174.521 120.787C173.442 120.377 172.44 119.771 171.166 119.13C169.83 123.094 168.886 126.953 167.962 130.787C167.019 134.571 166.49 138.444 166.384 142.336C168.592 139.26 168.59 139.237 172.436 138.11C172.911 138.008 173.35 137.78 173.708 137.451C174.066 137.121 174.33 136.701 174.471 136.236C175.477 133.277 176.782 130.427 178.365 127.73C179.065 126.282 179.956 124.933 181.014 123.721C183.512 121.042 186.176 118.525 188.79 115.966C189.033 115.752 189.293 115.556 189.565 115.38C190.356 114.72 191.293 114.26 192.296 114.038C193.299 113.817 194.339 113.841 195.328 114.108C196.047 114.28 196.767 114.451 197.619 114.67C198.07 113.701 198.483 112.853 198.835 111.976C199.61 110.084 200.298 108.141 201.135 106.28C202.401 103.05 204.57 100.248 207.381 98.2125C208.909 97.1957 210.411 96.1577 211.956 95.1982C214.17 93.8312 216.691 93.0467 219.283 92.9178C223.586 92.4546 227.924 92.4669 232.218 92.9544C233.765 93.254 235.364 93.1695 236.877 92.7084L236.92 92.6575ZM344.02 172.444C344.21 172.043 344.377 171.632 344.519 171.212C345.296 168.191 345.734 165.094 345.827 161.98C345.864 158.095 345.901 154.21 346.082 150.36C346.25 144.114 345.767 137.873 344.64 131.736C343.807 126.739 342.017 121.957 339.37 117.65C337.842 115.185 336.292 112.745 334.851 110.202C332.291 105.852 329.144 101.878 325.498 98.3928C322.618 95.5057 319.794 92.5786 316.947 89.6535C314.03 86.4994 310.716 83.7392 307.086 81.4412C301.694 78.1522 296.239 74.9626 290.76 71.7753C289.284 70.9227 287.75 70.1735 286.169 69.533C285.155 69.1572 284.064 69.0331 282.988 69.1709C281.912 69.3087 280.884 69.7043 279.991 70.3244C279.602 70.5213 279.279 70.8287 279.063 71.2077C278.847 71.5868 278.747 72.0209 278.777 72.4549C278.865 73.8433 279.06 75.222 279.359 76.5794C280.464 80.4028 281.943 84.1058 283.772 87.6358C284.844 90.0066 286.707 91.9257 289.044 93.0647C293.156 95.1933 296.752 98.1911 299.586 101.852C302.049 104.823 304.269 107.98 306.655 111.016C307.562 112.195 308.479 113.361 309.397 114.527C310.21 114.408 310.853 114.363 311.465 114.227C312.834 113.898 314.261 113.914 315.617 114.273C316.974 114.631 318.218 115.322 319.238 116.283C319.987 116.892 320.702 117.54 321.383 118.223C323.902 120.871 326.42 123.496 328.851 126.223C331.547 129.261 333.74 132.713 335.348 136.449C337.153 140.698 338.644 145.076 339.809 149.548C341.478 156.214 342.627 163.003 343.245 169.854C343.304 170.731 343.109 171.654 343.977 172.495L344.02 172.444ZM165.476 28.08C162.746 27.1679 160.35 26.4732 157.899 25.5364C155.686 24.7056 153.324 24.3411 150.958 24.4657C149.144 24.5667 147.323 24.7274 145.489 24.7244C141.844 24.7162 138.119 25.0323 134.868 22.9191C134.251 22.5833 133.57 22.3829 132.868 22.3311C132.167 22.2794 131.462 22.3777 130.799 22.6191C129.466 23.0372 128.113 23.3839 126.745 23.6582C126.106 23.7491 125.492 23.973 124.943 24.3151C124.394 24.6573 123.921 25.1103 123.556 25.645C122.361 27.2912 121.069 28.8989 119.775 30.4832C117.637 33.332 115.102 35.861 112.25 37.9925C110.557 39.1637 109.174 40.7315 108.224 42.5582C107.598 43.6838 107.035 44.8626 106.323 45.937C103.453 50.2599 100.499 54.5548 95.5806 56.8231C89.146 59.8132 83.1424 68.694 82.4905 75.4328C82.1253 79.4762 81.6704 83.5744 81.42 87.5842C81.2859 89.4192 81.5573 91.2584 82.2146 92.9713C82.8718 94.6842 83.8988 96.2286 85.2228 97.4945C88.3068 100.321 90.7809 103.748 92.4951 107.57C92.4951 107.57 92.6592 107.708 92.7349 107.772C95.7129 106.804 98.6802 105.849 101.581 104.793C104.867 103.673 108.405 103.554 111.745 104.451C112.754 104.715 113.788 104.847 115.127 105.129C114.849 104.307 114.825 103.721 114.466 103.352C113.282 102.118 112.033 100.948 110.725 99.847C109.463 98.7819 107.994 97.7823 106.585 96.7889C104.293 95.1666 102.594 92.8393 101.744 90.1574C99.8366 84.6646 99.133 78.8177 99.6814 73.0124C99.8467 70.7431 100.652 68.5631 102.004 66.7263C103.968 64.0144 105.362 60.9338 106.101 57.6726C106.627 55.5908 107.348 53.5618 108.254 51.613C108.996 49.7522 110.183 48.0992 111.709 46.7997C113.235 45.5002 115.054 44.5942 117.006 44.1607C119.641 43.5992 122.139 42.5085 124.743 41.8556C127.997 41.0444 131 39.4243 133.472 37.146C134.93 35.7733 136.675 34.7433 138.579 34.1318C140.482 33.5204 142.496 33.3431 144.471 33.6128L146.451 33.8262C148.043 34.0105 149.659 33.8443 151.185 33.3389C152.731 32.7674 154.409 32.6687 156.005 33.0553C156.832 33.253 157.679 33.4016 158.5 33.6587C159.202 33.916 159.89 34.213 160.558 34.5479L165.476 28.08ZM115.364 99.9326C115.675 99.7169 115.812 99.6578 115.829 99.5856C115.968 99.1742 116.071 98.7519 116.138 98.3233C116.817 93.8537 118.207 89.5174 120.256 85.48C121.846 82.1874 123.046 78.7175 124.368 75.3074C125.024 73.6851 125.478 72.0451 126.064 70.429C127.109 67.2363 128.842 64.3086 131.14 61.8537C133.397 59.5375 135.68 57.2426 138.078 55.0669C139.119 54.1272 140.315 53.3769 141.612 52.85C144.476 51.5862 147.504 50.7408 150.602 50.3404C154.594 49.6865 158.524 48.6949 162.353 47.376C161.74 46.2154 161.188 45.0233 160.699 43.8047C160.247 42.4904 159.947 41.1276 159.805 39.7428C159.774 38.5235 159.836 37.3029 159.99 36.0917C158.044 36.0162 156.251 35.939 154.451 35.9212C153.81 35.893 153.168 35.9772 152.555 36.1704C150.211 37.0086 147.689 37.2025 145.253 36.7315C143.452 36.3772 141.59 36.4573 139.82 36.965C138.05 37.4727 136.424 38.3935 135.074 39.6516C134.945 39.8041 134.703 39.8605 134.539 40.0044C131.389 42.6465 127.706 44.5728 123.746 45.6487C121.383 46.3744 119.055 47.2384 116.723 48.0555C115.082 48.6356 113.69 49.7691 112.787 51.2608C111.183 53.704 110.025 56.4111 109.368 59.2549C108.646 62.8599 107.06 66.2412 104.749 69.1077C103.565 70.5215 102.848 72.2659 102.697 74.0993C102.182 79.3674 102.782 84.6774 104.456 89.6832C105.085 91.7579 106.375 93.5654 108.131 94.8294C110.515 96.5367 112.85 98.2246 115.283 99.9512L115.364 99.9326ZM154.542 220.745L156.281 219.58C158.123 218.244 160.246 217.353 162.484 216.976C164.722 216.599 167.013 216.747 169.177 217.409C169.683 217.552 170.218 217.635 170.737 217.789C172.308 218.23 173.968 218.261 175.56 217.88C177.152 217.499 178.624 216.718 179.835 215.611C179.556 215.252 179.23 214.933 178.865 214.661C174.379 212.141 170.13 209.224 166.166 205.946C161.759 202.677 158.156 198.446 155.626 193.571C154.259 190.915 152.957 188.207 151.643 185.488C150.917 183.812 149.833 182.317 148.466 181.11C147.753 180.47 147.108 179.758 146.542 178.985C144.037 175.794 141.878 172.345 140.099 168.696C139.523 167.204 138.686 165.828 137.629 164.632C137.461 165.599 137.309 166.189 137.263 166.781C136.976 170.333 135.794 173.76 133.828 176.741C132.289 179.077 130.826 181.476 129.387 183.873C127.947 186.27 126.812 188.358 125.512 190.59C123.225 194.613 122.283 199.256 122.826 203.836C125.564 205.712 128.314 207.575 131.031 209.477C134.012 211.579 136.874 213.82 139.938 215.797C142.849 217.823 146.153 219.218 149.641 219.895C151.125 220.081 152.7 220.366 154.542 220.745ZM95.7731 174.718C95.9439 174.268 96.0753 173.804 96.1659 173.331C96.4371 170.224 97.0556 167.155 98.0095 164.182C99.7246 157.796 102.705 151.934 105.259 145.887C107.209 141.245 110.841 137.761 114.354 134.263C115.099 133.644 115.901 133.097 116.749 132.629C117.274 132.289 117.813 131.983 118.263 131.731C117.78 127.075 118.061 122.365 119.095 117.789C119.34 116.321 119.452 114.805 119.64 113.354L117.307 110.254C115.009 109.733 112.743 109.084 110.519 108.311C107.921 107.222 105.019 107.082 102.316 107.916C100.423 108.495 98.6441 109.169 96.7778 109.639C95.7201 109.863 94.7419 110.372 93.9499 111.112C93.158 111.851 92.5828 112.793 92.2867 113.834C91.851 115.273 91.32 116.696 90.9795 118.149C90.0751 121.821 89.8852 125.628 90.4204 129.361C90.9067 132.768 90.7215 136.24 89.8752 139.584C89.2558 142.544 87.8839 145.299 85.8926 147.581C84.6547 148.931 83.6405 150.47 82.8888 152.139C81.5542 155.103 80.6355 158.266 81.9087 161.495C83.1819 164.723 84.6468 167.853 86.1523 171.19C86.5944 172.042 87.1529 172.828 87.8115 173.526C88.0681 173.881 88.4411 174.135 88.8662 174.244C89.2914 174.352 89.7419 174.309 90.1404 174.121C91.0196 173.64 92.0214 173.435 93.0149 173.532C94.0085 173.629 94.9476 174.024 95.71 174.665L95.7731 174.718ZM376.685 274.01C376.868 274.367 377.142 274.668 377.48 274.884C377.817 275.1 378.206 275.223 378.607 275.24C380.879 275.852 383.198 276.329 385.452 277.013C387.734 277.606 389.958 278.398 392.099 279.38C398.011 282.659 403.428 286.755 408.193 291.548C408.581 291.955 408.935 292.392 409.252 292.855C411.648 296.027 414.473 298.85 417.645 301.243C421.889 304.33 425.722 307.945 429.052 312.001C429.996 313.187 431.233 314.103 432.642 314.661C434.237 315.332 435.077 315.106 435.964 313.722C438.403 309.884 439.432 305.77 437.542 301.455C436.847 299.888 436.063 298.363 435.196 296.886C432.199 291.68 429.191 286.487 426.127 281.334C425.303 279.96 424.383 278.645 423.374 277.401C420.792 274.524 417.953 271.888 414.893 269.526C412.183 267.259 409.232 265.294 406.094 263.667C404.217 262.614 402.115 262.025 399.959 261.949C398.886 261.952 397.815 261.878 396.755 261.725C395.705 261.494 394.672 261.196 393.661 260.833C392.26 262.11 390.94 263.367 389.579 264.569C388.219 265.771 386.991 266.867 385.656 267.938C384.32 269.008 382.744 270.159 381.269 271.241C379.669 272.056 378.118 272.962 376.622 273.956L376.685 274.01ZM128.623 97.4586C129.053 97.1763 129.468 96.8727 129.867 96.5491C132.889 93.6293 136.374 91.2312 140.177 89.4534C142.421 88.4322 144.722 87.5237 146.99 86.5004C149.651 85.2525 152.658 84.9793 155.486 85.7285C156.193 85.8898 156.901 86.0745 157.847 86.2852C157.982 85.05 158.037 83.9863 158.235 82.9572C158.342 81.9999 158.617 81.068 159.046 80.204C160.299 78.0522 162.024 76.2108 164.088 74.8203C166.153 73.4298 168.504 72.5265 170.962 72.1786C172.577 71.9668 174.206 71.8862 175.833 71.9377C179.371 72.0729 182.902 72.2676 186.447 72.4963C187.947 72.5629 189.441 72.7259 190.919 72.9845C196.518 74.0322 202.074 75.1307 207.64 76.2165C208.129 76.3028 208.623 76.3065 209.356 76.3596C208.917 75.4226 208.231 74.6249 207.37 74.0525C204.423 71.3551 202.466 67.7436 201.811 63.7909C201.776 63.0515 201.584 62.3292 201.249 61.6714C200.914 61.0136 200.443 60.4351 199.867 59.9745C198.341 58.7747 197.222 57.1324 196.663 55.2693C196.505 54.7657 196.312 54.277 196.161 53.8668C194.169 53.9482 192.352 54.0022 190.552 54.1372C189.818 54.1623 189.089 54.2779 188.382 54.4813C185.501 55.3812 182.532 55.9623 179.529 56.2141C177.391 56.4247 175.302 57.0029 173.355 57.9228C171.393 58.8132 169.401 59.6121 167.398 60.4238C165.02 61.3979 162.598 62.2698 160.253 63.3587C158.411 64.2396 156.486 64.9336 154.508 65.4295C153.251 65.6682 152.043 66.1208 150.937 66.7675C147.78 68.8689 144.826 71.1405 143.726 75.1074C143.369 76.2455 142.789 77.3021 142.019 78.2145C141.249 79.1268 140.305 79.8764 139.243 80.4192C138.501 80.8375 137.741 81.3281 136.994 81.6763C135.245 82.5385 133.795 83.9087 132.834 85.6069C130.964 88.7538 129.553 92.1503 128.645 95.6922C128.401 96.1607 128.528 96.573 128.56 97.4054L128.623 97.4586ZM227.332 277.887C226.684 278.725 226.084 279.598 225.535 280.504C223.392 284.374 221.209 288.19 219.227 292.152C217.975 294.663 216.172 296.862 213.953 298.581C210.891 300.95 207.697 303.144 204.388 305.152C197.187 309.581 189.037 312.211 180.629 312.821L170.975 313.377C167.537 313.62 164.086 313.515 160.675 313.062C154.42 312.027 148.265 310.472 142.275 308.413C141.352 308.143 140.47 307.75 139.652 307.244C136.738 305.372 133.712 306.191 130.292 306.634C130.682 307.024 131.104 307.38 131.554 307.699C133.347 308.647 135.214 309.482 136.966 310.504C142.04 313.516 147.571 315.686 153.347 316.93C157.846 317.946 162.235 319.39 166.453 321.245C168.111 322 169.809 322.663 171.54 323.232C177.142 324.891 182.748 325.162 188.199 322.517C192.939 320.2 197.866 318.294 202.926 316.82C206.55 315.751 209.94 313.995 212.91 311.647C217.212 308.257 221.499 304.832 225.772 301.374C227.117 300.297 228.393 299.135 229.592 297.897C234.404 292.777 240.276 288.774 246.791 286.171C247.328 285.92 247.847 285.63 248.343 285.305C248.035 285.071 247.7 284.876 247.344 284.723C243.754 283.855 240.208 283.038 236.705 282.273C233.626 281.701 230.749 280.351 228.346 278.351C228.032 278.148 227.691 277.992 227.332 277.887ZM271.949 102.311C271.88 101.942 271.791 101.577 271.684 101.217C271.367 100.645 271.052 100.096 270.714 99.5494C267.378 94.1442 262.873 89.5617 257.528 86.1368C254.499 84.2583 252.2 81.4058 251.004 78.0422C249.645 74.2998 247.69 70.8058 245.214 67.6951C244.756 67.1121 244.339 66.4784 243.902 65.87C240.036 60.7416 236.483 55.3823 233.264 49.8215C232.501 48.4016 231.617 47.0508 230.621 45.7844C227.94 41.9016 224.402 38.6921 220.278 36.4029C215.318 34.026 210.988 30.521 207.631 26.1658C206.909 25.2356 205.901 24.5687 204.761 24.266C198.445 22.1994 192.257 23.1564 186.098 25.0517C186.044 25.1153 185.958 25.2171 185.744 25.4712C186.257 25.7987 186.795 26.0856 187.353 26.3293C190.746 27.4302 194.118 28.5561 197.485 29.4828C203.387 31.1147 208.997 33.6475 214.118 36.9925C216.901 38.6321 219.306 40.8396 221.178 43.4726C223.05 46.1055 224.348 49.1056 224.988 52.2796C225.232 53.552 225.568 54.793 225.813 56.0654C226.288 58.3803 227.087 60.6144 228.186 62.7023C229.979 66.1259 232.241 69.2798 234.907 72.0733C238.944 76.5041 242.616 81.255 245.889 86.28C247.691 88.9488 249.032 91.9042 249.855 95.0234C250.586 97.47 251.161 99.9612 251.578 102.482C251.721 103.546 251.987 104.588 252.371 105.589C252.878 107.239 253.774 108.742 254.984 109.969C255.791 109.182 256.427 108.237 256.851 107.193C257.946 104.885 259.842 103.05 262.184 102.033C264.526 101.017 267.152 100.889 269.57 101.674C270.097 101.945 270.802 102.082 271.868 102.33L271.949 102.311ZM180.56 26.057C177.303 27.3556 173.817 28.7216 170.361 30.1788C168.976 30.7183 167.718 31.54 166.664 32.5917C165.611 33.6433 164.787 34.9018 164.245 36.2867C163.702 37.6715 163.454 39.1523 163.514 40.6347C163.575 42.1171 163.943 43.5685 164.597 44.8963C165.323 46.5148 166.601 47.8182 168.205 48.5734C169.808 49.3286 171.632 49.4864 173.349 49.0187C174.594 48.7035 175.865 48.5087 177.146 48.4371C178.435 48.4067 179.707 48.1186 180.886 47.5899C182.758 46.7218 184.851 46.4634 186.869 46.8512C189.731 47.3519 192.554 47.95 195.384 48.4888C196.112 48.6246 196.916 48.9773 197.559 48.7795C200.387 47.9893 202.651 49.0953 204.859 50.3712C208.659 52.5771 212.365 54.9212 216.143 57.1526C218.334 58.6569 220.659 59.956 223.089 61.0339C223.183 60.7433 223.353 60.5168 223.316 60.3553C222.697 57.6573 222.078 54.9593 221.485 52.2826C220.871 49.6587 219.74 47.1872 218.158 45.0121C216.577 42.8369 214.576 41.0018 212.274 39.6137C207.763 36.7283 202.895 34.441 197.79 32.8086C194.52 31.7675 191.269 30.6776 188.078 29.4648C185.647 28.4792 183.345 27.341 180.504 26.0973L180.56 26.057ZM80.1043 206.883C77.5768 203.988 75.5629 201.484 73.3434 199.197C70.6316 196.454 68.5099 193.183 67.1078 189.583C65.7691 186.303 64.8614 182.86 64.4069 179.34C64.2047 177.247 63.4816 175.241 62.3036 173.506C61.1257 171.771 59.5304 170.361 57.6633 169.407C53.5699 167.062 53.9729 167.25 50.6135 169.746C49.0924 170.785 48.0356 172.377 47.6702 174.181C47.3046 176.048 46.9641 177.937 46.4262 179.854C45.6775 183.656 44.3972 187.337 42.6234 190.788C42.3679 191.265 42.2221 191.793 42.1968 192.333C42.1715 192.872 42.2671 193.41 42.4769 193.906C43.2837 196.458 44.0905 199.01 44.9888 201.531C45.3326 202.434 45.7692 203.298 46.2916 204.109C46.7991 205.26 47.738 206.164 48.9071 206.626C50.0763 207.088 51.3829 207.072 52.5469 206.581C53.5804 206.279 54.5683 205.851 55.5999 205.524C56.7818 205.133 58.0291 204.986 59.2664 205.091C60.5036 205.196 61.7049 205.552 62.7974 206.137C64.054 206.939 65.231 207.86 66.3124 208.886C67.0318 209.493 67.6849 210.153 68.5235 210.926C70.5415 208.125 73.3999 207.708 76.3306 207.462C77.2714 207.32 78.3609 207.13 80.0235 206.901L80.1043 206.883ZM146.874 146.302C146.377 146.122 146.129 146.109 145.989 145.968C142.958 143.106 143.346 143.978 139.968 144.499L139.655 144.562C138.236 144.887 137.889 145.247 137.714 146.709C137.455 148.852 137.603 151.022 138.151 153.105C138.798 155.718 139.49 158.304 140.25 160.86C141.236 163.661 142.68 166.277 144.523 168.6C144.797 165.459 144.891 162.71 145.305 159.991C145.719 157.273 147.625 154.682 149.014 152.242C148.88 151.76 148.764 151.335 148.626 150.935C148.189 149.699 148.13 148.359 148.455 147.085C148.781 145.81 149.477 144.658 150.454 143.775C151.295 142.943 152.181 142.158 153.108 141.424C153.812 140.925 154.371 140.246 154.727 139.46C155.083 138.674 155.222 137.808 155.132 136.952C154.896 135.107 155.394 133.238 156.519 131.748C157.466 130.585 158.488 129.485 159.579 128.456C161.169 127.077 163.113 126.176 165.187 125.856L169.765 118.101C169.043 116.012 168.221 114.143 167.733 112.187C166.282 106.48 162.351 102.662 158.111 98.8012C157.704 99.2254 157.324 99.6754 156.974 100.148C155.475 102.386 153.925 104.581 152.538 106.891C151.926 108.04 151.007 108.998 149.886 109.658C148.764 110.317 147.483 110.653 146.187 110.627C145.331 110.641 144.476 110.603 143.626 110.511C142.821 110.4 142 110.549 141.283 110.939C140.565 111.328 139.99 111.936 139.64 112.674C138.103 115.04 137.316 117.812 137.382 120.625C137.5 122.661 137.772 124.695 138.007 126.721C138.298 128.314 138.483 129.924 138.563 131.542C138.457 133.321 138.24 135.093 137.912 136.846C138.845 137.917 139.463 139.591 141.484 140.296L141.862 137.286C142.998 128.258 146.298 120.251 153.06 113.903C155.577 111.34 158.876 109.695 162.426 109.231C162.94 109.186 163.509 109.1 163.707 109.942C161.284 113.345 158.484 116.465 155.363 119.24C154.637 119.883 153.951 120.568 153.307 121.292C149.378 125.773 146.688 131.203 145.51 137.035C144.975 139.129 144.579 141.211 146.251 143.122C146.662 143.531 146.936 144.058 147.033 144.631C147.13 145.205 147.046 145.795 146.793 146.321L146.874 146.302ZM39.9172 127.929C39.7019 126.725 39.4998 125.684 39.3192 124.618C38.835 122.084 38.8348 119.477 39.3185 116.937C39.5839 115.572 39.8959 114.204 40.1253 112.831C40.9777 108.145 43.0851 103.772 46.222 100.178C48.9636 96.7981 52.6707 94.3361 56.8413 93.1255C60.1438 92.1204 63.5805 91.6431 67.0246 91.7108C70.4757 91.6851 73.8877 90.9315 77.0378 89.4993C76.8322 86.3884 76.814 83.4141 76.397 80.4513C71.1855 81.7103 71.1501 81.8546 67.3939 81.0563C62.7135 80.1147 57.8394 80.9119 53.6805 83.2995C49.5872 85.5893 45.6446 88.2893 41.6277 90.7959C39.4393 92.2212 37.8091 94.361 37.0169 96.8484C35.5203 101.003 34.0529 105.226 32.6711 109.347C32.3194 110.359 32.0382 111.394 31.8293 112.444C30.7805 117.618 30.2351 122.878 30.2009 128.15C30.1642 130.955 30.6615 133.738 31.6662 136.349C31.7112 136.651 31.8641 136.924 32.0962 137.12C32.3282 137.316 32.6238 137.421 32.9283 137.414C34.0292 133.513 36.5151 130.139 39.9172 127.929ZM136.17 133.635C136.626 132.081 136.49 130.416 135.79 128.964C135.403 127.963 134.891 127.008 134.538 125.992C133.663 123.846 133.26 121.534 133.355 119.212C133.451 116.891 134.043 114.613 135.091 112.533C137.192 108.584 139.977 105.669 145.069 106.702C146.013 106.937 147.012 106.819 147.88 106.37C148.748 105.921 149.425 105.172 149.785 104.263C151.638 100.475 154.209 97.0793 157.355 94.2684C157.54 92.8066 157.522 91.3278 157.304 89.8735C156.336 89.9888 155.361 90.0314 154.387 90.0011C151.159 89.7375 147.913 90.3196 144.966 91.6899C141.504 92.8908 138.266 94.6673 135.389 96.9448C132.426 99.7775 129.726 102.874 127.323 106.196C127.019 106.641 126.793 107.134 126.654 107.654C124.875 112.681 122.743 117.409 121.544 122.62C120.957 124.801 120.645 127.046 120.617 129.301C120.607 129.901 120.689 130.906 120.917 130.968C122.035 131.42 123.26 131.549 124.452 131.34C125.644 131.131 126.757 130.593 127.663 129.786C128.233 129.267 128.971 128.973 129.739 128.959C130.506 128.946 131.25 129.214 131.831 129.712C132.611 130.269 133.362 130.867 134.08 131.502C134.622 132.243 135.211 132.826 136.116 133.699L136.17 133.635ZM304.131 187.498C302.294 192.235 301.291 193.935 298.407 196.636C296.289 198.634 294.158 200.622 292.115 202.684C291.452 203.37 290.909 204.161 290.506 205.025C289.403 207.358 288.362 209.743 287.366 212.101C287.229 212.442 287.323 212.869 287.298 213.436C289.928 213.459 292.556 213.203 295.137 212.675C299.787 211.793 304.496 211.264 309.221 211.093C311.47 210.989 313.705 210.721 315.961 210.558C316.606 210.514 317.225 210.284 317.743 209.893C318.261 209.503 318.654 208.97 318.874 208.36C319.468 207.195 319.583 205.846 319.193 204.603C318.38 202.167 317.417 199.785 316.309 197.47C314.431 194.036 308.101 189.042 304.077 187.561L304.131 187.498ZM200.009 53.3278C199.905 54.0092 199.948 54.704 200.136 55.3653C200.323 56.0266 200.651 56.6388 201.096 57.1607C201.733 58.0248 202.427 58.844 203.176 59.6124C204.093 60.5206 204.723 61.6797 204.987 62.9465C206.024 67.2759 208.732 71.0075 212.519 73.3282C214.123 74.3985 215.789 75.3692 217.403 76.4269C218.187 76.7789 218.884 77.2997 219.443 77.9527C220.054 78.889 220.849 79.6902 221.78 80.3077C222.711 80.9253 223.759 81.3462 224.861 81.5454C225.471 81.7446 226.057 82.0125 226.607 82.3443C232.031 85.3404 237.463 88.3438 242.903 91.3541C243.537 91.6253 244.188 91.8549 244.852 92.0413C244.561 90.5827 243.931 89.2154 243.011 88.0509C240.259 83.8338 237.218 79.8138 233.911 76.0193C231.722 73.1349 229.055 70.6491 226.025 68.6684C222.587 66.7245 219.458 64.236 216.154 62.0569C213.383 60.2189 210.548 58.457 207.68 56.7335C206.346 55.9335 205.219 54.6566 203.276 55.1924C202.895 55.2848 202.358 54.7439 201.889 54.4793C201.421 54.2147 200.818 53.8797 199.955 53.3911L200.009 53.3278ZM339.653 279.072C338.574 278.463 337.326 278.218 336.093 278.374L323.869 278.11C323.439 278.084 323.011 278.036 322.587 277.964C320.242 277.747 317.898 277.554 315.551 277.314C314.37 277.253 313.197 277.092 312.044 276.834C311.531 276.693 310.992 276.672 310.468 276.773C309.944 276.874 309.449 277.095 309.023 277.418C308.564 277.706 308.106 277.993 307.685 278.313C303.094 281.965 297.562 284.229 291.744 284.834C291.301 284.873 290.896 285.25 290.142 285.657C291.682 286.957 292.896 288.156 294.14 289.293C296.833 291.63 300.178 293.087 303.731 293.47C305.971 293.804 308.263 293.529 310.368 292.674C312.86 291.666 315.424 290.805 317.919 289.821C319.423 289.234 320.899 288.586 322.346 287.878C327.478 285.356 332.56 282.791 337.666 280.223C338.187 279.989 338.712 279.649 339.599 279.136L339.653 279.072ZM86.6485 249.829C86.4111 249.621 86.1519 249.438 85.8755 249.285C83.9687 248.336 82.1323 247.252 80.3803 246.041C76.8973 243.52 72.9069 241.785 68.6814 240.955C67.3896 240.81 66.127 240.477 64.9333 239.967C60.635 238.01 56.7106 235.323 53.3319 232.026C50.6725 229.39 47.8183 226.96 45.0284 224.453C44.704 224.176 44.3533 223.931 43.9814 223.722C43.587 223.498 42.7333 223.844 42.6779 224.319C42.5119 225.044 42.5207 225.798 42.7035 226.516C43.4099 228.07 44.2862 229.539 45.3164 230.897C46.6029 232.473 48.0234 233.934 49.5622 235.264C52.9202 238.238 55.8426 241.67 58.2437 245.462C58.6786 246.199 59.35 246.765 60.1494 247.07C64.3401 248.975 68.6736 250.552 73.1114 251.786C76.6931 252.555 80.0463 254.135 82.9148 256.404C83.9487 257.172 85.0266 257.878 86.1431 258.519C86.4334 258.764 86.8249 259.094 87.3365 258.591L86.6485 249.829ZM69.4641 146.794C68.1285 147.638 66.7517 148.415 65.3387 149.121C64.1372 149.616 63.0919 150.43 62.3166 151.476C61.5412 152.521 61.0654 153.757 60.9411 155.049C60.4747 157.702 60.1755 160.386 59.7557 163.035C59.5719 163.88 59.6548 164.759 59.993 165.552C60.3311 166.344 60.9078 167.01 61.6431 167.456C63.4352 168.736 64.9482 170.367 66.0911 172.252C67.234 174.136 67.9833 176.234 68.2941 178.421C68.9029 181.476 69.6738 184.494 70.6036 187.464C71.3577 190.055 72.6587 192.452 74.4191 194.491C78.0999 198.531 81.479 202.837 84.5293 207.375C87.037 207.431 89.4494 208.319 91.3883 209.9C92.2662 210.47 93.1872 210.971 94.1433 211.398C93.8553 210.806 93.4172 210.301 92.8724 209.933C91.9013 209.266 90.8891 208.673 89.9179 208.006C86.7488 205.615 83.8504 202.884 81.2741 199.863C78.5156 196.859 76.3319 193.372 74.8308 189.573C73.7432 186.893 72.8026 184.141 71.7257 181.448C70.2538 177.856 69.6982 173.948 70.1086 170.075C70.4302 166.964 70.369 163.829 69.9265 160.739C69.4473 156.894 69.3247 153.01 69.5604 149.138C69.513 148.554 69.4207 147.997 69.4104 146.857L69.4641 146.794ZM41.5601 203.75C41.4175 204.5 41.3532 205.263 41.3685 206.025C41.8448 208.995 42.2277 211.972 42.9804 214.87C43.5419 217.014 44.7948 218.908 46.5451 220.259C48.2954 221.611 50.4457 222.344 52.6632 222.345C53.4139 222.37 54.1657 222.335 54.9118 222.241C57.8089 221.874 60.7407 222.449 63.2743 223.881C63.7172 224.124 64.1198 224.594 64.6889 224.074C64.8399 222.025 64.8529 220.013 65.18 217.961C65.5071 215.909 65.9913 214.055 66.4264 212.028C65.0784 211.065 63.7413 210.089 62.4729 209.236C61.6324 208.639 60.6509 208.269 59.623 208.164C58.5951 208.059 57.5554 208.222 56.6048 208.636C55.7045 208.985 54.8763 209.352 53.9224 209.766C52.1711 210.505 50.2233 210.622 48.4047 210.097C46.5861 209.572 45.0068 208.437 43.9305 206.882C43.2117 205.992 42.4316 205.073 41.4957 203.826L41.5601 203.75ZM38.2296 165.779C38.8227 162.515 39.3724 160.02 39.825 157.486C40.4806 153.688 41.2869 149.864 41.7033 146.017C42.1197 142.169 42.1102 138.288 42.2194 134.42C42.2451 133.724 42.317 132.87 41.291 132.396C39.6007 134.046 38.4593 136.177 38.0242 138.495C37.0416 143.671 36.167 148.873 35.4002 154.1C35.0536 157.44 35.5782 160.806 36.9226 163.87C37.2684 164.573 37.6847 165.238 38.1651 165.855L38.2296 165.779ZM53.1131 225.858C53.1327 226.244 53.0621 226.533 53.1775 226.652C55.1659 228.887 57.2886 230.998 59.5337 232.974C63.0648 235.803 67.2687 237.673 71.7426 238.403C72.0517 238.446 72.3954 238.193 72.8187 238.05C71.7926 236.705 70.8031 235.521 69.9391 234.292C69.1726 232.886 68.2774 231.555 67.265 230.316C66.015 229.325 64.6566 228.478 63.2156 227.791C63.0515 227.653 62.8874 227.514 62.7233 227.376C59.7649 225.802 56.3509 225.293 53.0487 225.934L53.1131 225.858ZM138.072 140.549C137.87 140.013 137.555 139.527 137.146 139.127C136.738 138.726 136.248 138.42 135.708 138.228C135.473 138.127 135.265 137.973 135.1 137.777C134.935 137.581 134.818 137.35 134.758 137.1C134.013 135.44 132.856 134 131.397 132.915C131.132 132.731 130.843 132.582 130.538 132.473C130.359 132.429 130.171 132.425 129.989 132.462C129.807 132.499 129.635 132.576 129.486 132.687C129.337 132.798 129.214 132.94 129.125 133.104C129.037 133.268 128.985 133.449 128.975 133.634C128.98 133.954 129.034 134.27 129.134 134.573C130.205 137.607 130.521 140.861 130.056 144.055C129.845 146.843 130.104 149.643 130.823 152.339C131.129 153.43 131.685 154.432 132.446 155.267C133.208 156.103 134.154 156.748 135.211 157.152C134.973 156.102 134.743 155.146 134.543 154.281C133.83 151.579 133.59 148.771 133.833 145.981C133.868 145.01 134.157 144.064 134.672 143.238C135.187 142.412 135.91 141.735 136.767 141.276C137.136 141.196 137.61 140.943 137.994 140.615L138.072 140.549ZM164.061 130.802L163.389 130.496C161.679 132.317 159.682 134.069 159.879 136.934C160.034 138.44 159.789 139.964 159.169 141.35C158.549 142.737 157.575 143.938 156.347 144.832C155.546 145.555 154.82 146.356 154.179 147.223C153.939 147.657 153.748 148.116 153.608 148.591C155.663 148.874 157.733 149.038 159.808 149.08C160.232 149.033 160.64 148.884 160.995 148.646C162.47 147.91 163.759 146.847 164.763 145.537C164.403 144.832 164.125 144.087 163.936 143.317C163.543 139.903 163.519 136.454 163.865 133.03C163.891 132.334 163.926 131.602 163.984 130.867L164.061 130.802Z" fill="white" fill-opacity="0.8"/>
</svg>
