<svg width="72" height="22" viewBox="0 0 72 22" fill="none" xmlns="http://www.w3.org/2000/svg">
<path d="M0 2.81004C0.094643 2.69293 0.133847 2.59924 0.205645 2.55825C0.301558 2.51792 0.406494 2.4979 0.5124 2.4997C1.981 2.44407 3.4496 2.39721 4.91819 2.33279C6.54997 2.26252 8.18174 2.20105 9.81352 2.08979C11.9446 1.94632 14.0562 1.74721 16.2003 1.60082C17.6918 1.49834 19.1865 1.41932 20.6812 1.37247C23.2202 1.29049 25.7593 1.24949 28.2983 1.17922C31.0234 1.10602 33.7484 1.0211 36.4572 0.942043L37.1784 0.924495C39.9557 0.857153 42.7265 0.798579 45.5135 0.725382C49.0969 0.635593 52.6781 0.537997 56.2571 0.432592L66.9159 0.139803L71.4848 0.0109925C71.725 -0.00366417 71.9659 -0.00366417 72.2061 0.0109925C72.4079 0.0251098 72.5978 0.102287 72.7427 0.229084C72.8876 0.35588 72.9784 0.52426 72.9992 0.704902C73.0079 0.885561 72.9482 1.06354 72.8296 1.20978C72.7111 1.35602 72.5407 1.46189 72.3465 1.51007C72.163 1.54478 71.9758 1.56051 71.7884 1.55693C69.8303 1.61256 67.8721 1.65938 65.9368 1.71208L54.3937 2.02246L44.603 2.28597L32.9782 2.59924C29.7146 2.68708 26.4511 2.76322 23.1875 2.86862C20.6485 2.9506 18.1128 3.04429 15.5705 2.97695C14.0497 2.93303 12.5288 2.84228 11.0015 2.83642C8.39066 2.83642 5.76347 2.8686 3.14284 2.88324C2.2334 2.88324 1.32501 2.88324 0.417744 2.88324C0.276554 2.86883 0.136858 2.84435 0 2.81004Z" fill="#A5594B"/>
</svg>
