<svg width="72" height="22" viewBox="0 0 72 22" fill="none" xmlns="http://www.w3.org/2000/svg">
<path d="M71.9989 21.1139C72.0071 21.2728 71.9677 21.4306 71.8852 21.5692C71.8027 21.7078 71.6805 21.8216 71.5326 21.8975C71.3949 21.9787 71.2321 22.0132 71.0708 21.9954C70.9096 21.9776 70.7596 21.9086 70.6454 21.7995C70.4455 21.6014 70.2774 21.3766 70.1467 21.1323C69.2256 19.5486 68.1709 18.0377 66.9928 16.6144C63.4014 12.3338 58.8723 8.83883 53.7167 6.36963C49.6064 4.36662 45.1922 2.97882 40.6316 2.25581C37.3354 1.71746 33.9845 1.53978 30.6453 1.72629C24.2695 2.09053 18.2791 3.70361 12.7873 6.84713C12.198 7.18689 11.6022 7.5144 11.0129 7.85722C7.94827 9.63272 5.30295 11.9853 3.24146 14.7687C2.27004 16.0604 1.42492 17.4194 0.592731 18.7907C0.485563 18.96 0.365398 19.1216 0.233269 19.2743C0.213841 19.2988 0.129669 19.2957 0.0908123 19.2743C0.0519554 19.2529 -0.00310154 19.2039 0.000136538 19.1672C0.0066962 19.0683 0.0262538 18.9706 0.0583999 18.8764C0.398914 17.9006 0.832438 16.956 1.35363 16.0543C2.28331 14.4754 3.38254 12.9912 4.63385 11.6252C6.2238 9.87063 7.982 8.25883 9.88601 6.8104C11.0466 5.9321 12.2923 5.15937 13.6066 4.50251C17.5978 2.5013 21.9175 1.15088 26.384 0.508065C29.6881 0.0058213 33.0435 -0.124671 36.38 0.119327C46.92 0.909034 56.2456 4.47802 64.1077 11.2517C67.0969 13.8227 69.6137 16.8451 71.5553 20.1956C71.6719 20.3946 71.782 20.5935 71.8791 20.8078C71.9285 20.9063 71.9686 21.0087 71.9989 21.1139Z" fill="#A5594B"/>
</svg>
