<svg width="86" height="76" viewBox="0 0 86 76" fill="none" xmlns="http://www.w3.org/2000/svg">
<path d="M30.663 65.758C30.7991 65.9904 31.0261 65.9934 31.2238 66.0598C32.6003 66.4381 33.927 66.9584 35.1793 67.611C36.1572 68.1145 37.0481 68.7524 37.8217 69.5032C38.4163 70.0719 38.8856 70.7434 39.2028 71.48C39.4185 71.9613 39.4999 72.4856 39.4395 73.0041C39.3832 73.4111 39.2284 73.801 38.987 74.1444C38.7455 74.4878 38.4236 74.7758 38.0453 74.9868C37.3614 75.3705 36.6038 75.6268 35.8147 75.7413C33.6417 76.1247 31.4066 76.0815 29.2526 75.6145C28.5529 75.4655 27.8809 75.2204 27.2587 74.8872C26.2067 74.3352 25.4017 73.4509 24.9892 72.3944C24.5722 71.4262 24.4164 70.3776 24.5353 69.3403C24.6375 68.6024 24.9203 67.8961 25.362 67.276C25.4885 67.0979 25.6862 66.9531 25.6862 66.6724C25.6252 66.6333 25.5571 66.6047 25.4853 66.5879C24.7201 66.5306 23.9517 66.434 23.1833 66.431C20.502 66.431 17.8176 66.3887 15.1396 66.4582C13.2299 66.5064 11.3235 66.6845 9.42037 66.8384C7.69122 66.9772 5.97617 67.1422 4.27512 67.3334C3.03661 67.4722 1.80779 67.6804 0.57577 67.8524C0.420277 67.876 0.263184 67.8891 0.105674 67.8917C0.0700099 67.8917 0.0181165 67.8343 0.00514785 67.7951C-0.00782077 67.7559 0.00517001 67.6774 0.0278651 67.6623C0.174478 67.5623 0.336165 67.4829 0.507697 67.4269C1.56464 67.1975 2.61836 66.929 3.68827 66.775C5.39364 66.5276 7.10869 66.3586 8.82054 66.1533C10.0817 66.0024 11.343 65.8334 12.6074 65.6946C13.8719 65.5558 15.2012 65.3928 16.498 65.3234C19.0678 65.1504 21.6453 65.098 24.2208 65.1665C25.1221 65.1997 26.0234 65.257 26.9247 65.3325C27.2388 65.3757 27.5594 65.3171 27.8326 65.1665C29.6125 64.1645 31.5805 63.6756 33.6101 63.3557C34.9747 63.1621 36.351 63.0482 37.7309 63.0147C40.2559 62.9292 42.7794 63.2175 45.2073 63.8688C46.959 64.367 48.7438 64.7582 50.5504 65.0397C51.9672 65.2389 53.3872 65.426 54.8105 65.5709C58.6171 65.9124 62.4412 66.0564 66.2651 66.0024C69.1603 66.0024 72.0556 66.0025 74.9508 65.9753C78.3778 65.9511 81.8014 65.9119 85.2284 65.8847C85.4845 65.8847 85.7406 65.8848 86 65.9089C86 66.1624 85.8217 66.1866 85.6758 66.2107C84.4632 66.4793 83.2539 66.772 82.0316 66.9893C80.2513 67.27 78.4516 67.4303 76.6464 67.4691C71.6827 67.6744 66.7157 67.6171 61.7519 67.5718C58.8839 67.5392 56.0201 67.3598 53.1732 67.0346C50.3534 66.7206 47.5657 66.1938 44.8376 65.4592C43.4146 65.0562 41.9496 64.7952 40.4672 64.6806C39.3544 64.6147 38.2385 64.6046 37.1245 64.6504C35.5315 64.6978 33.9473 64.8899 32.3943 65.2238C31.9793 65.3144 31.5708 65.42 31.1655 65.5256C30.9919 65.5912 30.8239 65.6689 30.663 65.758ZM32.8676 74.3531C33.8863 74.3876 34.9049 74.286 35.8925 74.0513C36.2272 73.9747 36.553 73.8675 36.8652 73.7314C37.6822 73.3601 37.8962 72.8079 37.559 72.0111C37.3632 71.5772 37.0915 71.1764 36.755 70.8251C36.23 70.2645 35.6206 69.7777 34.9458 69.3795C34.0844 68.8423 33.1543 68.4074 32.177 68.0848C31.0228 67.7166 29.8491 67.4088 28.6787 67.0859C28.5469 67.0257 28.4003 66.9993 28.2538 67.0094C28.1074 67.0195 27.9665 67.0657 27.8456 67.1432C26.8729 67.8977 26.1823 68.8001 26.2245 70.0586C26.249 70.6035 26.3582 71.1422 26.5487 71.658C26.6927 72.0848 26.932 72.4784 27.2511 72.8128C27.5702 73.1473 27.9617 73.4151 28.3999 73.5986C28.8329 73.7844 29.2833 73.9329 29.7454 74.0422C30.7656 74.2804 31.8165 74.385 32.8676 74.3531Z" fill="#A5594B"/>
<path d="M78.9989 21.1139C79.0071 21.2728 78.9677 21.4306 78.8852 21.5692C78.8027 21.7078 78.6805 21.8216 78.5326 21.8975C78.3949 21.9787 78.2321 22.0132 78.0708 21.9954C77.9096 21.9776 77.7596 21.9086 77.6454 21.7995C77.4455 21.6014 77.2774 21.3766 77.1467 21.1323C76.2256 19.5486 75.1709 18.0377 73.9928 16.6144C70.4014 12.3338 65.8723 8.83883 60.7167 6.36963C56.6064 4.36662 52.1922 2.97882 47.6316 2.25581C44.3354 1.71746 40.9845 1.53978 37.6453 1.72629C31.2695 2.09053 25.2791 3.70361 19.7873 6.84713C19.198 7.18689 18.6022 7.5144 18.0129 7.85722C14.9483 9.63272 12.3029 11.9853 10.2415 14.7687C9.27004 16.0604 8.42492 17.4194 7.59273 18.7907C7.48556 18.96 7.3654 19.1216 7.23327 19.2743C7.21384 19.2988 7.12967 19.2957 7.09081 19.2743C7.05196 19.2529 6.9969 19.2039 7.00014 19.1672C7.0067 19.0683 7.02625 18.9706 7.0584 18.8764C7.39891 17.9006 7.83244 16.956 8.35363 16.0543C9.28331 14.4754 10.3825 12.9912 11.6339 11.6252C13.2238 9.87063 14.982 8.25883 16.886 6.8104C18.0466 5.9321 19.2923 5.15937 20.6066 4.50251C24.5978 2.5013 28.9175 1.15088 33.384 0.508065C36.6881 0.0058213 40.0435 -0.124671 43.38 0.119327C53.92 0.909034 63.2456 4.47802 71.1077 11.2517C74.0969 13.8227 76.6137 16.8451 78.5553 20.1956C78.6719 20.3946 78.782 20.5935 78.8791 20.8078C78.9285 20.9063 78.9686 21.0087 78.9989 21.1139Z" fill="#A5594B"/>
<path d="M6 43.81C6.09464 43.6929 6.13385 43.5992 6.20565 43.5582C6.30156 43.5179 6.40649 43.4979 6.5124 43.4997C7.981 43.4441 9.4496 43.3972 10.9182 43.3328C12.55 43.2625 14.1817 43.2011 15.8135 43.0898C17.9446 42.9463 20.0562 42.7472 22.2003 42.6008C23.6918 42.4983 25.1865 42.4193 26.6812 42.3725C29.2202 42.2905 31.7593 42.2495 34.2983 42.1792C37.0234 42.106 39.7484 42.0211 42.4572 41.942L43.1784 41.9245C45.9557 41.8572 48.7265 41.7986 51.5135 41.7254C55.0969 41.6356 58.6781 41.538 62.2571 41.4326L72.9159 41.1398L77.4848 41.011C77.725 40.9963 77.9659 40.9963 78.2061 41.011C78.4079 41.0251 78.5978 41.1023 78.7427 41.2291C78.8876 41.3559 78.9784 41.5243 78.9992 41.7049C79.0079 41.8856 78.9482 42.0635 78.8296 42.2098C78.7111 42.356 78.5407 42.4619 78.3465 42.5101C78.163 42.5448 77.9758 42.5605 77.7884 42.5569C75.8303 42.6126 73.8721 42.6594 71.9368 42.7121L60.3937 43.0225L50.603 43.286L38.9782 43.5992C35.7146 43.6871 32.4511 43.7632 29.1875 43.8686C26.6485 43.9506 24.1128 44.0443 21.5705 43.977C20.0497 43.933 18.5288 43.8423 17.0015 43.8364C14.3907 43.8364 11.7635 43.8686 9.14284 43.8832C8.2334 43.8832 7.32501 43.8832 6.41774 43.8832C6.27655 43.8688 6.13686 43.8444 6 43.81Z" fill="#A5594B"/>
</svg>
