<svg width="73" height="52" viewBox="0 0 73 52" fill="none" xmlns="http://www.w3.org/2000/svg">
<mask id="path-1-inside-1_368_334" fill="white">
<path d="M26.0279 43.3337C26.1435 43.5303 26.3361 43.5329 26.504 43.5891C27.6723 43.9092 28.7985 44.3494 29.8615 44.9016C30.6916 45.3277 31.4478 45.8674 32.1044 46.5027C32.6092 46.9839 33.0075 47.5521 33.2768 48.1754C33.4599 48.5827 33.529 49.0263 33.4777 49.465C33.4299 49.8094 33.2986 50.1393 33.0936 50.4299C32.8886 50.7205 32.6154 50.9642 32.2943 51.1427C31.7137 51.4674 31.0706 51.6842 30.4009 51.7811C28.5563 52.1055 26.6591 52.069 24.8307 51.6738C24.2367 51.5478 23.6663 51.3404 23.1382 51.0584C22.2453 50.5913 21.5619 49.8431 21.2118 48.9491C20.8578 48.1298 20.7255 47.2426 20.8265 46.3649C20.9132 45.7405 21.1533 45.1428 21.5282 44.6182C21.6355 44.4675 21.8034 44.3449 21.8034 44.1074C21.7516 44.0744 21.6938 44.0502 21.6328 44.0359C20.9833 43.9874 20.3311 43.9057 19.6788 43.9032C17.4029 43.9032 15.1242 43.8674 12.851 43.9261C11.2301 43.967 9.61182 44.1177 7.99636 44.2479C6.5286 44.3654 5.07279 44.505 3.62888 44.6667C2.57759 44.7842 1.53452 44.9603 0.488735 45.1059C0.356746 45.1258 0.223401 45.1369 0.0896997 45.1391C0.059427 45.1391 0.0153779 45.0906 0.00436968 45.0574C-0.00663856 45.0242 0.0043885 44.9578 0.0236529 44.945C0.148103 44.8604 0.285349 44.7932 0.430952 44.7458C1.32812 44.5518 2.22256 44.3245 3.13074 44.1943C4.57832 43.9849 6.03412 43.8419 7.48721 43.6682C8.55776 43.5405 9.62836 43.3975 10.7017 43.2801C11.775 43.1626 12.9033 43.0247 14.0041 42.966C16.1855 42.8196 18.3733 42.7752 20.5595 42.8332C21.3246 42.8613 22.0897 42.9098 22.8547 42.9736C23.1213 43.0102 23.3934 42.9606 23.6253 42.8332C25.1362 41.9854 26.8067 41.5717 28.5295 41.301C29.6878 41.1372 30.8561 41.0408 32.0274 41.0124C34.1707 40.9401 36.3128 41.184 38.3736 41.7351C39.8606 42.1567 41.3756 42.4877 42.909 42.7259C44.1117 42.8945 45.3171 43.0528 46.5252 43.1754C49.7564 43.4643 53.0025 43.5862 56.2483 43.5405C58.7058 43.5405 61.1634 43.5405 63.621 43.5176C66.53 43.4971 69.4361 43.4639 72.345 43.4409C72.5625 43.4409 72.7798 43.441 73 43.4614C73 43.6759 72.8486 43.6963 72.7248 43.7167C71.6955 43.944 70.669 44.1917 69.6315 44.3756C68.1203 44.613 66.5926 44.7487 65.0604 44.7816C60.847 44.9552 56.6307 44.9067 52.4173 44.8684C49.9829 44.8408 47.5519 44.6891 45.1354 44.4139C42.7419 44.1482 40.3756 43.7024 38.0599 43.0809C36.8519 42.7399 35.6084 42.519 34.3501 42.422C33.4055 42.3663 32.4583 42.3578 31.5127 42.3965C30.1605 42.4366 28.8157 42.5991 27.4975 42.8817C27.1452 42.9583 26.7985 43.0477 26.4544 43.1371C26.3071 43.1925 26.1645 43.2583 26.0279 43.3337ZM27.8993 50.6064C28.7639 50.6357 29.6286 50.5497 30.4669 50.3511C30.751 50.2863 31.0276 50.1956 31.2925 50.0804C31.986 49.7663 32.1677 49.299 31.8815 48.6248C31.7152 48.2576 31.4846 47.9185 31.199 47.6212C30.7534 47.1469 30.2361 46.7349 29.6633 46.3981C28.9321 45.9435 28.1426 45.5755 27.3131 45.3025C26.3333 44.991 25.3371 44.7305 24.3436 44.4573C24.2317 44.4064 24.1072 44.384 23.9829 44.3926C23.8586 44.4011 23.739 44.4402 23.6363 44.5058C22.8107 45.1442 22.2245 45.9078 22.2603 46.9726C22.2811 47.4337 22.3738 47.8896 22.5355 48.326C22.6577 48.6871 22.8609 49.0202 23.1318 49.3032C23.4026 49.5862 23.7349 49.8128 24.1069 49.968C24.4745 50.1253 24.8567 50.2509 25.249 50.3434C26.115 50.5449 27.007 50.6334 27.8993 50.6064Z"/>
</mask>
<path d="M26.0279 43.3337C26.1435 43.5303 26.3361 43.5329 26.504 43.5891C27.6723 43.9092 28.7985 44.3494 29.8615 44.9016C30.6916 45.3277 31.4478 45.8674 32.1044 46.5027C32.6092 46.9839 33.0075 47.5521 33.2768 48.1754C33.4599 48.5827 33.529 49.0263 33.4777 49.465C33.4299 49.8094 33.2986 50.1393 33.0936 50.4299C32.8886 50.7205 32.6154 50.9642 32.2943 51.1427C31.7137 51.4674 31.0706 51.6842 30.4009 51.7811C28.5563 52.1055 26.6591 52.069 24.8307 51.6738C24.2367 51.5478 23.6663 51.3404 23.1382 51.0584C22.2453 50.5913 21.5619 49.8431 21.2118 48.9491C20.8578 48.1298 20.7255 47.2426 20.8265 46.3649C20.9132 45.7405 21.1533 45.1428 21.5282 44.6182C21.6355 44.4675 21.8034 44.3449 21.8034 44.1074C21.7516 44.0744 21.6938 44.0502 21.6328 44.0359C20.9833 43.9874 20.3311 43.9057 19.6788 43.9032C17.4029 43.9032 15.1242 43.8674 12.851 43.9261C11.2301 43.967 9.61182 44.1177 7.99636 44.2479C6.5286 44.3654 5.07279 44.505 3.62888 44.6667C2.57759 44.7842 1.53452 44.9603 0.488735 45.1059C0.356746 45.1258 0.223401 45.1369 0.0896997 45.1391C0.059427 45.1391 0.0153779 45.0906 0.00436968 45.0574C-0.00663856 45.0242 0.0043885 44.9578 0.0236529 44.945C0.148103 44.8604 0.285349 44.7932 0.430952 44.7458C1.32812 44.5518 2.22256 44.3245 3.13074 44.1943C4.57832 43.9849 6.03412 43.8419 7.48721 43.6682C8.55776 43.5405 9.62836 43.3975 10.7017 43.2801C11.775 43.1626 12.9033 43.0247 14.0041 42.966C16.1855 42.8196 18.3733 42.7752 20.5595 42.8332C21.3246 42.8613 22.0897 42.9098 22.8547 42.9736C23.1213 43.0102 23.3934 42.9606 23.6253 42.8332C25.1362 41.9854 26.8067 41.5717 28.5295 41.301C29.6878 41.1372 30.8561 41.0408 32.0274 41.0124C34.1707 40.9401 36.3128 41.184 38.3736 41.7351C39.8606 42.1567 41.3756 42.4877 42.909 42.7259C44.1117 42.8945 45.3171 43.0528 46.5252 43.1754C49.7564 43.4643 53.0025 43.5862 56.2483 43.5405C58.7058 43.5405 61.1634 43.5405 63.621 43.5176C66.53 43.4971 69.4361 43.4639 72.345 43.4409C72.5625 43.4409 72.7798 43.441 73 43.4614C73 43.6759 72.8486 43.6963 72.7248 43.7167C71.6955 43.944 70.669 44.1917 69.6315 44.3756C68.1203 44.613 66.5926 44.7487 65.0604 44.7816C60.847 44.9552 56.6307 44.9067 52.4173 44.8684C49.9829 44.8408 47.5519 44.6891 45.1354 44.4139C42.7419 44.1482 40.3756 43.7024 38.0599 43.0809C36.8519 42.7399 35.6084 42.519 34.3501 42.422C33.4055 42.3663 32.4583 42.3578 31.5127 42.3965C30.1605 42.4366 28.8157 42.5991 27.4975 42.8817C27.1452 42.9583 26.7985 43.0477 26.4544 43.1371C26.3071 43.1925 26.1645 43.2583 26.0279 43.3337ZM27.8993 50.6064C28.7639 50.6357 29.6286 50.5497 30.4669 50.3511C30.751 50.2863 31.0276 50.1956 31.2925 50.0804C31.986 49.7663 32.1677 49.299 31.8815 48.6248C31.7152 48.2576 31.4846 47.9185 31.199 47.6212C30.7534 47.1469 30.2361 46.7349 29.6633 46.3981C28.9321 45.9435 28.1426 45.5755 27.3131 45.3025C26.3333 44.991 25.3371 44.7305 24.3436 44.4573C24.2317 44.4064 24.1072 44.384 23.9829 44.3926C23.8586 44.4011 23.739 44.4402 23.6363 44.5058C22.8107 45.1442 22.2245 45.9078 22.2603 46.9726C22.2811 47.4337 22.3738 47.8896 22.5355 48.326C22.6577 48.6871 22.8609 49.0202 23.1318 49.3032C23.4026 49.5862 23.7349 49.8128 24.1069 49.968C24.4745 50.1253 24.8567 50.2509 25.249 50.3434C26.115 50.5449 27.007 50.6334 27.8993 50.6064Z" fill="white"/>
<path d="M26.504 43.5891L25.5519 46.434L25.6309 46.4604L25.7112 46.4824L26.504 43.5891ZM29.8615 44.9016L28.4785 47.5639L28.4851 47.5673L28.4917 47.5707L29.8615 44.9016ZM32.1044 46.5027L30.0184 48.6588L30.0265 48.6666L30.0346 48.6743L32.1044 46.5027ZM33.2768 48.1754L30.5229 49.3654L30.5316 49.3853L30.5405 49.4052L33.2768 48.1754ZM33.4777 49.465L36.4492 49.8775L36.4537 49.8454L36.4574 49.8131L33.4777 49.465ZM32.2943 51.1427L30.8364 48.5208L30.8301 48.5243L32.2943 51.1427ZM30.4009 51.7811L29.9713 48.812L29.9261 48.8186L29.8812 48.8265L30.4009 51.7811ZM24.8307 51.6738L25.4644 48.7415L25.4536 48.7392L24.8307 51.6738ZM23.1382 51.0584L24.551 48.4119L24.5399 48.406L24.5289 48.4002L23.1382 51.0584ZM21.2118 48.9491L24.0051 47.855L23.9862 47.8068L23.9657 47.7593L21.2118 48.9491ZM20.8265 46.3649L17.855 45.9522L17.8502 45.987L17.8462 46.022L20.8265 46.3649ZM21.5282 44.6182L23.969 46.3624L23.9716 46.3588L21.5282 44.6182ZM21.8034 44.1074H24.8034V42.4628L23.4169 41.5782L21.8034 44.1074ZM21.6328 44.0359L22.3138 41.1143L22.0878 41.0616L21.8563 41.0443L21.6328 44.0359ZM19.6788 43.9032L19.6906 40.9032H19.6788V43.9032ZM12.851 43.9261L12.9266 46.9252L12.9285 46.9251L12.851 43.9261ZM7.99636 44.2479L8.23569 47.2383L8.23744 47.2382L7.99636 44.2479ZM3.62888 44.6667L3.96201 47.6481L3.96281 47.648L3.62888 44.6667ZM0.488735 45.1059L0.0751672 42.1345L0.0581504 42.1369L0.0411619 42.1395L0.488735 45.1059ZM0.0896997 45.1391V48.1391H0.114252L0.138801 48.1387L0.0896997 45.1391ZM0.0236529 44.945L1.68103 47.4456L1.69605 47.4357L1.71095 47.4256L0.0236529 44.945ZM0.430952 44.7458L-0.203336 41.8137L-0.352641 41.846L-0.497892 41.8932L0.430952 44.7458ZM3.13074 44.1943L3.55659 47.1639L3.56023 47.1634L3.13074 44.1943ZM7.48721 43.6682L7.13192 40.6893L7.13123 40.6894L7.48721 43.6682ZM14.0041 42.966L14.164 45.9617L14.1845 45.9606L14.205 45.9592L14.0041 42.966ZM20.5595 42.8332L20.6696 39.8352L20.6543 39.8346L20.6389 39.8342L20.5595 42.8332ZM22.8547 42.9736L23.2623 40.0014L23.1835 39.9906L23.1042 39.984L22.8547 42.9736ZM23.6253 42.8332L25.07 45.4624L25.0817 45.456L25.0934 45.4494L23.6253 42.8332ZM28.5295 41.301L28.1095 38.3305L28.0866 38.3338L28.0639 38.3373L28.5295 41.301ZM32.0274 41.0124L32.1001 44.0115L32.1143 44.0112L32.1286 44.0107L32.0274 41.0124ZM38.3736 41.7351L39.192 38.8489L39.1703 38.8428L39.1486 38.837L38.3736 41.7351ZM42.909 42.7259L42.4484 45.6904L42.4705 45.6938L42.4927 45.6969L42.909 42.7259ZM46.5252 43.1754L46.2224 46.1601L46.2402 46.1619L46.258 46.1635L46.5252 43.1754ZM56.2483 43.5405V40.5405H56.2271L56.206 40.5408L56.2483 43.5405ZM63.621 43.5176L63.6 40.5176L63.593 40.5177L63.621 43.5176ZM72.345 43.4409V40.4409H72.3332L72.3213 40.441L72.345 43.4409ZM73 43.4614H76V40.7269L73.2772 40.4742L73 43.4614ZM72.7248 43.7167L72.2365 40.7567L72.1568 40.7699L72.0779 40.7873L72.7248 43.7167ZM69.6315 44.3756L70.0972 47.3392L70.1261 47.3347L70.155 47.3295L69.6315 44.3756ZM65.0604 44.7816L64.996 41.7823L64.9664 41.7829L64.9368 41.7841L65.0604 44.7816ZM52.4173 44.8684L52.3833 47.8682L52.3901 47.8683L52.4173 44.8684ZM45.1354 44.4139L45.4749 41.4331L45.4664 41.4322L45.1354 44.4139ZM38.0599 43.0809L37.2448 45.9681L37.2635 45.9733L37.2822 45.9783L38.0599 43.0809ZM34.3501 42.422L34.5806 39.4309L34.5537 39.4288L34.5268 39.4272L34.3501 42.422ZM31.5127 42.3965L31.6016 45.3952L31.6186 45.3947L31.6355 45.394L31.5127 42.3965ZM27.4975 42.8817L26.8687 39.9483L26.86 39.9502L27.4975 42.8817ZM26.4544 43.1371L25.7001 40.2335L25.5462 40.2734L25.3975 40.3294L26.4544 43.1371ZM27.8993 50.6064L28.0007 47.6082L27.9046 47.6049L27.8085 47.6078L27.8993 50.6064ZM30.4669 50.3511L29.7996 47.4262L29.7874 47.429L29.7753 47.4319L30.4669 50.3511ZM31.2925 50.0804L32.4887 52.8316L32.5095 52.8225L32.5302 52.8132L31.2925 50.0804ZM31.8815 48.6248L34.6429 47.4524L34.6291 47.4198L34.6144 47.3874L31.8815 48.6248ZM31.199 47.6212L29.0126 49.6754L29.0241 49.6877L29.0357 49.6997L31.199 47.6212ZM29.6633 46.3981L28.0795 48.9459L28.1107 48.9653L28.1424 48.9839L29.6633 46.3981ZM27.3131 45.3025L28.2507 42.4528L28.2364 42.4481L28.2222 42.4436L27.3131 45.3025ZM24.3436 44.4573L23.1011 47.1879L23.3181 47.2867L23.548 47.3499L24.3436 44.4573ZM23.6363 44.5058L22.0199 41.9786L21.9071 42.0507L21.8012 42.1326L23.6363 44.5058ZM22.2603 46.9726L19.262 47.0734L19.2626 47.0906L19.2634 47.1079L22.2603 46.9726ZM22.5355 48.326L25.3772 47.3644L25.3635 47.3239L25.3486 47.2838L22.5355 48.326ZM24.1069 49.968L25.2869 47.2098L25.2748 47.2046L25.2626 47.1995L24.1069 49.968ZM25.249 50.3434L24.5605 53.2633L24.5691 53.2653L25.249 50.3434ZM23.4416 44.854C23.9276 45.6807 24.627 46.1049 25.1668 46.3131C25.3861 46.3977 25.5789 46.446 25.6258 46.4581C25.7227 46.483 25.6364 46.4623 25.5519 46.434L27.456 40.7441C27.3588 40.7116 27.2761 40.6883 27.2232 40.6741C27.1963 40.6668 27.1727 40.6607 27.157 40.6566C27.1491 40.6545 27.1415 40.6526 27.1364 40.6513C27.1306 40.6498 27.1272 40.6489 27.1242 40.6482C27.0842 40.6378 27.1901 40.6626 27.3258 40.715C27.4792 40.7742 27.717 40.8842 27.9708 41.0818C28.234 41.2868 28.4519 41.5374 28.6141 41.8134L23.4416 44.854ZM25.7112 46.4824C26.6775 46.7472 27.6057 47.1104 28.4785 47.5639L31.2444 42.2394C29.9913 41.5885 28.6671 41.0712 27.2967 40.6957L25.7112 46.4824ZM28.4917 47.5707C29.0649 47.8648 29.5786 48.2332 30.0184 48.6588L34.1905 44.3467C33.317 43.5016 32.3183 42.7905 31.2312 42.2326L28.4917 47.5707ZM30.0346 48.6743C30.2558 48.8852 30.4178 49.122 30.5229 49.3654L36.0307 46.9854C35.5972 45.9822 34.9626 45.0826 34.1743 44.3312L30.0346 48.6743ZM30.5405 49.4052C30.5039 49.3238 30.4856 49.2226 30.498 49.1168L36.4574 49.8131C36.5723 48.8299 36.4158 47.8415 36.0131 46.9456L30.5405 49.4052ZM30.5062 49.0524C30.5257 48.9117 30.5777 48.792 30.6421 48.7007L35.5451 52.1591C36.0194 51.4866 36.334 50.7071 36.4492 49.8775L30.5062 49.0524ZM30.6421 48.7007C30.7057 48.6105 30.7767 48.5539 30.8364 48.5208L33.7522 53.7646C34.454 53.3744 35.0716 52.8304 35.5451 52.1591L30.6421 48.7007ZM30.8301 48.5243C30.5757 48.6666 30.2841 48.7668 29.9713 48.812L30.8305 54.7502C31.8572 54.6016 32.8518 54.2682 33.7586 53.7611L30.8301 48.5243ZM29.8812 48.8265C28.4185 49.0837 26.913 49.0546 25.4644 48.7415L24.197 54.6061C26.4053 55.0834 28.6942 55.1273 30.9205 54.7358L29.8812 48.8265ZM25.4536 48.7392C25.1312 48.6708 24.8271 48.5593 24.551 48.4119L21.7254 53.705C22.5056 54.1214 23.3423 54.4247 24.2078 54.6085L25.4536 48.7392ZM24.5289 48.4002C24.242 48.2502 24.0776 48.04 24.0051 47.855L18.4184 50.0433C19.0463 51.6462 20.2485 52.9324 21.7475 53.7166L24.5289 48.4002ZM23.9657 47.7593C23.8179 47.4172 23.7665 47.058 23.8068 46.7077L17.8462 46.022C17.6845 47.4271 17.8977 48.8425 18.4578 50.139L23.9657 47.7593ZM23.798 46.7775C23.8165 46.6445 23.8693 46.5019 23.969 46.3624L19.0874 42.8739C18.4372 43.7838 18.01 44.8364 17.855 45.9522L23.798 46.7775ZM23.9716 46.3588C23.9111 46.4438 23.8534 46.5089 23.9054 46.4475C23.9274 46.4216 24.0456 46.2846 24.1642 46.1151C24.4483 45.7091 24.8034 45.0271 24.8034 44.1074H18.8034C18.8034 43.7989 18.8605 43.5004 18.9607 43.2286C19.0567 42.9681 19.1746 42.7804 19.248 42.6756C19.3111 42.5852 19.3673 42.522 19.3276 42.5689C19.318 42.5802 19.199 42.7172 19.0848 42.8775L23.9716 46.3588ZM23.4169 41.5782C23.073 41.3589 22.699 41.204 22.3138 41.1143L20.9519 46.9576C20.6887 46.8963 20.4302 46.7898 20.19 46.6366L23.4169 41.5782ZM21.8563 41.0443C21.4113 41.011 20.4809 40.9063 19.6906 40.9032L19.6671 46.9031C20.1812 46.9051 20.5554 46.9638 21.4093 47.0276L21.8563 41.0443ZM19.6788 40.9032C17.4661 40.9032 15.0981 40.8671 12.7735 40.9271L12.9285 46.9251C15.1504 46.8677 17.3397 46.9032 19.6788 46.9032V40.9032ZM12.7754 40.9271C11.0482 40.9706 9.31695 41.1317 7.75529 41.2576L8.23744 47.2382C9.90669 47.1036 11.412 46.9634 12.9266 46.9252L12.7754 40.9271ZM7.75703 41.2574C6.2581 41.3774 4.77075 41.52 3.29494 41.6853L3.96281 47.648C5.37483 47.4899 6.79909 47.3533 8.23569 47.2383L7.75703 41.2574ZM3.29574 41.6852C2.19963 41.8077 0.997002 42.0062 0.0751672 42.1345L0.902303 48.0773C2.07203 47.9145 2.95556 47.7606 3.96201 47.6481L3.29574 41.6852ZM0.0411619 42.1395L0.0405984 42.1395L0.138801 48.1387C0.405714 48.1343 0.672182 48.1122 0.936308 48.0723L0.0411619 42.1395ZM0.0896997 42.1391C0.835306 42.1391 1.36871 42.4165 1.59327 42.5494C1.8575 42.7058 2.0468 42.8743 2.1679 42.9962C2.3622 43.1917 2.66691 43.5553 2.8519 44.1132L-2.84316 46.0016C-2.64716 46.5927 -2.31492 46.9971 -2.08828 47.2252C-1.95101 47.3634 -1.74433 47.5461 -1.46299 47.7126C-1.22131 47.8557 -0.671043 48.1391 0.0896997 48.1391V42.1391ZM2.8519 44.1132C2.97671 44.4896 2.9963 44.8047 2.99948 44.97C3.00312 45.1597 2.98751 45.3354 2.96045 45.495C2.9351 45.6445 2.88534 45.8657 2.77877 46.1206C2.72475 46.2498 2.63523 46.4381 2.49247 46.6466C2.35868 46.8421 2.10334 47.1657 1.68103 47.4456L-1.63372 42.4444C-2.40149 42.9533 -2.69177 43.6504 -2.75684 43.806C-2.87055 44.078 -2.92599 44.3202 -2.95514 44.4921C-2.99725 44.7405 -3.06843 45.3223 -2.84316 46.0016L2.8519 44.1132ZM1.71095 47.4256C1.59742 47.5028 1.47868 47.5597 1.3598 47.5984L-0.497892 41.8932C-0.907986 42.0268 -1.30122 42.218 -1.66364 42.4645L1.71095 47.4256ZM1.06524 47.678C2.10322 47.4535 2.78824 47.2741 3.55659 47.1639L2.70489 41.2247C1.65688 41.3749 0.553027 41.65 -0.203336 41.8137L1.06524 47.678ZM3.56023 47.1634C4.96188 46.9606 6.30362 46.831 7.84318 46.647L7.13123 40.6894C5.76461 40.8527 4.19477 41.0091 2.70125 41.2252L3.56023 47.1634ZM7.84249 46.6471C8.97776 46.5117 9.96525 46.3786 11.028 46.2622L10.3753 40.2979C9.29146 40.4165 8.13775 40.5694 7.13192 40.6893L7.84249 46.6471ZM11.028 46.2622C12.1575 46.1386 13.1705 46.0147 14.164 45.9617L13.8443 39.9702C12.6361 40.0347 11.3924 40.1865 10.3753 40.2979L11.028 46.2622ZM14.205 45.9592C16.293 45.8191 18.3873 45.7767 20.48 45.8321L20.6389 39.8342C18.3593 39.7738 16.0779 39.82 13.8033 39.9727L14.205 45.9592ZM20.4494 45.8311C21.1614 45.8573 21.8796 45.9027 22.6053 45.9632L23.1042 39.984C22.2998 39.9169 21.4877 39.8652 20.6696 39.8352L20.4494 45.8311ZM22.4471 45.9458C23.3404 46.0683 24.2633 45.9057 25.07 45.4624L22.1806 40.2039C22.5235 40.0155 22.9023 39.9521 23.2623 40.0014L22.4471 45.9458ZM25.0934 45.4494C26.1517 44.8556 27.417 44.5126 28.9952 44.2646L28.0639 38.3373C26.1964 38.6308 24.1207 39.1152 22.1573 40.2169L25.0934 45.4494ZM28.9496 44.2714C29.9926 44.1239 31.0448 44.0371 32.1001 44.0115L31.9547 38.0133C30.6673 38.0445 29.3831 38.1504 28.1095 38.3305L28.9496 44.2714ZM32.1286 44.0107C33.978 43.9483 35.8248 44.159 37.5986 44.6333L39.1486 38.837C36.8007 38.2091 34.3633 37.9319 31.9262 38.0141L32.1286 44.0107ZM37.5553 44.6214C39.1603 45.0764 40.7948 45.4334 42.4484 45.6904L43.3696 39.7615C41.9564 39.5419 40.5609 39.237 39.192 38.8489L37.5553 44.6214ZM42.4927 45.6969C43.7096 45.8674 44.9584 46.0318 46.2224 46.1601L46.828 40.1907C45.6757 40.0738 44.5138 39.9215 43.3254 39.755L42.4927 45.6969ZM46.258 46.1635C49.5921 46.4616 52.9415 46.5874 56.2905 46.5402L56.206 40.5408C53.0634 40.5851 49.9207 40.467 46.7924 40.1873L46.258 46.1635ZM56.2483 46.5405C58.7035 46.5405 61.1751 46.5406 63.6491 46.5174L63.593 40.5177C61.1518 40.5405 58.7082 40.5405 56.2483 40.5405V46.5405ZM63.6421 46.5175C66.5419 46.4971 69.4848 46.4636 72.3687 46.4408L72.3213 40.441C69.3875 40.4642 66.518 40.4971 63.6 40.5176L63.6421 46.5175ZM72.345 46.4409C72.5837 46.4409 72.6633 46.443 72.7228 46.4485L73.2772 40.4742C72.8964 40.4389 72.5412 40.4409 72.345 40.4409V46.4409ZM70 43.4614C70 43.1659 70.0524 42.7269 70.2887 42.2522C70.5366 41.754 70.9026 41.3865 71.28 41.1425C71.6239 40.9202 71.9317 40.8293 72.0718 40.7932C72.1979 40.7607 72.3154 40.7437 72.2365 40.7567L73.2131 46.6767C73.2162 46.6762 73.2167 46.6761 73.2233 46.6751C73.2281 46.6743 73.2354 46.6731 73.2435 46.6717C73.2597 46.669 73.2843 46.6648 73.3133 46.6595C73.3698 46.6491 73.4603 46.6314 73.5682 46.6036C73.7716 46.5512 74.1404 46.438 74.5377 46.1812C74.9684 45.9027 75.38 45.4886 75.6602 44.9256C75.9287 44.3861 76 43.8641 76 43.4614H70ZM72.0779 40.7873C70.9725 41.0314 70.063 41.2524 69.108 41.4216L70.155 47.3295C71.275 47.1311 72.4186 46.8566 73.3716 46.6462L72.0779 40.7873ZM69.1658 41.4119C67.7877 41.6285 66.3941 41.7523 64.996 41.7823L65.1247 47.7809C66.7911 47.7452 68.4529 47.5976 70.0972 47.3392L69.1658 41.4119ZM64.9368 41.7841C60.8136 41.9541 56.6779 41.907 52.4446 41.8686L52.3901 47.8683C56.5835 47.9064 60.8803 47.9564 65.1839 47.779L64.9368 41.7841ZM52.4513 41.8686C50.1189 41.8422 47.7898 41.6968 45.4749 41.4331L44.7959 47.3946C47.314 47.6814 49.8469 47.8395 52.3833 47.8682L52.4513 41.8686ZM45.4664 41.4322C43.223 41.1832 41.006 40.7654 38.8375 40.1834L37.2822 45.9783C39.7451 46.6394 42.2607 47.1132 44.8044 47.3956L45.4664 41.4322ZM38.8749 40.1937C37.475 39.7985 36.0356 39.5431 34.5806 39.4309L34.1195 45.4132C35.1811 45.495 36.2288 45.6812 37.2448 45.9681L38.8749 40.1937ZM34.5268 39.4272C33.4824 39.3656 32.4353 39.3562 31.3899 39.399L31.6355 45.394C32.4813 45.3593 33.3285 45.367 34.1734 45.4168L34.5268 39.4272ZM31.4238 39.3978C29.8906 39.4433 28.3651 39.6276 26.8687 39.9483L28.1263 45.8151C29.2663 45.5707 30.4303 45.4299 31.6016 45.3952L31.4238 39.3978ZM26.86 39.9502C26.4413 40.0413 26.0403 40.1451 25.7001 40.2335L27.2088 46.0407C27.5566 45.9503 27.8491 45.8754 28.135 45.8132L26.86 39.9502ZM25.3975 40.3294C25.1162 40.4353 24.8421 40.5615 24.5779 40.7074L27.4778 45.96C27.4869 45.955 27.4981 45.9497 27.5114 45.9447L25.3975 40.3294ZM27.7978 53.6047C28.9281 53.643 30.0595 53.5307 31.1585 53.2703L29.7753 47.4319C29.1977 47.5687 28.5998 47.6284 28.0007 47.6082L27.7978 53.6047ZM31.1342 53.2759C31.5981 53.1701 32.0518 53.0215 32.4887 52.8316L30.0963 47.3292C30.0033 47.3696 29.9039 47.4024 29.7996 47.4262L31.1342 53.2759ZM32.5302 52.8132C33.2486 52.4878 34.2427 51.8421 34.7391 50.6037C35.2412 49.3509 34.9559 48.1895 34.6429 47.4524L29.1201 49.7972C29.0934 49.7343 28.8603 49.1437 29.1697 48.3716C29.4734 47.6139 30.0299 47.3589 30.0548 47.3476L32.5302 52.8132ZM34.6144 47.3874C34.3043 46.7024 33.8788 46.0803 33.3623 45.5427L29.0357 49.6997C29.0905 49.7567 29.1262 49.8128 29.1486 49.8622L34.6144 47.3874ZM33.3854 45.567C32.7402 44.8803 31.9977 44.2906 31.1842 43.8122L28.1424 48.9839C28.4745 49.1793 28.7666 49.4135 29.0126 49.6754L33.3854 45.567ZM31.2472 43.8502C30.3105 43.2679 29.3036 42.7993 28.2507 42.4528L26.3754 48.1523C26.9816 48.3517 27.5538 48.6191 28.0795 48.9459L31.2472 43.8502ZM28.2222 42.4436C27.1684 42.1085 26.0824 41.8241 25.1391 41.5647L23.548 47.3499C24.5918 47.637 25.4983 47.8735 26.4039 48.1615L28.2222 42.4436ZM25.5861 41.7267C25.0147 41.4667 24.3921 41.3574 23.7776 41.3996L24.1882 47.3855C23.8224 47.4106 23.4486 47.346 23.1011 47.1879L25.5861 41.7267ZM23.7776 41.3996C23.1635 41.4417 22.5566 41.6353 22.0199 41.9786L25.2528 47.0331C24.9214 47.2451 24.5537 47.3605 24.1882 47.3855L23.7776 41.3996ZM21.8012 42.1326C20.6295 43.0386 19.1795 44.6176 19.262 47.0734L25.2586 46.8719C25.2595 46.898 25.2567 46.9499 25.2392 47.0141C25.2222 47.0768 25.1999 47.1194 25.1893 47.1368C25.1807 47.1511 25.1888 47.1336 25.2345 47.086C25.2809 47.0376 25.3557 46.9685 25.4715 46.8791L21.8012 42.1326ZM19.2634 47.1079C19.2983 47.8816 19.4538 48.6433 19.7224 49.3683L25.3486 47.2838C25.2938 47.1359 25.264 46.9858 25.2573 46.8374L19.2634 47.1079ZM19.6938 49.2877C19.9606 50.0761 20.3986 50.7862 20.9644 51.3774L25.2991 47.2289C25.3232 47.2541 25.3548 47.2982 25.3772 47.3644L19.6938 49.2877ZM20.9644 51.3774C21.5294 51.9678 22.2092 52.4267 22.9513 52.7365L25.2626 47.1995C25.2607 47.1988 25.2758 47.2045 25.2991 47.2289L20.9644 51.3774ZM22.9269 52.7262C23.4546 52.952 24.0014 53.1315 24.5605 53.2633L25.9375 47.4235C25.7121 47.3703 25.4943 47.2986 25.2869 47.2098L22.9269 52.7262ZM24.5691 53.2653C25.6886 53.5258 26.8397 53.6399 27.99 53.6051L27.8085 47.6078C27.1743 47.627 26.5414 47.564 25.9289 47.4215L24.5691 53.2653Z" fill="white" mask="url(#path-1-inside-1_368_334)"/>
<path d="M11.0062 7.84582L10.2586 6.56063C10.259 6.5604 10.2594 6.56016 10.2598 6.55993C10.5675 6.38096 10.9221 6.1807 11.2649 5.98706C11.5404 5.83147 11.8082 5.68016 12.0381 5.54762L12.0422 5.54531C12.5848 5.2347 13.132 4.93855 13.6836 4.65658C13.6836 4.65655 13.6837 4.65651 13.6838 4.65648C17.705 2.60091 21.9613 1.29913 26.4042 0.64806C26.4045 0.648005 26.4049 0.647951 26.4053 0.647897C27.7729 0.447521 29.1582 0.308801 30.5598 0.22873L30.5617 0.228621C32.4978 0.120481 34.4378 0.130914 36.3695 0.259299L36.38 0.119327M11.0062 7.84582L71.3806 21.0578L71.4237 21.0143L71.7013 20.7342C71.6059 20.6396 71.5283 20.5349 71.4692 20.4245L71.4567 20.4011L71.4433 20.3781C71.4264 20.3491 71.4095 20.32 71.3925 20.291C71.3923 20.2908 71.3922 20.2905 71.392 20.2902C70.4414 18.6667 69.3567 17.1178 68.1483 15.6579L68.1419 15.6503C66.8668 14.1304 65.4785 12.7066 63.9901 11.3885C63.99 11.3885 63.99 11.3884 63.99 11.3884C61.1234 8.84985 57.8854 6.70353 54.3692 5.01898C50.1266 2.95203 45.5727 1.52076 40.8699 0.774869C39.3787 0.531429 37.8768 0.35948 36.3698 0.259316L36.38 0.119327M11.0062 7.84582L11.0129 7.85722L11.0062 7.8458C11.554 7.44168 12.1217 7.06216 12.7074 6.70851C12.7075 6.70842 12.7077 6.70834 12.7078 6.70825C13.2177 6.40037 13.7413 6.1121 14.2772 5.84426L14.2789 5.8434C18.1244 3.91525 22.2891 2.61286 26.5977 1.99277L26.5977 1.99281L26.6094 1.99103C27.9447 1.78806 29.2887 1.64791 30.6364 1.57077C30.6365 1.57077 30.6366 1.57076 30.6366 1.57076C32.5114 1.46346 34.3935 1.47811 36.2694 1.61524L10.9106 7.91676C10.9424 7.89303 10.9743 7.86938 11.0062 7.84582ZM36.38 0.119327C33.0435 -0.124671 29.6881 0.0058213 26.384 0.508065M36.38 0.119327C46.92 0.909034 56.2456 4.47802 64.1077 11.2517C67.0969 13.8227 69.6137 16.8451 71.5553 20.1956C71.6719 20.3946 71.782 20.5935 71.8791 20.8078L26.384 0.508065M26.384 0.508065C21.9175 1.15088 17.5978 2.5013 13.6066 4.50251M26.384 0.508065L13.6066 4.50251M13.6066 4.50251L13.6066 4.50254L13.6066 4.50251Z" fill="white" stroke="white" stroke-width="3"/>
<path d="M71.6644 28.2652L71.6644 28.2652C71.6644 28.2652 71.6644 28.2652 71.6644 28.2652ZM72.8296 29.2098L72.8288 29.2091L72.8296 29.2098Z" fill="white" stroke="white" stroke-width="3"/>
</svg>
