<svg width="78" height="32" viewBox="0 0 78 32" fill="none" xmlns="http://www.w3.org/2000/svg">
<path d="M0.891716 14.7456L3.03216 14.9055L5.33475 15.0776L7.14678 15.0499L10.1409 14.9148L12.7499 14.9141L16.3176 14.7403L19.2294 14.6154L23.1707 14.2413L26.7229 13.8382L29.1267 13.5285L32.7114 13.1278L37.1027 12.6242L41.2982 12.1223L45.3337 12.0162L50.81 12.0503L54.7828 12.3471L55.6216 12.6869L55.9205 13.0517L56.0511 13.4854L56.0951 14.2062L56.0539 14.7576L55.9946 15.5522L55.9412 16.2657L55.9561 16.6581M55.9604 16.7726L55.9796 17.2795L56.1328 18.2857L56.5066 19.8301L56.6807 20.7726L56.8542 21.9433L57.0271 22.902L57.3772 23.8903L57.7286 24.8623L58.1452 26.0512L58.544 27.0431L59.1715 28.2477L59.8127 29.486L60.4441 30.2018L61.0888 30.7391L61.9816 31.2298L62.6566 31.3618L63.062 31.3921L63.3672 31.2355L63.813 30.9427L64.6747 30.3222L65.6145 29.5281L66.4137 28.8703L68.3396 27.3183L69.4772 26.2782L70.4544 25.4217L71.4375 24.4842L71.8943 24.0454L71.9931 23.5962L72.027 23.1421L72.0633 22.6556L72.03 22.2292L71.6459 21.695L71.3033 21.2617L70.9715 20.6825L70.6373 20.1357L70.1003 19.2477L69.2896 18.0946L68.2689 16.6975L67.4287 15.7215L66.505 14.772L65.8651 14.1697L65.2606 13.7495L64.7023 13.3654L63.8862 13.1576L62.4203 12.9177L61.269 12.8317L60.3188 12.8911L59.0987 13.2892L58.1429 13.6417L57.5455 14.0355M55.9604 16.7726L56.3702 15.1073L57.1653 14.2862L57.5455 14.0355M55.9604 16.7726L55.9561 16.6581M57.5455 14.0355L57.3321 13.5812L57.1362 12.9306L56.9835 12.1364L56.931 11.5292L57.0243 10.2805L57.1491 8.61028L57.2448 7.32921L57.3516 6.55447L57.5209 5.81701L57.8968 4.93193L58.7133 3.60686L59.4459 2.74843L60.0818 2.09476L60.7392 1.58944L61.7005 0.943779L62.4305 0.558038L63.3434 0.561016L64.1056 0.617955L64.7704 0.667625L65.3943 0.828385L65.9473 1.06538L66.5916 1.39072L67.1775 1.84216L67.7099 2.35483L68.37 3.12164L69.2103 4.09758L69.836 5.10642L70.3844 6.06056L70.3371 6.69299L70.2741 7.53622L70.002 8.55951L69.6403 9.69026L68.9292 10.6971L68.1876 11.457L67.345 12.2583L66.4785 12.9436L65.7725 13.4453L64.6453 14.1275L63.9105 14.5781L63.0273 15.0503L62.0781 15.5338L61.0376 15.9289L59.826 16.2135L58.6168 16.4656L57.2491 16.6569L56.5446 16.7021L55.9561 16.6581M57.5455 14.0355L57.6416 14.2402L57.9426 15.0128L58.212 15.5548L58.4477 16.1105L59.0512 17.1992L59.9178 18.2586L61.0191 19.4498L61.9249 20.2023L62.8153 20.7254L63.9152 21.2805L64.7613 21.5231L65.9852 21.7287L66.9707 21.8512L68.0175 22.0273L68.9904 22.0999L70.1903 22.1896L71.2281 22.2671L71.7632 22.3071L72.5363 22.2181L73.2229 21.9759L73.7973 21.709L74.6395 21.3479L75.2686 21.0036L75.9535 20.5655L76.5708 19.9431L76.8576 19.3775L77.0297 18.8196L77.077 18.1872L76.9921 17.5775L76.6364 16.8823L76.277 16.2358L75.9603 15.6741L75.4448 14.9344L74.9521 14.3268L74.6041 13.7464L74.2634 13.0687L74.2013 12.5911L74.3325 12.1444L74.4925 11.7487L74.8004 11.1194L75.2417 10.4512L75.7952 9.80766L76.3014 9.14429L76.51 8.75221L76.5979 8.44895L76.6197 8.15706L76.4907 7.91913L76.0982 7.49845L75.6534 7.12278L75.3226 6.96761L74.8158 6.76668L74.2531 6.65942L73.5396 6.60611L72.8748 6.55644L71.9505 6.48739L71.1073 6.42439L70.1619 6.41899L69.2345 6.61061L68.1364 6.90362L66.9074 7.20316L65.7234 7.55498L64.9382 7.80614L64.0996 8.11854L63.0993 8.63084L62.2461 9.13783L61.1141 9.8849L60.1718 10.7114L59.4922 11.2965L58.7542 12.0078L58.3177 12.6112L57.7983 13.4529L57.5455 14.0355Z" stroke="white"/>
</svg>
