<svg width="72" height="22" viewBox="0 0 72 22" fill="none" xmlns="http://www.w3.org/2000/svg">
<path d="M30.663 2.75801C30.7991 2.99039 31.0261 2.99341 31.2238 3.0598C32.6003 3.43814 33.927 3.95844 35.1793 4.61102C36.1572 5.11451 37.0481 5.75241 37.8217 6.50323C38.4163 7.07185 38.8856 7.74343 39.2028 8.47999C39.4185 8.96132 39.4999 9.48559 39.4395 10.0041C39.3832 10.4111 39.2284 10.801 38.987 11.1444C38.7455 11.4878 38.4236 11.7758 38.0453 11.9868C37.3614 12.3705 36.6038 12.6268 35.8147 12.7413C33.6417 13.1247 31.4066 13.0815 29.2526 12.6145C28.5529 12.4655 27.8809 12.2204 27.2587 11.8872C26.2067 11.3352 25.4017 10.4509 24.9892 9.39443C24.5722 8.42617 24.4164 7.37756 24.5353 6.34029C24.6375 5.60235 24.9203 4.89609 25.362 4.276C25.4885 4.09794 25.6862 3.95308 25.6862 3.67241C25.6252 3.63333 25.5571 3.60474 25.4853 3.58794C24.7201 3.5306 23.9517 3.43402 23.1833 3.431C20.502 3.431 17.8176 3.38874 15.1396 3.45815C13.2299 3.50644 11.3235 3.6845 9.42037 3.83841C7.69122 3.97724 5.97617 4.14222 4.27512 4.33336C3.03661 4.47218 1.80779 4.68041 0.57577 4.85243C0.420277 4.87597 0.263184 4.88908 0.105674 4.89167C0.0700099 4.89167 0.0181165 4.83434 0.00514785 4.79511C-0.00782077 4.75588 0.00517001 4.67739 0.0278651 4.6623C0.174478 4.56226 0.336165 4.48292 0.507697 4.42689C1.56464 4.19753 2.61836 3.92896 3.68827 3.77505C5.39364 3.52758 7.10869 3.35856 8.82054 3.15334C10.0817 3.00244 11.343 2.83343 12.6074 2.69461C13.8719 2.55578 15.2012 2.39282 16.498 2.32341C19.0678 2.1504 21.6453 2.09802 24.2208 2.16647C25.1221 2.19967 26.0234 2.25702 26.9247 2.33247C27.2388 2.37568 27.5594 2.31706 27.8326 2.16647C29.6125 1.16452 31.5805 0.675611 33.6101 0.355711C34.9747 0.162132 36.351 0.0482326 37.7309 0.0146834C40.2559 -0.0708165 42.7794 0.217488 45.2073 0.868781C46.959 1.36701 48.7438 1.75817 50.5504 2.03974C51.9672 2.23892 53.3872 2.42604 54.8105 2.5709C58.6171 2.91239 62.4412 3.05644 66.2651 3.00244C69.1603 3.00244 72.0556 3.00245 74.9508 2.97529C78.3778 2.95115 81.8014 2.9119 85.2284 2.88474C85.4845 2.88474 85.7406 2.88476 86 2.9089C86 3.16241 85.8217 3.18655 85.6758 3.2107C84.4632 3.47929 83.2539 3.77202 82.0316 3.98931C80.2513 4.26996 78.4516 4.43032 76.6464 4.46915C71.6827 4.67437 66.7157 4.61705 61.7519 4.57179C58.8839 4.53917 56.0201 4.35983 53.1732 4.03459C50.3534 3.72061 47.5657 3.19376 44.8376 2.45924C43.4146 2.05624 41.9496 1.7952 40.4672 1.68059C39.3544 1.61471 38.2385 1.60464 37.1245 1.65041C35.5315 1.69782 33.9473 1.88987 32.3943 2.22383C31.9793 2.31437 31.5708 2.41999 31.1655 2.52562C30.9919 2.59117 30.8239 2.66886 30.663 2.75801ZM32.8676 11.3531C33.8863 11.3876 34.9049 11.286 35.8925 11.0513C36.2272 10.9747 36.553 10.8675 36.8652 10.7314C37.6822 10.3601 37.8962 9.80788 37.559 9.01115C37.3632 8.5772 37.0915 8.17642 36.755 7.82509C36.23 7.26454 35.6206 6.77766 34.9458 6.37952C34.0844 5.84232 33.1543 5.40738 32.177 5.08482C31.0228 4.71663 29.8491 4.40882 28.6787 4.0859C28.5469 4.02572 28.4003 3.99931 28.2538 4.00939C28.1074 4.01946 27.9665 4.06565 27.8456 4.14323C26.8729 4.89771 26.1823 5.80008 26.2245 7.05856C26.249 7.6035 26.3582 8.14224 26.5487 8.65804C26.6927 9.08479 26.932 9.47836 27.2511 9.81282C27.5702 10.1473 27.9617 10.4151 28.3999 10.5986C28.8329 10.7844 29.2833 10.9329 29.7454 11.0422C30.7656 11.2804 31.8165 11.385 32.8676 11.3531Z" fill="#A5594B"/>
</svg>
