<svg width="120" height="158" viewBox="0 0 120 158" fill="none" xmlns="http://www.w3.org/2000/svg">
<path d="M99.5 83.0513L100.374 83.3051C101.105 83.4687 101.804 83.7515 102.443 84.1421C102.813 84.364 103.135 84.6582 103.389 85.0071C103.643 85.356 103.824 85.7524 103.922 86.1727C104.04 86.7141 104.123 87.2627 104.169 87.8149C104.32 89.4419 104.441 91.0741 104.574 92.7004C104.588 92.8959 104.608 93.0884 104.605 93.2832C104.59 94.64 104.569 95.998 104.542 97.3571C104.54 98.3081 104.22 99.2311 103.633 99.9798C103.138 100.614 102.664 101.264 102.159 101.887C101.461 102.759 100.515 103.399 99.4461 103.723C98.1165 104.199 96.7439 104.545 95.3475 104.756C94.6822 104.839 94.0581 105.123 93.5586 105.571C93.0316 106.023 92.4975 106.468 91.9774 106.926C90.8211 107.883 89.5042 108.627 88.0879 109.123C87.2128 109.407 86.2785 109.454 85.3791 109.262C85.1874 109.233 85 109.174 84.8094 109.141C83.2155 108.856 82.1231 107.915 81.346 106.533C81.2412 106.343 81.127 106.154 80.9978 105.925C80.7254 106.082 80.4972 106.224 80.2537 106.358C79.471 106.771 78.6976 107.214 77.8957 107.586C76.6131 108.139 75.1886 108.275 73.8246 107.973C73.2556 107.84 72.7128 107.614 72.2184 107.302C70.8911 106.613 69.6256 105.811 68.436 104.905C68.0314 104.614 67.6126 104.344 67.1811 104.095C67.0676 104.027 66.944 103.978 66.8393 103.925C66.6392 104.062 66.7324 104.201 66.7906 104.307C67.1878 105.109 67.3035 106.021 67.1189 106.897C67.0005 107.72 66.804 108.53 66.5321 109.315C66.2527 110.124 65.9824 110.886 65.6815 111.661C65.3967 112.387 64.9853 113.057 64.4665 113.639C63.7693 114.436 63.1519 115.3 62.6235 116.217C62.3267 116.718 62.0229 117.213 61.6847 117.688C61.4043 118.101 61.0919 118.49 60.7503 118.853C60.4012 119.214 59.9785 119.494 59.5112 119.676C59.0438 119.858 58.5427 119.937 58.0421 119.908C57.6606 119.836 57.2669 119.866 56.9006 119.995C56.78 120.057 56.5774 119.99 56.4191 119.953C55.722 119.772 55.0543 119.493 54.4363 119.123C52.4531 118 50.6061 116.651 48.9321 115.105C47.0963 113.429 45.781 111.26 45.1427 108.858C44.9471 108.107 44.7957 107.342 44.6189 106.588C44.5676 106.382 44.4921 106.182 44.4042 105.903C44.2649 106.026 44.1355 106.159 44.017 106.302C43.4191 107.112 42.5831 107.715 41.6257 108.027C40.92 108.267 40.2061 108.504 39.4799 108.738C38.5806 110.425 37.6549 112.127 36.7638 113.847C35.64 116.016 34.6264 118.234 33.6444 120.467C31.7042 124.98 30.1431 129.648 28.9772 134.421C28.3106 137.082 27.7191 139.762 27.2395 142.469C26.9248 144.241 26.5586 146.008 26.2943 147.79C25.9574 150.067 25.6939 152.353 25.4091 154.649C25.2807 155.689 25.1945 156.735 25.0098 157.785C24.9792 157.618 24.9599 157.449 24.9522 157.279C24.945 153.231 25.1856 149.186 25.6728 145.168C26.1615 141.288 26.8655 137.439 27.7815 133.637C28.2637 131.61 28.812 129.604 29.4267 127.621C30.0212 125.712 30.7364 123.847 31.505 121.998C32.6002 119.36 33.8332 116.782 35.1989 114.273C35.823 113.12 36.488 112.01 37.1249 110.874C37.2186 110.688 37.3023 110.497 37.3755 110.302C37.2526 110.286 37.1285 110.283 37.0049 110.292C36.1347 110.462 35.2516 110.556 34.3653 110.575C33.9768 110.596 33.5883 110.616 33.2002 110.681C32.6739 110.746 32.1711 110.937 31.735 111.239C31.4808 111.409 31.2308 111.581 30.9678 111.736C30.4819 112.015 29.9072 112.097 29.3628 111.964C28.3939 111.711 27.4756 111.294 26.6478 110.731C25.9386 110.297 25.297 109.761 24.7434 109.141C24.1013 108.412 23.4527 107.69 22.8329 106.945C22.1764 106.081 21.3223 105.388 20.3425 104.922C19.547 104.57 18.9162 103.927 18.5786 103.125C18.4869 102.92 18.3939 102.72 18.285 102.528C17.1888 100.59 16.9999 98.485 17.1303 96.3212C17.1519 96.0458 17.1927 95.7723 17.2524 95.5027C17.3963 94.8239 17.5565 94.1499 17.7126 93.4747C17.8914 92.6024 18.2541 91.7783 18.7765 91.0572C19.2989 90.3362 19.9689 89.7348 20.742 89.293C20.8344 89.2353 20.9168 89.1658 20.9733 89.1244C21.0364 88.907 20.886 88.8278 20.7896 88.7464C20.1666 88.1962 19.5489 87.6432 18.9012 87.117C18.3262 86.635 17.6251 86.3279 16.881 86.2321C16.2506 86.1358 15.6356 85.9571 15.0517 85.7007C14.2401 85.3395 13.3767 85.1082 12.4932 85.0153C11.612 84.9149 10.744 84.7209 9.90384 84.4366L8.5462 84.0422C7.86954 83.8536 7.28822 83.4181 6.91708 82.8217C6.27355 81.7452 5.63408 80.6699 5.01926 79.6017C4.62837 78.8645 4.38827 78.0569 4.31288 77.2259C4.10804 75.8548 4.00918 74.4699 4.01728 73.0836C4.03029 72.391 3.9303 71.7009 3.72124 71.0405L3.09901 68.8804C2.8272 67.9478 2.69915 66.9792 2.71924 66.008C2.72362 64.2635 2.8781 62.5226 3.18107 60.8046C3.56726 58.7221 4.46496 56.7681 5.7935 55.1185C6.24038 54.5147 6.81621 54.018 7.47908 53.6645C7.57702 53.6029 7.66799 53.5309 7.75047 53.4498C7.20414 52.6817 6.66704 51.943 6.14756 51.205C5.40956 50.1322 4.66746 49.0581 3.9759 47.9632C3.08255 46.5275 2.33234 45.0075 1.73605 43.4251C1.52457 42.884 1.34202 42.3321 1.18902 41.7717C0.887672 40.6958 0.902272 39.5559 1.2311 38.488C1.42532 37.8195 1.67166 37.1705 1.9016 36.5167C2.28298 35.4488 2.71067 34.3899 3.05991 33.2949C3.23163 32.6806 3.35983 32.0549 3.44363 31.4226C3.52548 30.9571 3.55163 30.4843 3.63229 30.0229C3.72791 29.2483 3.9812 28.5014 4.37653 27.8284C4.86093 27.0795 5.36552 26.292 5.88921 25.5457C6.38643 24.8357 7.07342 24.2799 7.87166 23.9421C8.53646 23.6593 9.19887 23.3847 9.88285 23.1431C10.359 22.9895 10.8133 22.7745 11.2339 22.5036C12.9175 21.3561 14.8941 20.7141 16.9306 20.6535C17.4823 20.6225 18.0334 20.578 18.5833 20.5376C19.3885 20.4934 20.1833 20.3349 20.9439 20.0669C21.6023 19.8267 22.3234 19.8209 22.9856 20.0506C23.3301 20.1507 23.6747 20.2508 24.0061 20.396C24.7942 20.6923 25.44 21.2775 25.8124 22.0327C26.3157 22.9611 26.6486 23.9722 26.7953 25.0181C26.8525 25.4795 26.8811 25.9015 26.9308 26.3429C26.9518 26.5002 26.9917 26.6541 27.0518 26.983C27.109 26.8521 27.157 26.7174 27.1955 26.5799C27.4112 25.0413 27.6093 23.5021 27.8414 21.9683C28.0155 20.8179 28.2628 19.6755 28.4327 18.5239C28.5549 17.7054 28.6401 16.8762 28.7065 16.0503C28.761 15.0537 28.8697 14.0608 29.0324 13.076C29.2549 12.0151 29.6679 11.0033 30.2513 10.0897C31.5208 7.91337 33.4862 6.22804 35.8307 5.30552C36.6419 4.93495 37.5397 4.79558 38.4251 4.90274C39.2255 5.00945 40.04 4.904 40.7868 4.59691C41.7463 4.22919 42.7613 4.02766 43.7885 4.00107C44.7269 3.91913 45.6695 3.89585 46.6108 3.93136C47.1958 3.96505 47.7639 4.13984 48.2667 4.44079C48.7694 4.74175 49.1919 5.15994 49.498 5.65963C49.8367 6.16884 50.0867 6.73174 50.2375 7.32446L50.4068 8.0275C50.5326 7.98559 50.6518 7.92584 50.7607 7.8501C51.5564 7.06728 52.5428 6.50593 53.6222 6.22165C54.3119 6.02168 54.9918 5.77886 55.6404 5.56698C55.693 5.52232 55.7404 5.47196 55.7819 5.41682C56.3329 4.28258 57.2679 3.3802 58.421 2.86977C60.2044 1.96199 62.1403 1.39186 64.131 1.18814C64.8207 1.12605 65.5045 1.05338 66.1949 0.942596C66.7266 0.838191 67.274 0.843534 67.8036 0.95836C68.3332 1.07319 68.8337 1.29505 69.2744 1.61031C70.2932 2.32883 71.3315 3.0263 72.2884 3.82023C73.6968 4.97138 74.6469 6.58841 74.967 8.37905C75.0168 8.65151 75.0773 8.91815 75.1331 9.1701C75.4633 9.3194 75.703 9.12214 75.951 9.03405C76.8675 8.70304 77.8514 8.60241 78.8159 8.74099C80.4047 8.89553 81.8935 9.58687 83.0367 10.701C83.6693 11.331 84.467 11.7693 85.338 11.9655C85.7704 12.0665 86.2112 12.1275 86.6548 12.1479C87.4295 12.1994 88.1839 12.4186 88.8656 12.7901C89.578 13.1667 90.3417 13.4365 91.1325 13.591C91.6776 13.7048 92.2116 13.8422 92.7543 13.9642C92.9723 14.0061 93.1777 14.0975 93.3548 14.2315C93.5318 14.3654 93.6757 14.5383 93.7752 14.7367C93.9802 15.0967 94.2059 15.4444 94.4512 15.7782C94.7154 16.1077 94.8481 16.5234 94.8238 16.945C94.6776 18.1524 95.292 19.0693 95.9293 19.9838C96.1787 20.3498 96.44 20.7059 96.6936 21.0732C97.2137 21.8324 97.5263 22.7144 97.6004 23.6317C97.6172 23.819 97.6516 24.0069 97.6898 24.2581C97.8804 24.2189 98.068 24.1664 98.2513 24.101C98.7554 23.8941 99.3131 23.8568 99.8403 23.9947C100.367 24.1326 100.836 24.4382 101.174 24.8655C101.677 25.492 102.19 26.1126 102.717 26.7192C103.573 27.7088 104.192 28.8806 104.528 30.1454C104.663 30.6295 104.79 31.1111 104.917 31.5928C105.105 32.3208 105.473 32.9895 105.989 33.5366C106.459 34.0467 106.912 34.5697 107.389 35.0729C109.024 36.7933 109.61 38.8629 109.437 41.1878C109.302 42.9855 109.176 44.7815 109.046 46.5763C109.036 46.7334 109.042 46.8954 109.037 47.0808C109.164 47.0731 109.261 47.0923 109.315 47.0591C109.767 46.7846 110.298 46.671 110.823 46.7366C111.128 46.7404 111.429 46.8144 111.701 46.9528C111.973 47.0913 112.21 47.2905 112.393 47.535C112.548 47.7312 112.688 47.9385 112.813 48.1552C113.118 48.6353 113.376 49.1105 113.649 49.5946C114.457 51.0493 115.369 52.4439 116.377 53.7676C117.17 54.8069 117.766 55.9825 118.136 57.2364C118.347 57.9263 118.484 58.637 118.543 59.3562C118.616 60.0711 118.715 60.785 118.812 61.4936C118.908 62.2022 119.034 62.9191 119.171 63.6261C119.277 64.2817 119.426 64.9297 119.617 65.566C120.292 67.5902 119.841 69.3894 118.626 71.0603C118.188 71.6709 117.64 72.1936 117.009 72.601C116.219 73.1144 115.414 73.6054 114.582 74.0489C113.603 74.5697 112.602 75.0481 111.594 75.516C110.118 76.2224 108.686 77.0169 107.305 77.895C107.232 77.935 107.162 77.9801 107.096 78.0302C105.284 79.4163 103.288 80.5134 101.376 81.706C100.833 82.0463 100.316 82.4166 99.7922 82.7804C99.6633 82.8719 99.5004 82.958 99.5213 83.1465C99.3415 83.2086 99.1689 83.2896 99.0063 83.3883C98.5441 83.7389 98.0937 84.1106 97.6374 84.4718C96.6566 85.2428 95.5748 85.8758 94.4223 86.3533C94.0454 86.529 93.648 86.6571 93.2395 86.7348C91.9027 86.9651 90.5413 87.0183 89.1906 86.893C89.0047 86.8745 88.8135 86.8901 88.5594 86.8919C88.6124 87.0062 88.6742 87.1164 88.744 87.2213C89.3742 88.0325 90.0867 88.7761 90.8703 89.4402C91.3298 89.7812 91.6891 90.2395 91.9107 90.7672C92.1322 91.2948 92.2078 91.8723 92.1295 92.4392C92.0246 93.4584 91.8507 94.4709 91.7417 95.489C91.6938 96.0027 91.5197 96.4966 91.2349 96.9268C90.9501 97.357 90.5634 97.7101 90.1092 97.9548C89.625 98.2589 89.1352 98.4903 88.6512 98.7633C87.2927 99.5508 85.6869 99.7961 84.1553 99.4499C83.4714 99.3017 82.7572 99.398 82.137 99.7221C81.7341 99.9171 81.4016 100.232 81.1855 100.624C81.0893 100.745 81.0423 100.898 81.0535 101.052C81.0648 101.206 81.1337 101.35 81.2464 101.456C81.3713 101.608 81.5156 101.739 81.6481 101.88C81.8276 102.052 81.9976 102.233 82.1573 102.423C82.7028 103.133 82.9443 103.986 82.137 104.913C81.9766 105.097 81.8291 105.268 81.6668 105.474C81.7156 105.582 81.7329 105.676 81.7849 105.727C82.3294 106.241 82.8456 106.791 83.4338 107.247C84.0529 107.721 84.7721 108.047 85.5366 108.202C86.3011 108.356 87.0907 108.334 87.8453 108.137C89.2648 107.833 90.5809 107.166 91.6638 106.199C92.1964 105.713 92.7528 105.252 93.3052 104.79C93.8273 104.322 94.4862 104.035 95.1844 103.97C96.5605 103.807 97.9151 103.497 99.225 103.045C100.141 102.801 100.945 102.249 101.502 101.482C101.894 100.947 102.245 100.364 102.603 99.8227C103.121 99.0251 103.369 98.0816 103.309 97.1322C103.27 96.4403 103.266 95.7497 103.255 95.0527C103.217 92.5331 103.113 90.0122 103.197 87.4744C103.203 87.3362 103.201 87.1977 103.192 87.0596C103.166 86.7538 103.138 86.4521 103.094 86.1415C103.051 85.8511 102.947 85.5731 102.789 85.3256C102.631 85.0782 102.423 84.8668 102.177 84.7053C101.729 84.3791 101.233 84.124 100.707 83.949C100.387 83.8561 100.067 83.7632 99.7579 83.6333C99.4487 83.5034 99.4456 83.2846 99.5 83.0513ZM94.0417 33.6776C94.0067 33.7113 93.975 33.7482 93.9473 33.7881C93.9413 33.8086 93.9617 33.8457 93.9669 33.8738C93.9696 33.8496 93.9764 33.826 93.9871 33.8041C93.999 33.7631 94.0122 33.718 94.0487 33.6841C93.8661 33.5777 93.9566 33.2659 93.7029 33.2056C93.8641 32.5585 93.522 32.0366 93.2869 31.4835C92.688 30.9115 92.1776 30.2536 91.7725 29.5313C91.7177 29.4689 91.6566 29.4125 91.5902 29.3627C91.3529 29.127 91.1773 28.8366 91.0785 28.5171C90.9798 28.1976 90.961 27.8587 91.0239 27.5303C91.0476 27.3414 91.1053 27.158 91.1521 26.9359C90.639 26.7184 90.1942 26.3664 89.8648 25.917C89.4835 25.3614 89.1104 24.8083 88.6997 24.2931C88.2889 23.7779 87.8765 23.2533 87.4328 22.7597C87.243 22.5601 87.0164 22.3992 86.7655 22.2856C85.056 21.4644 83.2785 21.0147 81.3718 21.4082L81.2844 21.4184C80.16 21.5847 79.019 21.6075 77.8889 21.4862C76.5625 21.3639 75.225 21.4978 73.9492 21.8807C73.4789 21.9559 73.0497 22.1931 72.7359 22.5513C72.6821 22.6291 72.5478 22.6479 72.4537 22.6961C72.3596 22.7444 72.2549 22.7985 72.3457 22.9761C72.9817 22.9607 73.6423 22.9525 74.2954 22.9242C74.4623 22.8944 74.6254 22.8464 74.7818 22.7809C75.2336 22.6497 75.6785 22.4809 76.14 22.3926C78.0671 22.0361 79.8977 22.1498 81.4386 23.5671C81.6648 23.7735 81.9315 23.9304 82.2219 24.0277C82.5122 24.1251 82.8196 24.1607 83.1245 24.1324C83.3727 24.12 83.6238 24.1129 83.8714 24.1181C84.0648 24.107 84.2587 24.1273 84.4455 24.1781C85.2953 24.514 86.151 24.8604 86.7296 25.6245C87.1188 26.1298 87.5643 26.589 88.0576 26.9933L89.7714 28.4429C90.6632 29.1454 91.4489 29.9729 92.1043 30.8998C92.6148 31.6841 93.1942 32.4306 93.7429 33.1905C93.7272 33.5507 93.7464 33.5918 94.0417 33.6776ZM45.3398 70.147L45.3862 69.9871C45.3862 69.9871 45.3287 70.0015 45.3316 70.0068C45.3382 70.0516 45.3476 70.0959 45.3598 70.1395C45.445 70.4889 45.5168 70.8389 45.6168 71.1838C45.8053 71.8212 46.0366 72.4488 46.2009 73.0926C46.4975 74.2732 46.9086 75.422 47.4284 76.5227C47.8982 77.6463 48.4921 78.714 49.199 79.7058C49.6914 80.3381 50.0602 81.059 50.5066 81.7268C50.9688 82.3893 51.5637 82.9484 52.2536 83.3686C52.697 83.6486 53.1393 83.9328 53.5905 84.2017C53.8895 84.4028 54.2038 84.5803 54.5304 84.7327C56.284 85.495 58.0845 86.1443 59.921 86.6767C61.2837 87.0469 62.675 87.3023 64.0803 87.4401C65.0206 87.5079 65.9561 87.6312 66.8819 87.8092C68.4497 88.1535 70.0138 88.5411 71.5524 89.0014C72.6925 89.3602 73.9081 89.406 75.072 89.1342C75.4737 89.0374 75.8802 88.9242 76.2749 88.8209C77.2627 88.5161 78.1428 87.9354 78.8116 87.1471C79.3634 86.5109 79.6436 85.6836 79.5921 84.843C79.5826 84.6498 79.5348 84.4606 79.4514 84.2862C79.4035 84.185 79.3312 84.0972 79.2412 84.0307C79.1511 83.9641 79.0458 83.9209 78.935 83.9049C78.8031 83.9047 78.6719 83.9235 78.5453 83.9607C78.7659 85.0078 78.3209 85.728 77.5965 86.3538C77.1548 86.7356 76.6398 87.0234 76.0832 87.1996C74.8682 87.585 73.6404 87.9534 72.4307 88.3358C71.8942 88.4921 71.3216 88.4709 70.7982 88.2753C70.1354 88.0649 69.5223 87.7219 68.9963 87.267C68.4009 86.7161 67.6319 86.3904 66.822 86.3462C66.6026 86.3359 66.382 86.3297 66.1597 86.314C65.2918 86.2398 64.4514 86.178 63.594 86.098C63.0799 86.0517 62.5849 85.8807 62.1519 85.5999C61.7188 85.3191 61.3607 84.9369 61.1088 84.4865C60.924 84.1775 60.7602 83.8565 60.6185 83.5256C60.5005 83.2734 60.4095 83.0201 60.3098 82.751C60.1107 82.2245 59.7196 81.793 59.2151 81.5434C58.8756 81.3647 58.5232 81.2 58.166 81.0518C57.3629 80.7258 56.6935 80.138 56.2665 79.3837C55.9281 78.7772 55.6517 78.1381 55.4418 77.4761C55.2595 76.925 55.073 76.3726 54.8678 75.8237C54.6932 75.323 54.3802 74.882 53.9652 74.5519C53.1036 73.852 52.1332 73.2982 51.0925 72.9123L47.8529 71.8156C46.9319 71.5753 46.1266 71.0149 45.5811 70.2349C45.5625 70.2072 45.4293 70.1908 45.3398 70.147ZM43.3092 80.7658C41.6549 80.1792 40.0537 79.4522 38.5233 78.5927C38.3529 78.5003 38.1727 78.4271 37.9862 78.3744C37.4604 78.2006 36.9594 77.9594 36.4956 77.6567C34.5617 76.4649 32.702 75.1567 30.9265 73.7394C29.5913 72.7477 28.3936 71.5831 27.3648 70.2762C27.0724 69.9069 26.7567 69.5567 26.4196 69.2277C26.2148 69.0039 25.9872 68.8022 25.7405 68.6257C24.3994 67.7409 23.0519 66.8676 21.6981 66.0058C20.6026 65.3025 19.5867 64.4824 18.6681 63.56C17.8207 62.7208 16.9591 61.8997 16.0834 61.0967C15.4449 60.5156 14.8902 59.8485 14.4354 59.1146C14.0457 58.481 13.6201 57.8636 13.1722 57.262C12.4408 56.289 11.6871 55.3317 10.9297 54.3866C10.8181 54.2682 10.6698 54.1907 10.5088 54.1665C9.79196 54.0951 9.06832 54.1371 8.3645 54.2909C7.92465 54.3688 7.52032 54.5827 7.20838 54.9025C6.99469 55.1195 6.79204 55.3471 6.60111 55.5845C5.28412 57.2458 4.44112 59.2326 4.16144 61.3341C3.94299 63.0657 3.88185 64.8136 3.97876 66.5562C4.01803 67.109 4.1155 67.6562 4.26956 68.1885C4.45587 68.9099 4.67913 69.6419 4.91308 70.337C5.20805 71.2898 5.38936 72.2741 5.45331 73.2694C5.53103 74.533 5.7172 75.8058 5.86531 77.072C5.92494 77.6813 6.10185 78.2734 6.38624 78.8156C6.92803 79.8137 7.50685 80.7913 8.06982 81.7777C8.28879 82.1336 8.62338 82.4035 9.01752 82.5423C10.194 83.0414 11.4351 83.372 12.704 83.5242C13.7761 83.6608 14.8223 83.9542 15.8091 84.3951C16.1606 84.5595 16.5356 84.6685 16.9206 84.718C18.118 84.8203 19.2471 85.3188 20.1293 86.1349C20.6682 86.6072 21.2164 87.0779 21.7476 87.5613C22.1767 87.9695 22.7131 88.2472 23.2941 88.362C24.1062 88.5431 24.9409 88.6012 25.7703 88.5342C26.6495 88.4471 27.5408 88.4258 28.4122 88.2741C30.567 87.8993 32.7201 87.5151 34.8572 87.0329C36.2843 86.7135 37.6839 86.2439 39.0955 85.84C39.5791 85.715 40.0377 85.5083 40.4516 85.2287L41.6288 84.392C41.7704 83.7545 41.9596 83.1285 42.1949 82.5193C42.5243 81.9091 42.8967 81.3232 43.3092 80.7658ZM28.079 46.2293C28.2274 45.9141 28.3018 45.569 28.2965 45.2206C28.3243 44.4972 28.4013 43.7765 28.5271 43.0637C28.8985 41.4636 29.0636 39.8391 29.3236 38.2244C29.5639 36.9936 29.458 35.7203 29.0178 34.5461C28.9788 34.4429 28.9472 34.3371 28.923 34.2295C28.584 32.8828 27.9932 31.6125 27.1818 30.4856C26.6926 29.7964 26.2457 29.1151 25.3956 28.8414C25.3686 28.8316 25.3443 28.8154 25.3248 28.7942C24.6571 28.2531 23.8158 27.9724 22.9569 28.004C22.3785 27.9622 21.7978 28.042 21.2521 28.2382C20.6089 28.5042 19.9098 28.6067 19.2173 28.5367C18.6372 28.4972 18.0564 28.5064 17.4755 28.5156C17.1279 28.5244 16.7857 28.6038 16.4697 28.7491C16.1538 28.8943 15.8707 29.1024 15.6378 29.3606C15.3331 29.6823 15.0555 30.0286 14.8077 30.396C14.1922 31.3508 13.6602 32.3571 13.2179 33.4035C12.8123 34.3767 12.4743 35.3768 12.2062 36.3966C11.8432 37.65 11.2303 38.817 10.4045 39.8274C9.89922 40.4381 9.52442 41.1459 9.30329 41.9071C9.08217 42.6683 9.01941 43.4668 9.11888 44.2532C9.17369 44.8607 9.28365 45.4619 9.34786 46.0677C9.65389 48.8053 10.5677 51.4399 12.0225 53.779C12.2908 54.1985 12.5855 54.6005 12.9048 54.9827C13.8266 56.0525 14.6767 57.1821 15.4496 58.3639C15.8562 59.0258 16.3607 59.6223 16.9461 60.133C17.5848 60.7055 18.247 61.2582 18.8415 61.8757C20.3109 63.3448 21.9454 64.639 23.7123 65.7325C23.8802 65.8219 24.0529 65.9017 24.2298 65.9717L24.1152 65.4937C23.9219 64.628 23.7004 63.7675 23.5341 62.9008C23.377 62.082 23.3606 61.2424 23.4858 60.4182C23.5475 59.9913 23.6328 59.5446 23.6981 59.1055C23.9098 57.8443 23.8769 56.5542 23.6011 55.3055C23.4731 54.7968 23.3598 54.2835 23.2665 53.7627C23.0343 52.6155 23.1005 51.4279 23.4589 50.3137C23.6682 49.685 23.8869 49.0547 24.1167 48.4321C24.6049 47.1929 25.0028 45.9201 25.3075 44.6236C25.3818 44.276 25.4245 43.9148 25.4742 43.5601C25.4856 43.4636 25.5237 43.3723 25.5843 43.2963C25.6449 43.2204 25.7255 43.1629 25.817 43.1304C25.9092 43.0951 26.0103 43.0909 26.1051 43.1184C26.1998 43.1459 26.2831 43.2037 26.342 43.2829C26.466 43.4007 26.5771 43.5314 26.6735 43.6727C26.8664 43.9734 27.058 44.2781 27.2326 44.5957C27.5081 45.0405 27.7663 45.5603 28.1002 46.2177L28.079 46.2293ZM41.3572 85.5718C40.2737 86.5914 39.0598 86.866 37.8696 87.2274C37.2028 87.4251 36.5523 87.6588 35.9049 87.8665C35.3226 88.0488 34.7426 88.2539 34.1501 88.3798C31.7259 88.956 29.2741 89.4091 26.8041 89.7374C25.263 89.9138 23.7037 89.8452 22.1842 89.534C22.0387 89.4989 21.8869 89.4988 21.7414 89.5339C21.5959 89.5689 21.4608 89.6381 21.3472 89.7357C20.5288 90.3572 19.8292 91.1214 19.2821 91.9913C19.0426 92.3643 18.8512 92.7659 18.7124 93.1869C18.4412 94.0288 18.218 94.8891 17.9947 95.7494C17.9387 95.9636 17.9033 96.1828 17.8891 96.4037C17.6839 98.7983 18.2516 101.196 19.5092 103.244C19.7403 103.658 20.0987 103.987 20.5312 104.181C21.7471 104.732 22.8149 105.563 23.6469 106.607C24.188 107.24 24.7549 107.846 25.3307 108.466C26.2569 109.426 27.3746 110.179 28.6111 110.678C28.976 110.879 29.3947 110.96 29.8081 110.91C30.2215 110.86 30.6089 110.682 30.9157 110.4C31.7378 109.726 32.7529 109.331 33.8142 109.272L34.7263 109.194L35.6372 109.121C36.3866 109.067 37.0451 108.867 37.4344 108.14C37.4487 108.115 37.4671 108.093 37.4887 108.075C37.8664 107.588 38.4122 107.26 39.0194 107.154C39.7205 107.007 40.4096 106.793 41.1068 106.613C42.005 106.389 42.7827 105.828 43.2787 105.047C43.4499 104.794 43.6211 104.541 43.7917 104.306C43.8894 104.173 43.959 104.021 43.9959 103.859C44.0328 103.698 44.0364 103.531 44.0066 103.368C43.9195 102.764 43.8605 102.156 43.8269 101.537C43.7247 99.7646 43.4487 98.0069 43.0029 96.2889C42.7053 95.1394 42.406 93.9805 42.0601 92.8437C41.6307 91.4944 41.4049 90.0887 41.3904 88.6728C41.3896 87.9253 41.3794 87.1795 41.375 86.4444C41.3832 86.2021 41.3788 85.9873 41.3831 85.5438L41.3572 85.5718ZM57.5573 57.3635C57.1795 56.9311 56.9056 56.4179 56.7567 55.8632C56.4678 55.1121 56.1831 54.3623 55.8584 53.6274C55.3739 52.5393 54.8482 51.4703 54.3479 50.3909C54.1457 49.9629 53.8491 49.5863 53.4804 49.2894C53.1238 48.9857 52.7661 48.686 52.406 48.3946C51.7867 47.9105 51.3851 47.2003 51.2894 46.4201C51.2405 46.0678 51.1805 45.7079 51.0993 45.3596C51.0051 45.0106 50.8354 44.6865 50.602 44.4104C50.3686 44.1343 50.0773 43.9129 49.7488 43.7619C49.6145 43.6947 49.4681 43.6549 49.3183 43.645C49.1684 43.635 49.0181 43.6551 48.8761 43.7041C48.6399 43.7823 48.4129 43.8898 48.1854 43.9839C47.6823 44.1847 47.2226 44.4203 46.7295 44.6018C45.9948 44.8627 45.2952 45.2138 44.6468 45.6469C43.6847 46.3103 43.1721 46.1303 42.8087 44.9929C42.6029 44.3316 42.4561 43.6533 42.37 42.9662C42.2672 42.2024 42.2489 41.4232 42.2078 40.6462C42.1664 39.7335 42.0236 38.8283 41.7821 37.9472C41.5883 37.1959 41.2454 36.4913 40.7739 35.8751C40.3036 35.2558 39.9303 34.5685 39.667 33.8367C39.5063 33.4253 39.3415 33.0127 39.135 32.6058C38.8475 32.0037 38.407 31.4877 37.8574 31.1093C37.4887 30.8087 37.0353 30.6304 36.5604 30.5993C36.0856 30.5681 35.613 30.6858 35.2081 30.9358C34.7787 31.1891 34.3679 31.4701 33.9443 31.734C33.8382 31.7992 33.7496 31.8892 33.6859 31.9962C33.6223 32.1032 33.5856 32.2241 33.5791 32.3484C33.5282 32.8452 33.4773 33.3419 33.3801 33.8296C33.1277 35.0506 32.8659 36.2734 32.5807 37.4848C32.3882 38.1821 32.3847 38.9179 32.5706 39.6169C32.7656 40.2868 32.7774 40.9968 32.6049 41.6729C32.4936 42.1044 32.5002 42.5579 32.6238 42.986C32.7286 43.4153 32.8684 43.8353 33.0418 44.2417C33.4742 45.1724 33.953 46.0809 34.4054 47.0041C34.6402 47.4776 35.0045 47.8748 35.4558 48.1499C35.8729 48.4134 36.2688 48.7196 36.6682 49.0136C37.0747 49.2854 37.4021 49.6597 37.6174 50.0988C37.8328 50.5378 37.9283 51.0259 37.8944 51.5137C37.8907 51.5686 37.8911 51.6237 37.8955 51.6786C37.9785 53.3294 38.6638 54.8925 39.8215 56.0721C40.1826 56.4148 40.5223 56.7794 40.8387 57.1638C42.4224 59.2295 43.9932 61.3093 45.0526 63.7254C45.1194 63.8782 45.1874 64.0269 45.2648 64.174C45.4824 64.5886 45.5314 64.6339 45.9765 64.5408C46.3576 64.4715 46.748 64.4704 47.1294 64.5377C47.8174 64.6242 48.4874 64.8188 49.1146 65.1144C49.8317 65.4784 50.5624 65.8107 51.2677 66.1846C52.3498 66.7926 53.5195 66.8388 54.7238 66.8728C54.7566 66.6405 54.8224 66.4139 54.9192 66.2001C55.1152 65.8042 55.1814 65.3565 55.1084 64.9207C55.0405 63.1665 55.408 61.4227 56.1782 59.8451C56.5918 59.049 57.0722 58.2678 57.5855 57.3583L57.5573 57.3635ZM56.165 61.7583C56.0571 62.2829 55.9763 62.6375 55.909 62.9916C55.6393 64.3521 55.732 65.7595 56.1779 67.0728C56.287 67.3284 56.3707 67.5941 56.4278 67.866C56.4995 68.336 56.7284 68.7679 57.0772 69.091C57.3855 69.4074 57.6963 69.7156 58.0258 70.0204C58.7031 70.6421 59.5429 71.0588 60.4477 71.2221C61.0192 71.3214 61.5973 71.4137 62.1562 71.4649C63.2863 71.5708 64.4206 71.6468 65.5514 71.735C66.1601 71.7829 66.7653 71.8431 67.3695 71.8762C67.8285 71.9066 68.2887 71.8354 68.7172 71.6678C69.1457 71.5001 69.5319 71.24 69.8484 70.9061C70.1607 70.5965 70.4754 70.2787 70.7567 69.9379C71.1997 69.4083 71.6269 68.8563 72.0629 68.3202C73.9242 65.9923 76.324 64.1523 79.0553 62.9591C80.2602 62.3948 81.5631 62.0694 82.8918 62.0009C85.0734 61.9319 86.8139 60.9163 88.2792 59.3937C88.5404 59.1055 88.7398 58.7668 88.8651 58.3985C88.9905 58.0303 89.0391 57.6403 89.0079 57.2525C89.0117 56.8593 88.8926 56.4748 88.6672 56.1526C88.4419 55.8304 88.1215 55.5865 87.751 55.4552C87.5766 55.3712 87.3895 55.3168 87.1973 55.2943C86.5932 55.2612 85.9825 55.235 85.3787 55.2464C83.7986 55.2811 82.2384 55.3394 80.6465 55.384C79.4497 55.43 78.2628 55.1513 77.2115 54.5774C76.2628 54.0616 75.3329 53.5113 74.4149 52.9511C73.8538 52.594 73.2456 52.317 72.608 52.1281C70.5245 51.529 68.3069 51.5869 66.2575 52.2938C64.2709 53.0048 62.3957 53.9952 60.6885 55.2352C60.421 55.4331 60.1658 55.6472 59.9242 55.876C58.7526 56.98 57.7754 58.2735 57.0337 59.7022C56.6826 60.3546 56.4009 61.042 56.1932 61.7532L56.165 61.7583ZM47.8881 80.5437C47.7938 80.5163 47.7323 80.4984 47.6913 80.4865C47.0142 80.6278 46.3342 80.7639 45.6617 80.9199C45.4736 80.966 45.2973 81.0512 45.1443 81.1699C44.6851 81.5258 44.2318 81.8923 43.7995 82.2782C43.4778 82.5463 43.2357 82.8975 43.0997 83.2936C42.6876 84.443 42.4543 85.6488 42.408 86.869C42.3317 88.7824 42.5482 90.6962 43.05 92.5442C44.0713 95.6839 44.6748 98.9444 44.8452 102.242C44.8266 102.742 44.9908 103.233 45.3072 103.621C45.122 104.154 45.11 104.731 45.2729 105.27C45.4805 106.087 45.6336 106.892 45.7778 107.712C46.1092 109.489 46.82 111.173 47.8617 112.65C48.4566 113.554 49.1992 114.351 50.0584 115.009C51.2204 115.863 52.3794 116.711 53.5656 117.527C54.1312 117.923 54.7493 118.244 55.348 118.587C55.4713 118.641 55.6008 118.678 55.7335 118.699C55.7717 118.608 55.7993 118.514 55.8157 118.416C55.8591 117.584 56.0789 116.77 56.4606 116.028C56.837 115.257 57.1118 114.439 57.278 113.597C57.5234 112.457 57.9102 111.351 58.4295 110.307C58.6101 109.933 58.7613 109.545 58.8817 109.148C59.1129 108.352 59.3247 107.546 59.5242 106.737C59.8205 105.579 59.8683 104.371 59.6643 103.193C59.4598 102.075 59.2659 100.951 59.5737 99.7994C59.2351 99.4342 58.9374 99.0808 58.6133 98.742C57.9186 98.0235 57.3461 97.1961 56.9186 96.2927C56.685 95.78 56.4243 95.2995 56.203 94.7905C56.1398 94.6224 56.042 94.4696 55.916 94.3418C55.7899 94.214 55.6384 94.1141 55.4712 94.0486C54.5152 93.6125 53.6343 93.0278 52.8611 92.3162C52.0574 91.638 51.2455 90.9573 50.4459 90.2803C50.1075 89.9907 49.7914 89.6854 49.4777 89.3719C49.0262 88.9205 48.5683 88.4761 48.1509 87.999C47.8208 87.6637 47.5405 87.2826 47.3187 86.8677C46.9295 86.0968 46.7243 85.2462 46.7189 84.3827C46.7136 83.5192 46.9083 82.6661 47.2878 81.8905C47.4483 81.5679 47.628 81.2554 47.7843 80.9316C47.8393 80.8045 47.8835 80.673 47.9163 80.5385L47.8881 80.5437ZM47.07 11.3993C46.4424 11.589 45.774 11.5968 45.1421 11.422C44.531 11.2444 43.9116 11.0645 43.3177 10.843C42.7238 10.6216 42.0066 10.3955 41.3565 10.1532C40.5455 9.84846 39.6554 9.82656 38.8305 10.0911C38.4604 10.2015 38.0786 10.2908 37.7131 10.4159C37.2508 10.5703 36.8254 10.8186 36.4634 11.1451C36.1015 11.4717 35.8108 11.8694 35.6097 12.3135C35.4312 12.6882 35.2801 13.0754 35.1575 13.472C34.9529 14.1935 34.6452 14.8816 34.2438 15.515C33.8704 16.096 33.518 16.6964 33.1447 17.2774C32.9173 17.6107 32.7812 17.9978 32.7502 18.4001C32.7192 18.8024 32.7943 19.2058 32.968 19.57C33.222 20.2265 33.4401 20.9304 33.6788 21.6091C33.7224 21.684 33.7779 21.7512 33.8433 21.8081C34.2992 20.6062 34.7386 19.4306 35.1908 18.272C35.473 17.5167 35.8953 16.8215 36.4354 16.2228C36.6124 15.9869 36.8628 15.8164 37.1472 15.738C37.4315 15.6597 37.7338 15.6778 38.0067 15.7897C38.1092 15.8195 38.2118 15.8493 38.3636 15.8934C38.7401 15.3062 39.2276 14.7981 39.7988 14.3977C40.4344 13.9552 41.077 13.5192 41.7196 13.0831C42.6633 12.4677 43.7649 12.2584 44.8478 12.0214C44.9577 12.0093 45.0685 12.0073 45.1788 12.0153L46.9802 11.9381C47.0645 11.934 47.148 11.9194 47.2286 11.8946C47.9052 11.7193 48.5137 11.345 48.9754 10.8202C49.437 10.2954 49.7307 9.64419 49.8184 8.95073C49.8351 8.81414 49.8138 8.67559 49.7568 8.55034C49.34 7.67313 48.9338 6.79009 48.474 5.95376C48.3247 5.66965 48.1115 5.42413 47.851 5.23656C47.5906 5.04898 47.2901 4.92445 46.9733 4.87286C46.7308 4.81443 46.4832 4.77974 46.234 4.76929C44.4551 4.7685 42.6739 4.77594 40.9822 5.37868C40.798 5.44126 40.6106 5.49371 40.4206 5.5358C39.8842 5.68265 39.323 5.71652 38.7727 5.63531C37.7804 5.4859 36.766 5.63565 35.8591 6.06545C33.5962 7.03481 31.7197 8.72861 30.5242 10.8806C29.9355 11.8906 29.5761 13.0178 29.4716 14.1821C29.4063 14.897 29.3697 15.6203 29.3436 16.3377C29.2918 17.5838 29.1426 18.8239 28.8977 20.0467C28.5871 21.6823 28.3405 23.3275 28.0693 24.9656C27.9228 26.2718 27.6681 27.5636 27.3077 28.8276C27.6586 29.3343 28.0106 29.8679 28.3809 30.3847C28.9377 31.1475 29.3641 31.9973 29.6429 32.8996C29.8648 33.6669 30.0855 34.4382 30.305 35.2136C30.4753 35.8314 30.5324 36.4748 30.4737 37.113C30.3969 38.0203 30.3056 38.9322 30.2235 39.8424C30.1411 40.837 29.9751 41.8229 29.7275 42.7897C29.651 43.1425 29.5977 43.4999 29.568 43.8597C29.4051 45.1245 29.2464 46.3906 29.1146 47.6555C29.0461 48.1495 29.0366 48.65 29.0864 49.1463C29.2429 50.3837 29.441 51.6155 29.6714 52.8434C29.8645 53.7684 30.1912 54.6604 30.6412 55.4914C31.0187 56.2282 31.4203 56.9586 31.8019 57.6966C32.3856 58.8025 33.1598 59.7968 34.0887 60.6338C35.3647 61.7871 36.7852 62.7694 38.3146 63.556C38.8237 63.8287 39.3898 63.9779 39.9672 63.9916C41.4639 64.0052 42.9547 64.1817 44.4132 64.5181C44.446 64.5277 44.4978 64.4716 44.5414 64.4442C44.5849 64.4168 44.5723 64.3375 44.5314 64.2945C43.8879 63.218 43.2567 62.1451 42.5819 61.0995C42.1974 60.4941 41.7429 59.9306 41.3166 59.3308C40.6872 58.3844 39.9415 57.5207 39.0969 56.7601C38.4962 56.2202 38.0119 55.5634 37.6738 54.83C37.1505 53.8447 36.8591 52.753 36.822 51.638C36.8349 51.3041 36.7595 50.9727 36.6032 50.6773C36.4468 50.382 36.2152 50.1332 35.9318 49.9561C35.5995 49.7094 35.2521 49.4838 34.8917 49.2803C34.1682 48.9141 33.5987 48.3024 33.2847 47.5548C32.8943 46.6941 32.4438 45.856 32.084 44.982C31.8545 44.449 31.6664 43.8992 31.521 43.3373C31.3224 42.6946 31.3266 42.0062 31.5333 41.366C31.6592 40.9677 31.6656 40.5412 31.5516 40.1393C31.5049 39.9478 31.4624 39.7575 31.4092 39.5731C31.2388 38.9869 31.2095 38.3687 31.3239 37.7691C31.4024 37.3916 31.4781 37.0089 31.5742 36.632C31.9376 35.2942 32.2096 33.9332 32.3883 32.5585C32.5107 31.5399 32.6045 30.513 32.8265 29.5189C33.0333 28.5393 33.0412 27.5282 32.8497 26.5456C32.7204 25.8372 32.6642 25.1173 32.682 24.3975C32.6885 23.7322 32.6662 23.0585 32.6339 22.4042C32.532 21.386 32.2109 20.402 31.6927 19.5198C31.5739 19.6563 31.4661 19.802 31.3704 19.9555C31.2419 20.2295 31.152 20.5237 31.0194 20.7965C30.4623 21.9794 30.1515 23.2631 30.1057 24.5698C30.0608 25.5664 29.9725 26.5593 29.8924 27.5546C29.8174 28.4675 29.6292 29.3676 29.332 30.234C29.2808 30.4104 29.2223 30.6114 28.9312 30.6335C28.8279 30.3459 28.8267 30.0314 28.9276 29.7429C29.0332 29.2265 29.1727 28.7155 29.2307 28.1941C29.3459 27.0934 29.4282 25.9831 29.5123 24.8822C29.5356 23.6608 29.7591 22.4516 30.174 21.3026C30.5026 20.5085 30.9009 19.7346 31.2623 18.95C31.4176 18.6587 31.5424 18.3522 31.6348 18.0352C31.7646 17.5241 31.9696 17.035 32.2431 16.584C32.7392 15.7184 33.2464 14.8606 33.7313 13.9873C33.8452 13.7669 33.9375 13.5361 34.0072 13.298C34.093 13.0026 34.1776 12.7114 34.2633 12.4161C34.4741 11.7771 34.8153 11.1888 35.2653 10.6886C35.7153 10.1885 36.2643 9.78724 36.8776 9.51043C37.6576 9.14332 38.4819 8.87893 39.3299 8.72388C39.9566 8.58257 40.6088 8.6022 41.2259 8.78094C42.7286 9.25751 44.2294 9.75575 45.7274 10.2487C46.1528 10.3961 46.5387 10.639 46.8554 10.9589C46.9544 11.0955 47.0385 11.2422 47.1064 11.3966L47.07 11.3993ZM99.9455 58.0769C99.907 58.3014 99.8633 58.4978 99.8346 58.7341C99.6529 60.416 99.5024 62.098 99.292 63.7716C99.1706 64.8757 98.8982 65.9579 98.4822 66.9879C97.9077 68.3377 97.4158 69.7249 96.8483 71.0813C96.6337 71.6166 96.3897 72.1397 96.1174 72.6481C95.3321 73.9878 94.4374 75.2602 93.4422 76.4523C93.0073 77.0275 92.4897 77.5351 91.9061 77.9587C90.291 79.1796 88.556 80.233 86.7276 81.1024C85.9158 81.4626 85.126 81.8692 84.3346 82.2664C83.6764 82.6229 82.9758 82.8947 82.2494 83.0752C82.1208 83.1045 81.9694 83.105 81.9045 83.313C82.5058 83.6333 83.1325 83.9031 83.7784 84.1198C84.0502 84.172 84.3166 84.2494 84.5742 84.3509C85.7507 84.8401 86.9564 85.2557 88.1844 85.5954C88.9721 85.8696 89.8063 85.9849 90.6388 85.9347C91.0918 85.9062 91.5342 85.9147 91.9801 85.9108C92.8095 85.8923 93.6252 85.6954 94.3716 85.3334C95.7559 84.6866 97.0183 83.8059 98.1033 82.7301C98.8552 81.9907 99.6793 81.3286 100.563 80.7537C101.999 79.8366 103.434 78.8654 104.874 77.9319C105.647 77.4341 106.296 76.7682 106.775 75.9841C107.397 74.9631 107.82 73.8333 108.022 72.6547C108.152 71.9453 108.273 71.2377 108.384 70.5359C108.784 68.1497 108.644 65.7041 107.972 63.3797C107.62 62.2703 107.366 61.1323 107.212 59.9787C107.14 59.3692 106.937 58.7823 106.618 58.2582C106.437 57.8964 106.155 57.5954 105.805 57.3926C105.455 57.1898 105.053 57.0941 104.65 57.1172C104.235 57.1347 103.816 57.1241 103.41 57.1751C102.393 57.3128 101.39 57.5443 100.416 57.8665C100.255 57.9283 100.098 57.9985 99.9455 58.0769ZM67.1243 89.3474C67.1473 89.421 67.1791 89.4915 67.219 89.5573C67.626 90.121 67.9227 90.7566 68.0937 91.4305C68.2288 91.9145 68.3558 92.3962 68.4786 92.8767C68.7003 93.7651 69.0325 94.6222 69.4676 95.4279C69.6643 95.792 69.8598 96.1601 70.0365 96.5317C70.5051 97.4449 71.0961 98.29 71.7931 99.0435C72.3904 99.6974 72.9394 100.395 73.5067 101.076C73.7704 101.393 74.0254 101.725 74.3051 102.033C74.8455 102.593 75.2827 103.244 75.5966 103.956C75.7727 104.398 76.1004 104.762 76.5208 104.985C76.7848 105.133 77.0464 105.289 77.318 105.425C77.5109 105.537 77.7243 105.609 77.9455 105.636C78.1667 105.664 78.3912 105.647 78.6056 105.586C79.1926 105.423 79.7703 105.229 80.336 105.003C80.7377 104.814 81.1092 104.567 81.4387 104.27C81.5179 104.212 81.5846 104.138 81.6351 104.054C81.6855 103.97 81.7186 103.877 81.7323 103.779C81.746 103.682 81.7401 103.583 81.715 103.488C81.6898 103.393 81.6459 103.305 81.5859 103.227C81.4323 102.996 81.2564 102.781 81.0606 102.585C80.8598 102.358 80.629 102.157 80.4347 101.923C80.2599 101.722 80.1488 101.474 80.1154 101.21C80.082 100.946 80.1278 100.679 80.247 100.441C80.3213 100.263 80.4179 100.095 80.5344 99.9415C80.9192 99.4102 81.445 98.9971 82.0523 98.7491C82.6596 98.5011 83.3243 98.4279 83.971 98.538C84.399 98.5956 84.7888 98.6777 85.2028 98.7223C85.9731 98.8113 86.7535 98.7347 87.4919 98.4977C88.3604 98.2095 89.1903 97.8157 89.9629 97.3252C90.3506 97.1039 90.6751 96.787 90.9054 96.4045C91.1356 96.0221 91.2639 95.5869 91.278 95.1408C91.3154 94.5067 91.4315 93.8777 91.5082 93.2461C91.5466 92.9148 91.6026 92.5841 91.61 92.2527C91.6435 91.8503 91.5744 91.4459 91.4092 91.0774C91.244 90.7089 90.9881 90.3884 90.6653 90.1458C89.6978 89.3997 88.856 88.5034 88.1719 87.491C87.9646 87.1727 87.7736 86.844 87.5996 86.5063C86.8859 86.299 86.086 86.0667 85.2903 85.8355C84.0927 85.4876 82.9182 85.0753 81.7289 84.6986C81.5207 84.6248 81.3084 84.5632 81.0931 84.514C80.9558 84.496 80.8171 84.4915 80.679 84.5004L80.6169 85.541C80.5755 86.2949 80.2884 87.0145 79.7994 87.5897C79.08 88.4791 78.1387 89.163 77.0707 89.5725C76.0827 89.9419 75.0553 90.1957 74.0089 90.3288C73.2142 90.4486 72.4039 90.417 71.6209 90.2356C70.3035 89.9018 68.9807 89.6021 67.6562 89.2929C67.502 89.257 67.3171 89.1277 67.1303 89.3269L67.1243 89.3474ZM26.8599 28.3327C27.0556 27.8425 27.1136 27.4591 26.7481 27.0638C26.5603 26.8234 26.4132 26.5538 26.3128 26.2657C25.9841 25.4986 25.6837 24.7263 25.355 23.9592C25.1378 23.4513 24.9206 22.9434 24.6635 22.4506C24.5294 22.175 24.3349 21.9332 24.0944 21.7432C23.8538 21.5532 23.5735 21.4199 23.2743 21.3532C23.0577 21.3036 22.8441 21.2416 22.6346 21.1674C22.1877 21.005 21.6954 21.0213 21.2603 21.213C19.9645 21.7101 18.5747 21.9139 17.1907 21.8099C15.2694 21.7359 13.3634 22.1792 11.6719 23.0934C11.1873 23.3518 10.6791 23.5631 10.1543 23.7245C9.52097 23.9141 8.89625 24.1508 8.26983 24.378C7.53481 24.6427 6.89318 25.1165 6.42393 25.741C6.02147 26.2691 5.62606 26.8036 5.22651 27.3369C4.48582 28.3172 4.0393 29.488 3.93907 30.7125C3.77502 32.2582 3.41747 33.7772 2.87477 35.2337C2.55098 36.1493 2.21187 37.0561 1.87167 37.9669C1.34141 39.4154 1.36995 41.0095 1.95166 42.438C2.06937 42.7525 2.18413 43.0616 2.31242 43.3701C3.08301 45.2445 4.05601 47.0291 5.21412 48.6921C6.15028 50.0627 7.0793 51.4578 8.02142 52.8079C8.13161 52.9644 8.25891 53.1082 8.3826 53.2642L10.2103 52.9589C10.1802 52.8352 10.1411 52.7139 10.0934 52.5958C9.1716 50.6112 8.5862 48.4871 8.36112 46.3104C8.308 45.8502 8.27115 45.4258 8.1745 44.993C7.91879 43.794 7.98444 42.5487 8.36474 41.3832C8.58746 40.5809 8.97707 39.8347 9.50798 39.1933C9.87864 38.7816 10.1883 38.3188 10.4275 37.8192C10.9504 36.6011 11.4522 35.3636 11.8597 34.0987C12.2082 32.9002 12.6928 31.7456 13.3041 30.6575C13.6621 30.033 14.071 29.4392 14.5269 28.8822C14.8918 28.4235 15.3558 28.0533 15.884 27.7993C16.4122 27.5453 16.9911 27.414 17.5772 27.4153C18.1827 27.4133 18.7941 27.3907 19.3987 27.4374C19.9235 27.4975 20.455 27.4256 20.945 27.2283C21.6388 26.9412 22.399 26.8539 23.1398 26.9763C23.3016 27.0096 23.466 27.0276 23.6312 27.0301C24.3034 27.0108 24.9601 27.2347 25.4806 27.6607C25.8865 27.9816 26.357 28.2108 26.8599 28.3327ZM58.2545 56.5252C58.4265 56.3617 58.5691 56.2385 58.6987 56.0983C59.8766 54.8414 61.2774 53.8141 62.8302 53.0685C63.4251 52.7965 64.0208 52.4758 64.6001 52.1504C65.8291 51.4387 67.2182 51.0496 68.6381 51.0194C69.3539 51.005 70.082 50.9941 70.7916 51.0623C72.3203 51.1507 73.7932 51.6679 75.0414 52.5548C75.6773 52.9979 76.3366 53.4063 77.0167 53.778C78.1556 54.4784 79.468 54.8457 80.805 54.8385C82.1053 54.8025 83.4035 54.8194 84.7073 54.8023C85.0599 54.798 85.4097 54.7572 85.7131 54.7386C85.775 54.6632 85.8027 54.6446 85.8098 54.62C85.8466 54.5166 85.8772 54.4111 85.9016 54.3041C86.0358 53.5869 86.4394 52.9482 87.0295 52.519C87.2891 52.3142 87.5657 52.1277 87.8253 51.9229C87.9748 51.8062 88.1033 51.6701 88.2494 51.5346C88.0193 51.0447 87.9146 50.5053 87.9448 49.965C87.9523 49.6578 87.8625 49.3562 87.6882 49.1031C87.4142 48.6842 87.2208 48.2177 87.1181 47.7277C86.8417 46.5948 86.3702 45.5186 85.7247 44.5474C85.5282 44.2141 85.2631 43.9263 84.947 43.7032C83.1665 42.4833 82.9384 42.3192 80.7133 42.4156L80.5448 42.4289C79.1369 42.5136 77.7304 42.5943 76.3201 42.6873C75.1318 42.8003 73.9328 42.6743 72.7939 42.3168C72.1583 42.1074 71.4778 42.0742 70.8248 42.2207C70.257 42.3365 69.6972 42.4889 69.149 42.6768C68.7598 42.7868 68.4003 42.9828 68.097 43.2504C67.7937 43.5179 67.5544 43.8502 67.3968 44.2227C67.3594 44.2964 67.3165 44.3672 67.2685 44.4345C67.1074 44.743 66.8781 45.0106 66.5977 45.2167C66.3173 45.4228 65.9935 45.5621 65.651 45.6238C65.2717 45.7048 64.8838 45.7389 64.5073 45.8252C62.5105 46.2993 61.1396 47.4356 60.6688 49.5005C60.2536 51.4637 59.3029 53.2736 57.9222 54.7296C57.8261 54.8306 57.7452 54.9406 57.6455 55.054C57.7614 55.5782 57.9705 56.0773 58.2627 56.5276L58.2545 56.5252ZM98.599 55.4395C98.6729 55.1852 98.6976 55.0234 98.7359 54.861C99.052 53.5404 99.4862 52.2509 100.033 51.008C100.353 50.3006 100.625 49.5729 100.848 48.8295C101.095 47.9805 101.322 47.1214 101.525 46.2551C101.786 45.2901 101.893 44.2901 101.843 43.2918C101.702 41.605 101.449 39.9347 101.416 38.2395C101.417 38.1597 101.325 38.0795 101.229 37.9183C101.076 38.3685 100.994 38.8395 100.984 39.3148C100.957 39.8125 100.855 40.3031 100.681 40.7703C100.293 41.8106 99.7967 42.8069 99.1993 43.7425C98.3423 45.1615 97.4841 46.5846 96.6236 48.0159C95.9842 49.2166 95.1474 50.3013 94.1482 51.2244C93.5979 51.6995 93.2461 52.3641 93.1626 53.0864C92.8171 55.3245 91.7581 57.3913 90.1432 58.9789C89.9731 59.165 89.7767 59.3253 89.5603 59.4546C89.2539 59.6293 88.9745 59.8478 88.7313 60.1033C87.2266 61.6483 85.2266 62.615 83.0811 62.8343C82.2236 62.8968 81.3782 63.073 80.5672 63.3583C77.9888 64.259 75.6653 65.7672 73.7926 67.7552C73.2102 68.3822 72.6728 69.0534 72.1312 69.7234C71.4504 70.6326 70.6756 71.4675 69.8197 72.2144C69.7581 72.2877 69.711 72.3721 69.6808 72.4631C70.3371 72.6538 70.9541 72.8108 71.5552 73.0076C72.1562 73.2044 72.7899 73.473 73.3855 73.7039C73.4879 73.6269 73.5784 73.5909 73.6192 73.5272C73.8369 73.188 74.1263 72.9006 74.467 72.6853C74.8077 72.47 75.1915 72.3319 75.5913 72.2808C76.1357 72.1676 76.6754 72.0398 77.2168 71.9213C77.8121 71.784 78.3807 71.5494 78.8996 71.227C79.7243 70.7231 80.4924 70.132 81.1908 69.464C81.9793 68.7211 82.8685 68.093 83.8322 67.5982C84.5402 67.2083 85.3369 67.0077 86.1452 67.0158C86.838 67.0346 87.5284 67.0618 88.2139 67.1363C88.8994 67.2109 89.4614 67.3431 90.0629 67.4466C90.6147 66.4505 91.1569 65.4871 91.6798 64.5137C91.9532 64.0015 92.1932 63.4664 92.4395 62.9552C92.7727 62.1907 92.9541 61.3688 92.9735 60.535C93.0022 59.9777 93.1862 59.4395 93.5049 58.9814C94.297 57.8069 95.2707 56.7655 96.3893 55.8963C97.0589 55.4592 97.7233 55.1318 98.5971 55.4612L98.599 55.4395ZM105.365 56.3376L105.854 56.4794C106.326 56.6014 106.762 56.8327 107.128 57.1547C107.495 57.4766 107.78 57.8802 107.961 58.3328C108.112 58.6901 108.234 59.0587 108.326 59.435C108.621 60.5036 108.896 61.5755 109.176 62.6352C109.564 63.9074 109.834 65.2128 109.982 66.5345C110.284 69.4136 109.908 72.3234 108.884 75.0312C108.829 75.2199 108.642 75.4056 108.798 75.6644C108.941 75.5994 109.067 75.5471 109.187 75.4884C109.982 75.0923 110.778 74.6963 111.565 74.2978C112.852 73.6487 114.162 73.015 115.418 72.3347C115.974 72.0249 116.51 71.6798 117.021 71.3015C117.875 70.6701 118.514 69.7927 118.855 68.7872C119.181 68.0104 119.204 67.1392 118.919 66.3462C118.522 65.2803 118.255 64.1707 118.122 63.0412C118.086 62.8223 118.04 62.6053 117.982 62.3911C117.726 61.3973 117.585 60.3773 117.562 59.3513C117.54 58.6578 117.397 57.9736 117.139 57.3294C116.73 56.2077 116.151 55.1558 115.421 54.2105C114.96 53.6229 114.514 53.0231 114.081 52.411C113.166 51.1901 112.377 49.8805 111.725 48.5019C111.656 48.3513 111.57 48.2086 111.47 48.0766C111.368 47.9268 111.226 47.8089 111.06 47.7363C110.893 47.6636 110.71 47.6392 110.531 47.6659C110.238 47.6954 109.963 47.8223 109.75 48.0262C109.245 48.505 108.873 49.1063 108.669 49.7716C108.523 50.2761 108.375 50.7847 108.229 51.2893C107.734 53.1165 106.773 54.7839 105.44 56.128C105.44 56.128 105.404 56.1888 105.37 56.3388L105.365 56.3376ZM76.9922 83.5807C76.6029 83.6499 76.2817 83.7301 75.9518 83.7633C75.3995 83.8119 74.8484 83.8563 74.2957 83.8604C73.3229 83.8713 72.4699 83.4545 71.605 83.0788C70.3492 82.4701 69.3037 81.5005 68.6024 80.294C68.0943 79.5014 67.7197 78.632 67.2722 77.7993C66.9533 77.2129 66.6227 76.6365 66.2867 76.0629C65.7854 75.2012 65.2575 74.354 64.7721 73.4835C64.709 73.3323 64.6007 73.2043 64.462 73.117C64.3233 73.0298 64.1611 72.9875 63.9974 72.9961C62.7502 72.9812 61.5068 72.8552 60.2819 72.6195C59.7367 72.5278 59.204 72.3731 58.6946 72.1584C57.1588 71.4745 55.9228 70.2575 55.2154 68.7325L54.9007 68.1162L52.9252 68.0272C52.3976 68.0007 51.8835 67.8513 51.4239 67.5911C50.7169 67.2078 50.0063 66.8368 49.3034 66.4547C48.5988 66.0642 47.8461 65.7678 47.0644 65.573C46.8601 65.5005 46.6417 65.4764 46.4265 65.5026C46.2113 65.5288 46.005 65.6047 45.8241 65.7242C45.8403 66.1737 45.8186 66.6922 45.847 67.1764C45.914 67.8031 46.0136 68.4259 46.1455 69.0423C46.2146 69.3989 46.3763 69.7312 46.6143 70.0056C46.8523 70.2801 47.1582 70.4871 47.5015 70.606C48.0995 70.8286 48.7022 71.0659 49.2927 71.2686C51.0147 71.805 52.6425 72.6065 54.1176 73.6443C54.8276 74.1381 55.3709 74.8356 55.6758 75.6449C55.8725 76.1468 56.0438 76.6902 56.2198 77.2173C56.4306 77.8784 56.7275 78.509 57.1027 79.0928C57.3852 79.5416 57.7904 79.9001 58.2703 80.1259C58.5964 80.274 58.919 80.4344 59.2404 80.5989C59.6949 80.8096 60.1014 81.1111 60.435 81.4849C60.7685 81.8587 61.022 82.2969 61.1797 82.7724C61.2475 82.9833 61.3351 83.1867 61.4187 83.3889C61.6013 83.8252 61.86 84.2257 62.1826 84.5716C62.5358 84.9709 63.0299 85.2181 63.5613 85.2612C64.4709 85.3297 65.3804 85.4294 66.2926 85.4586C67.4952 85.4527 68.6606 85.8747 69.5804 86.6494C70.0545 87.0364 70.5952 87.3336 71.1759 87.5265C71.5131 87.6638 71.8868 87.683 72.2364 87.5811C73.5225 87.1496 74.8087 86.7182 76.0886 86.2626C76.5575 86.0693 76.9607 85.7447 77.2497 85.3278C77.4005 85.1452 77.4888 84.919 77.5014 84.6825C77.5141 84.446 77.4505 84.2116 77.32 84.0139C77.2555 83.884 77.1317 83.759 77.0128 83.5866L76.9922 83.5807ZM25.9369 44.6775C25.9015 44.7768 25.872 44.8782 25.8487 44.981C25.7008 45.6586 25.5868 46.3416 25.402 47.0085C25.085 48.0995 24.7681 49.1906 24.4241 50.2827C24.0514 51.4809 24.0158 52.7585 24.321 53.9756C24.4448 54.5142 24.5914 55.0505 24.741 55.5921C24.9713 56.5097 25.025 57.4626 24.8993 58.4002C24.7957 59.1396 24.6622 59.8748 24.5709 60.6177C24.4235 62.2792 24.6861 63.9515 25.3355 65.4879C25.3464 65.514 25.3601 65.5388 25.3762 65.562C25.9113 66.6599 26.6663 67.6362 27.5942 68.4303C27.8356 68.6524 28.0641 68.8881 28.2787 69.1362C28.9631 69.8421 29.6285 70.6135 30.3837 71.2599C32.572 73.1276 34.7037 75.0679 37.0648 76.7235C37.4524 76.9866 37.8582 77.2219 38.279 77.4276C38.7245 77.6549 39.186 77.8423 39.6362 78.0531C40.0864 78.264 40.4798 78.4717 40.9149 78.6425C41.5094 78.8775 42.1275 79.0615 42.7162 79.2859C43.2349 79.4846 43.7949 79.551 44.3457 79.4791C45.1717 79.3765 45.9999 79.2968 46.8205 79.1972C46.9922 79.1656 47.1612 79.121 47.3262 79.0639C47.1187 78.4921 46.8345 78.0314 46.6214 77.5248C46.4083 77.0181 46.1665 76.503 45.9617 75.9987C45.7568 75.4944 45.5781 74.8999 45.3904 74.3516C45.2716 73.8072 45.1015 73.2753 44.8824 72.7629C44.2601 72.8535 43.8816 72.4722 43.5166 72.0904C42.3378 70.8668 40.8485 69.9868 39.208 69.5444C38.8318 69.4487 38.4636 69.3239 38.1067 69.1712C36.5888 68.4956 35.1199 67.7152 33.7104 66.8355C32.9789 66.3841 32.3214 65.8225 31.7612 65.1706C30.7896 63.9988 29.753 62.897 28.6683 61.808C28.3464 61.5018 28.0693 61.1518 27.8451 60.7683C27.0835 59.5052 26.6588 58.0678 26.6116 56.5937C26.6109 55.0407 26.4545 53.4917 26.1446 51.9701C25.9931 51.265 25.9425 50.5419 25.9945 49.8226C26.0662 48.9939 26.1502 48.1688 26.2354 47.3395C26.3434 46.6002 26.3383 45.8488 26.2201 45.1111C26.1927 44.9297 26.1964 44.7484 25.9573 44.6834L25.9369 44.6775ZM54.3874 86.2657C54.7273 87.1473 54.7895 88.0816 55.2935 88.873C55.4463 89.1671 55.5697 89.4756 55.6619 89.794C55.7704 90.079 55.843 90.3803 55.9779 90.6508C56.269 91.2808 56.4888 91.9414 56.6333 92.6203C56.9802 93.9644 57.5204 95.251 58.2369 96.4399C58.415 96.7524 58.6291 97.0431 58.8749 97.3057C59.4838 97.9808 60.1115 98.6524 60.744 99.3076C61.3928 99.9935 62.1608 100.556 63.0107 100.967C63.9609 101.416 64.9087 101.874 65.8726 102.292C67.0061 102.74 68.0696 103.349 69.0304 104.099C70.1978 105.021 71.454 105.826 72.7804 106.5C73.1627 106.725 73.5753 106.892 74.0055 106.999C75.3695 107.301 76.7959 107.134 78.0529 106.524C78.1605 106.455 78.2611 106.375 78.3531 106.287C77.4946 106.193 76.6644 105.925 75.9136 105.498C75.4585 105.288 75.0917 104.925 74.8774 104.472C74.5125 103.692 74.0076 102.986 73.3876 102.389C73.1927 102.192 73.0116 101.982 72.8454 101.76C72.2223 100.953 71.5559 100.18 70.8492 99.4454C70.3813 98.9727 69.9714 98.4461 69.6282 97.8764C68.652 96.1384 67.7299 94.3671 67.3638 92.366C67.2549 91.8232 67.0985 91.291 66.8963 90.7757C66.7667 90.3797 66.5362 90.0243 66.2276 89.7443C65.919 89.4644 65.5429 89.2696 65.1362 89.1792C64.1292 88.883 63.1077 88.6382 62.0757 88.4458C60.489 88.1834 58.9257 87.7947 57.4008 87.2834C56.9497 87.1524 56.5164 86.9598 56.0824 86.7848C55.5467 86.5476 54.9846 86.3754 54.408 86.2717L54.3874 86.2657ZM69.9711 80.9718C70.0687 81.1228 70.1751 81.268 70.2895 81.4067C71.1236 82.1462 72.122 82.6762 73.2019 82.9528C74.2818 83.2294 75.4121 83.2446 76.4991 82.9971C78.0346 82.6176 79.5099 82.0268 80.8829 81.2416C81.6871 80.7546 82.514 80.2965 83.2978 79.7725C84.9988 78.6252 86.5363 77.2524 87.868 75.6915C88.3612 75.1333 88.7579 74.497 89.0421 73.8086C89.3387 73.063 89.664 72.3257 89.9607 71.5802C90.093 71.2446 90.2033 70.9007 90.2909 70.5507C90.5535 69.524 90.2433 68.9535 89.255 68.6353C88.9669 68.5321 88.6681 68.4617 88.3642 68.4254C87.5666 68.3539 86.766 68.3081 85.9647 68.2799C85.2682 68.2615 84.581 68.4431 83.9846 68.8033C83.1137 69.2915 82.3018 69.878 81.5645 70.5511C80.2492 71.8426 78.5598 72.6859 76.7371 72.9606C76.3525 73.0135 75.9795 73.1186 75.6018 73.2091C75.2296 73.2735 74.887 73.453 74.6221 73.7223C74.3571 73.9916 74.1833 74.3372 74.125 74.7104C74.0387 75.1301 73.9554 75.5241 73.8726 75.9315C73.5886 77.5286 72.7697 78.9816 71.5504 80.0517C71.1121 80.4802 70.5775 80.7977 69.9915 80.9777L69.9711 80.9718ZM66.0854 16.1403C65.4702 15.9616 65.0436 15.8377 64.6211 15.715C63.9064 15.4851 63.1514 15.4083 62.4051 15.4893C61.7988 15.5401 61.1867 15.5802 60.5976 15.587C59.4854 15.6025 58.3885 15.8488 57.3764 16.3103C56.7979 16.587 56.2193 16.8638 55.6706 17.1758C54.9123 17.635 54.1068 18.0109 53.2678 18.297C52.4994 18.5498 51.8052 18.9883 51.2468 19.5736C50.7229 20.1064 50.1921 20.6327 49.664 21.1643C48.451 22.4349 47.5913 24.0007 47.1704 25.7062C46.9154 26.584 46.7846 27.4934 46.583 28.3866C46.5496 28.4918 46.5428 28.6037 46.5633 28.7121C46.5838 28.8206 46.631 28.9222 46.7006 29.0079C47.0052 29.3678 47.2981 29.7375 47.6222 30.0763C48.0789 30.5559 48.5708 31.0057 49.0381 31.4795C49.4693 31.9034 49.9282 32.2982 50.4116 32.6613C50.5404 32.6009 50.6414 32.559 50.7379 32.5026C51.9216 31.7609 53.3168 31.4299 54.7075 31.5607C55.7843 31.6511 56.8774 31.7463 57.9318 31.8524C58.7299 31.9554 59.5399 31.9151 60.3237 31.7333C60.6231 31.6718 60.9067 31.5498 61.1572 31.3748C61.4076 31.1997 61.6197 30.9753 61.7803 30.7153C61.9836 30.383 62.1869 30.0506 62.4113 29.7377C63.1506 28.9909 63.9969 28.3584 64.9224 27.8607C65.5269 27.6627 66.1466 27.5047 66.7546 27.3255C66.8705 27.2875 66.9843 27.2433 67.0955 27.1932C66.9189 26.7905 66.7579 26.4413 66.6181 26.0804C66.5301 25.8169 66.3826 25.5771 66.1868 25.3798C65.9911 25.1826 65.7525 25.0331 65.4896 24.9431C65.223 24.8657 64.9761 24.7361 64.7166 24.634C63.9428 24.3202 63.1141 24.1641 62.2792 24.1751C60.5072 24.1697 58.737 24.2841 56.9804 24.5173C56.0709 24.64 55.2018 24.9704 54.4405 25.483C53.9402 25.8269 53.4773 26.2262 52.9946 26.6019C52.5118 26.9776 52.0113 27.4149 51.4788 27.7628C50.9692 28.0946 50.4976 28.4811 50.0721 28.9154C49.6625 29.3302 49.2161 29.7031 48.7796 30.0878C48.7066 30.1556 48.6047 30.246 48.464 30.1029C48.4656 30.0058 48.4758 29.909 48.4945 29.8137C48.8029 28.6195 49.5576 27.5891 50.603 26.9346C50.9955 26.6706 51.4096 26.4395 51.7781 26.1507C52.4969 25.59 53.1971 25.0017 53.9014 24.4146C54.0103 24.3294 54.0979 24.2201 54.1571 24.0951C54.2164 23.9702 54.2456 23.8332 54.2425 23.6949C54.2395 23.5567 54.2043 23.4211 54.1397 23.2989C54.075 23.1767 53.9827 23.0713 53.8701 22.991C53.6792 22.8517 53.5357 22.6571 53.459 22.4336C53.3824 22.21 53.3763 21.9684 53.4415 21.7412C53.5417 21.279 53.7597 20.8505 54.0742 20.4972C54.588 19.877 55.1297 19.2827 55.6393 18.6612C55.9771 18.2538 56.4021 17.9273 56.8828 17.7059C57.3636 17.4845 57.888 17.3739 58.4172 17.3821C59.0823 17.3725 59.7446 17.4717 60.3777 17.6759C61.407 17.9344 62.4924 17.8517 63.4706 17.4401C63.8721 17.2545 64.2625 17.0456 64.6397 16.8145C65.0613 16.6034 65.4635 16.4134 66.0854 16.1403ZM57.4182 54.3208C57.7321 53.9138 58.0094 53.5718 58.2678 53.2332C59.169 52.0668 59.8139 50.7233 60.1604 49.2906C60.245 48.9994 60.3296 48.7082 60.4154 48.4128C60.477 48.2001 60.5633 47.9952 60.6727 47.8026C61.6103 46.3358 62.8439 45.3198 64.6512 45.1153C64.9823 45.0781 65.3134 45.0408 65.6399 44.9578C65.8598 44.9189 66.0674 44.8285 66.2456 44.694C66.4238 44.5594 66.5677 44.3846 66.6654 44.1837C66.7322 44.0608 66.7908 43.9355 66.8501 43.7926C67.058 43.3373 67.3546 42.928 67.7227 42.5889C68.0909 42.2498 68.5231 41.9876 68.9939 41.8178C70.392 41.1731 71.9798 41.0716 73.4486 41.5329C73.9912 41.7313 74.5651 41.8302 75.1429 41.8249C76.1944 41.7878 77.2413 41.7361 78.2987 41.6786C78.3838 41.6766 78.4641 41.5843 78.5524 41.5254C77.5322 40.5663 76.2765 40.0815 75.1277 39.4275C75.0009 39.3593 74.8611 39.3187 74.7176 39.3084C73.8098 39.2181 72.9124 39.0153 71.9912 39.1702C71.6894 39.2473 71.3706 39.2222 71.0845 39.0989C70.7985 38.9755 70.5614 38.7609 70.4102 38.4885C70.3173 38.3171 70.1743 38.1782 70.0003 38.0903C69.8264 38.0024 69.6297 37.9698 69.4367 37.9967C69.291 37.9959 69.1456 37.9849 69.0015 37.9637C67.6473 37.8638 66.5999 37.3506 66.2026 35.9319C66.1509 35.7284 66.041 35.5443 65.8863 35.4022C65.7317 35.2602 65.5391 35.1662 65.3319 35.1319C64.4153 34.8918 63.4465 34.9448 62.5615 35.2834C61.5469 35.6737 60.6467 36.3132 59.9442 37.1429C59.0577 38.2197 58.1715 39.3411 57.3123 40.4615C56.6998 41.2151 56.2024 42.0555 55.8363 42.955C55.2065 44.7011 54.7468 46.504 54.4637 48.3385C54.4384 48.4459 54.4394 48.5577 54.4664 48.6647C54.4933 48.7716 54.5456 48.8704 54.6188 48.9529C55.0002 49.4351 55.3044 49.9736 55.5205 50.5492C56.0497 51.7082 56.586 52.8632 57.1292 54.0144C57.209 54.1244 57.3004 54.2255 57.4018 54.316L57.4182 54.3208ZM49.3891 42.5811C49.285 42.235 49.239 42.026 49.1636 41.8261C48.9303 41.2604 48.8221 40.6509 48.8466 40.0394C48.8715 39.4328 48.9329 38.8235 48.993 38.2183C49.1318 37.2581 49.3406 36.3094 49.6175 35.3796C49.7712 34.8505 49.8523 34.2958 49.9392 33.7517C49.9783 33.5464 49.9567 33.3343 49.8769 33.1412C49.797 32.9481 49.6625 32.7825 49.4899 32.6649C49.0771 32.3404 48.7056 31.9656 48.32 31.6089C47.9343 31.2523 47.6188 30.9604 47.2659 30.6444C46.9129 30.3284 46.5766 29.9549 46.1694 29.5653L45.7529 30.2183C45.4619 29.6889 45.6965 29.1878 45.5885 28.6716C45.5375 28.5899 45.4774 28.5142 45.4094 28.446C45.2327 28.2882 45.1025 28.0851 45.0327 27.8587C44.9629 27.6323 44.9561 27.3911 45.0132 27.1612C45.0691 26.8616 45.1209 26.5608 45.1809 26.2625C45.2688 25.9391 45.2582 25.5969 45.1505 25.2796C44.8835 24.5211 44.5244 23.7984 44.0812 23.1275C43.386 22.1828 43.5639 22.4124 42.6481 22.1508C42.3266 22.0692 41.989 22.0773 41.6717 22.1741C40.6048 22.4112 39.6668 23.0427 39.0455 23.942C38.7831 24.3034 38.5391 24.6779 38.3147 25.0641C37.8752 25.8347 37.5024 26.6416 37.2005 27.4759C37.0028 28.0189 36.7752 28.5577 36.5774 29.1007C36.5328 29.2732 36.5039 29.4494 36.4911 29.6272C36.5489 29.6732 36.6127 29.7112 36.6807 29.7401C37.3959 29.863 38.0688 30.164 38.6372 30.6151C39.2057 31.0663 39.6515 31.6532 39.9336 32.3218C40.128 32.7507 40.2973 33.1904 40.4406 33.6389C40.6531 34.299 40.9713 34.9202 41.3829 35.4783C41.8988 36.1744 42.2736 36.9648 42.4861 37.8048C42.7602 38.8214 42.9299 39.8632 42.9928 40.9142C43.0287 41.9667 43.1719 43.0128 43.4201 44.0362C43.5119 44.3787 43.6371 44.7131 43.772 45.1215C44.3909 44.7364 44.93 44.3503 45.5104 44.0519C46.0908 43.7535 46.7823 43.5318 47.4138 43.226C48.0171 42.8815 48.6831 42.6606 49.3727 42.5763L49.3891 42.5811ZM97.1687 25.5924C97.39 25.9496 97.6738 26.2641 98.0065 26.5207C98.4895 27.0169 99.0013 27.4903 99.4331 28.0249C99.9361 28.6514 100.386 29.338 100.834 29.9842C101.75 31.2539 102.26 32.7713 102.296 34.3365C102.317 34.7871 102.308 35.2782 102.33 35.7518C102.353 36.2253 102.344 36.8055 102.379 37.3273C102.502 39.1419 102.633 40.9594 102.775 42.7796C102.846 43.6083 102.811 44.4427 102.672 45.2627C102.293 47.1676 101.732 49.0318 100.997 50.8297C100.369 52.4844 99.709 54.1296 99.0579 55.8041C99.2509 56.0626 99.4297 56.3313 99.5935 56.6091C99.734 56.8922 99.8572 57.1835 99.9628 57.4814C100.074 57.4649 100.142 57.4758 100.181 57.4513C100.993 56.8686 101.903 56.4369 102.868 56.1771C103.262 56.0468 103.657 55.9124 104.05 55.7686C104.522 55.6026 104.943 55.3153 105.27 54.9356C106.122 54.0173 106.76 52.9225 107.14 51.7292L107.651 49.9695C107.785 49.3739 107.996 48.7981 108.278 48.2567C108.391 48.0355 108.431 47.7841 108.393 47.5385C108.346 46.931 108.333 46.3214 108.354 45.7125C108.393 44.047 108.5 42.3923 108.577 40.7335C108.65 39.835 108.535 38.9313 108.239 38.0797C107.944 37.2282 107.474 36.4474 106.861 35.7869C106.575 35.4859 106.299 35.179 106.015 34.8697C105.846 34.6871 105.676 34.5086 105.494 34.3358C104.664 33.5454 104.099 32.5173 103.876 31.3928C103.79 30.9852 103.668 30.5805 103.574 30.184C103.377 29.4313 103.059 28.7156 102.633 28.0648C101.937 27.1027 101.156 26.2057 100.298 25.385C100.143 25.2224 99.9504 25.1017 99.7366 25.0341C99.5229 24.9666 99.2955 24.9544 99.0757 24.9988C98.4099 25.1131 97.7611 25.3101 97.1441 25.5852L97.1687 25.5924ZM71.8895 10.9811C71.601 10.795 71.3537 10.6208 71.095 10.4701C70.5754 10.1941 70.172 9.74077 69.9584 9.19249C69.7108 8.60501 69.3764 8.05806 68.9664 7.56996C68.3068 6.74407 67.4149 6.13483 66.4056 5.82085C64.9336 5.29982 63.4466 5.50391 61.9704 5.77786C61.6683 5.81138 61.3766 5.90813 61.1143 6.06184C60.852 6.21555 60.625 6.42277 60.4481 6.67C59.9647 7.38711 59.2766 7.94206 58.4733 8.26248C57.4699 8.73761 56.4161 9.09842 55.3321 9.33817C54.2187 9.55739 53.0974 9.74315 51.9806 9.94358C51.7082 9.99343 51.4276 10.0098 51.1598 10.0743C50.7709 10.1556 50.4066 10.3274 50.0964 10.5758C49.7862 10.8242 49.5389 11.1421 49.3746 11.5039C49.5935 11.5008 49.7526 11.4892 49.9045 11.5022C50.2622 11.5154 50.6179 11.5622 50.9669 11.6418C51.3849 11.7887 51.7909 11.9675 52.1813 12.1769C52.4027 12.2694 52.593 12.4235 52.7296 12.6209C52.8662 12.8182 52.9434 13.0505 52.9521 13.2904C52.9603 13.4306 52.9019 13.6316 53.1449 13.7289C53.3437 13.6265 53.5653 13.5219 53.7823 13.4026C54.3311 13.0995 54.9147 12.8643 55.5202 12.7021C55.9335 12.5786 56.3701 12.5548 56.7943 12.6324C57.2186 12.71 57.6185 12.887 57.9613 13.1487C58.4694 13.5276 58.974 13.9188 59.4656 14.3241C59.5561 14.4082 59.6629 14.4729 59.7794 14.5144C59.8958 14.5559 60.0195 14.5732 60.1428 14.5653C60.8576 14.5238 61.5743 14.5363 62.2934 14.465C63.0684 14.3962 63.8494 14.481 64.5915 14.7145C65.591 15.0404 66.6137 15.3019 67.6119 15.6319C68.2022 15.8114 68.8185 15.8897 69.4349 15.8635C69.5937 15.6383 69.7525 15.4131 69.9072 15.1867C70.2448 14.6125 70.4814 13.9847 70.6066 13.3305C70.7741 12.6268 71.1072 11.9733 71.5783 11.4245C71.6862 11.2816 71.7846 11.1319 71.873 10.9763L71.8895 10.9811ZM88.5178 48.5746C88.567 48.2064 88.6083 48.0182 88.6173 47.8341C88.6589 47.1701 88.6794 46.5177 88.7246 45.8415C88.7606 45.2053 88.7221 44.5672 88.6099 43.94C88.4978 43.2847 88.4086 42.6272 88.2936 41.9667C88.163 41.1148 88.0687 40.2601 87.8888 39.425C87.6083 38.1248 87.3125 36.8157 86.9427 35.5474C86.5728 34.279 86.1079 33.1387 85.6573 31.9492C85.4809 31.4637 85.1817 31.0321 84.7889 30.6966C84.396 30.3611 83.923 30.1331 83.4158 30.0349C83.1508 29.957 82.8672 29.9719 82.6118 30.0771C82.1798 30.263 81.7269 30.3983 81.2826 30.5805C80.8382 30.7628 80.5108 30.8946 80.1322 31.0648C79.9304 31.1544 79.751 31.2877 79.607 31.4551C79.463 31.6225 79.358 31.8198 79.2996 32.0327C78.9378 33.2961 78.1471 34.3938 77.0634 35.1372C76.7846 35.3211 76.5542 35.5697 76.3919 35.8617C76.2296 36.1537 76.1403 36.4806 76.1314 36.8146C76.0746 37.2775 76.122 37.7471 76.2702 38.1893C76.2816 38.2374 76.2803 38.2876 76.2665 38.335C76.2527 38.3824 76.2269 38.4255 76.1916 38.46C76.1417 38.4759 76.0889 38.4799 76.0372 38.4719C75.9855 38.4638 75.9364 38.4438 75.8937 38.4135C75.7545 38.289 75.6473 38.1328 75.5813 37.958C75.4966 37.5812 75.4427 37.1982 75.4203 36.8126C75.4046 36.5145 75.4429 36.2143 75.4609 35.8459C74.3903 35.9486 73.3852 36.1325 72.3881 36.3188C71.4008 36.4951 70.4355 36.7784 69.5096 37.1639C70.4621 37.3605 70.4674 37.3576 71.1321 38.1467C71.2054 38.248 71.3045 38.3277 71.4192 38.3775C71.5339 38.4272 71.6599 38.4452 71.7839 38.4295C72.584 38.355 73.3895 38.3625 74.188 38.4518C74.6012 38.4643 75.0107 38.5324 75.4057 38.6542C76.2949 38.9615 77.1634 39.325 78.0366 39.6721C78.1123 39.7069 78.1853 39.7475 78.2549 39.7933C78.4922 39.9103 78.6978 40.0829 78.8541 40.2964C79.0105 40.5098 79.1129 40.7578 79.1529 41.0193C79.1873 41.2072 79.2217 41.3952 79.2589 41.6195C79.5334 41.6236 79.7757 41.6317 80.0186 41.6222C80.5438 41.6057 81.072 41.5635 81.5965 41.5646C82.4873 41.5231 83.3711 41.7397 84.1418 42.1883C84.5396 42.4418 84.9398 42.687 85.3258 42.9504C85.8773 43.329 86.3237 43.8413 86.6234 44.4393C87.1795 45.4061 87.6275 46.4312 87.9593 47.4961C88.0497 47.8929 88.2358 48.2615 88.5014 48.5699L88.5178 48.5746ZM80.8972 82.2642C81.0111 82.2669 81.1252 82.263 81.2387 82.2522C82.0295 82.117 82.8029 81.8941 83.5444 81.5876C84.4614 81.1868 85.3784 80.7861 86.3023 80.4229C87.7876 79.8041 89.2044 79.032 90.5296 78.1192C91.6174 77.3956 92.5556 76.4691 93.2927 75.3903C93.7132 74.7696 94.1254 74.1466 94.5734 73.5384C95.3299 72.4756 95.9367 71.3139 96.3769 70.0859C96.7562 69.1019 97.1506 68.1267 97.5422 67.1463C97.9804 66.1254 98.2847 65.0522 98.4475 63.9533C98.66 62.3337 98.8427 60.7099 99.0224 59.0808C99.0693 58.6425 99.0859 58.2015 99.0722 57.7609C99.0551 57.482 98.9709 57.2113 98.8267 56.9719C98.6825 56.7325 98.4826 56.5316 98.244 56.3861C98.1573 56.3151 98.0515 56.2713 97.9399 56.2602C97.8284 56.2492 97.716 56.2714 97.617 56.3241C97.2999 56.4914 96.9961 56.6827 96.7081 56.8962C95.9244 57.5603 95.2077 58.2996 94.5681 59.1034C94.1223 59.6064 93.8649 60.2486 93.8401 60.9202C93.7672 62.115 93.4364 63.2799 92.8705 64.3347C92.4282 65.2293 91.917 66.086 91.4513 66.9693C91.2686 67.3076 91.0899 67.6471 90.9112 67.9866C91.0236 68.166 91.1011 68.3131 91.1967 68.4432C91.4163 68.7316 91.5609 69.0699 91.6175 69.4279C91.6742 69.786 91.6412 70.1524 91.5214 70.4946C91.456 70.7353 91.3782 70.9725 91.2882 71.2052C90.9277 72.079 90.5725 72.9499 90.1844 73.8113C89.7505 74.768 89.1671 75.6495 88.4561 76.4227C87.6449 77.2968 86.7709 78.1103 85.841 78.8567C84.4477 79.9533 82.9714 80.9401 81.4254 81.8083C81.2255 81.9148 80.9882 81.966 80.8807 82.2594L80.8972 82.2642ZM96.27 24.9043C96.2006 24.1636 96.1148 23.5249 96.0802 22.8476C96.0456 22.2379 95.8856 21.6418 95.6104 21.0966C95.3981 20.6791 95.1711 20.2662 94.9811 19.8329C94.6042 18.9717 94.1428 18.126 94.3015 17.1358C94.3163 16.9549 94.2926 16.773 94.2319 16.602C94.1711 16.431 94.0747 16.2748 93.9491 16.1438C93.7123 15.8735 93.4902 15.5907 93.2835 15.2966C93.1957 15.1554 93.0792 15.0341 92.9417 14.9405C92.8042 14.8469 92.6486 14.7831 92.485 14.7533C91.9739 14.6449 91.4617 14.5095 90.9549 14.3711C90.063 14.1667 89.2051 13.8351 88.4076 13.3865C87.9564 13.1104 87.4442 12.9494 86.916 12.9176C86.5864 12.8886 86.2509 12.8801 85.9243 12.8253C84.61 12.6036 83.2934 12.359 82.249 11.4374C80.8774 10.2339 78.166 9.75311 76.5144 10.3097C75.526 10.6497 74.5155 10.9744 73.547 11.338C73.1018 11.4998 72.6977 11.7578 72.3634 12.0935C72.0291 12.4292 71.7729 12.8344 71.613 13.2804C71.2693 14.3062 70.7208 15.2515 70.0007 16.059C70.0007 16.059 69.9853 16.1123 69.9781 16.1369C70.5152 16.7378 71.0482 17.3374 71.5978 17.9107C72.2027 18.5682 72.5984 19.3907 72.7348 20.2737C72.7776 20.5396 72.8539 20.7975 72.9269 21.1434C73.0913 20.991 73.2266 20.9235 73.2758 20.8C73.4428 20.3905 73.5881 19.9724 73.7109 19.5475C73.83 19.1373 73.9123 18.6853 73.9993 18.248C74.1424 17.536 74.5128 16.8897 75.0548 16.4063C76.1475 15.377 77.4487 14.5946 78.8701 14.112C79.4207 13.9118 80.0168 13.8721 80.5891 13.9975C81.4306 14.1752 82.2996 14.1795 83.1429 14.0099C83.6869 13.9147 84.2387 13.871 84.7909 13.8793C85.3055 13.8584 85.8173 13.9642 86.2814 14.1874C86.7454 14.4106 87.1475 14.7444 87.4523 15.1595C87.8581 15.7222 88.3741 16.1967 88.7982 16.7425C89.3272 17.4251 90.0201 17.963 90.8125 18.3062C91.2867 18.5057 91.7102 18.8091 92.0518 19.1938C92.3934 19.5786 92.6443 20.0351 92.7862 20.5297L92.9419 21.0197C93.0641 21.4149 93.271 21.7786 93.5485 22.0855C93.8435 22.3902 94.0411 22.7759 94.1162 23.1934C94.1557 23.4094 94.2088 23.625 94.2336 23.8457C94.2462 24.0387 94.2478 24.2322 94.2386 24.4254L96.27 24.9043ZM74.1729 20.6514C74.256 20.7022 74.284 20.7282 74.3028 20.7247C74.414 20.7141 74.524 20.694 74.6316 20.6645C75.7527 20.3535 76.9164 20.2245 78.0784 20.2825C79.0175 20.3107 79.9578 20.228 80.8967 20.1805C81.3462 20.1643 81.7789 20.0987 82.2197 20.0666C83.0787 19.9767 83.947 20.0771 84.7628 20.3606C85.5418 20.6492 86.3185 20.946 87.0791 21.2826C87.4082 21.4292 87.7089 21.6325 87.9676 21.8832C88.5623 22.4258 89.0757 23.0513 89.4919 23.7404C90.0604 24.6135 90.7021 25.4368 91.41 26.2013C91.6191 25.9343 91.8419 25.6784 92.0775 25.4344C92.3394 25.1892 92.6286 24.9747 92.9393 24.7952C93.2227 24.6594 93.516 24.5454 93.8167 24.4541C93.6322 23.9868 93.4639 23.5554 93.281 23.1287C93.221 22.9744 93.1346 22.8319 93.0254 22.7075C92.5847 22.2425 92.277 21.6677 92.1345 21.0432C92.0306 20.5807 91.8182 20.1496 91.5149 19.7854C91.2116 19.4213 90.8261 19.1344 90.3901 18.9485C90.3409 18.9342 90.3025 18.883 90.2515 18.8593C89.3031 18.3944 88.4675 17.7282 87.8031 16.9071C87.3869 16.4259 86.9419 15.9675 86.5074 15.5033C86.2004 15.177 85.7893 14.9679 85.3449 14.912C84.6039 14.791 83.8473 14.8032 83.1106 14.948C82.1882 15.1575 81.2287 15.1398 80.3146 14.8963C79.8593 14.766 79.3748 14.7807 78.9281 14.9384C77.6364 15.3722 76.4507 16.0735 75.4482 16.9965C75.0258 17.3635 74.7351 17.8586 74.6205 18.4062C74.467 19.1489 74.3131 19.8781 74.1601 20.6343L74.1729 20.6514ZM49.8494 42.6347L50.304 42.9224C50.8094 43.2163 51.2397 43.6236 51.5608 44.1121C51.882 44.6006 52.0854 45.1569 52.1549 45.7374C52.1736 45.8719 52.21 46.007 52.2276 46.1455C52.2873 46.5628 52.4525 46.958 52.7076 47.2936C52.9626 47.6292 53.2992 47.8942 53.6852 48.0635C53.7406 47.9597 53.7817 47.849 53.8076 47.7343C53.9337 46.4099 54.1775 45.0994 54.536 43.8182C54.8463 42.4335 55.4662 41.137 56.3492 40.026C56.8312 39.4233 57.3324 38.8305 57.8349 38.2337C58.1535 37.8857 58.392 37.4722 58.5338 37.0223C58.61 36.7866 58.7103 36.5594 58.8331 36.3442C59.3227 35.4166 59.909 34.5433 60.5819 33.7387C60.8726 33.4454 61.109 33.103 61.2804 32.7273C61.0354 32.7896 60.881 32.8159 60.737 32.8675C59.8724 33.1743 58.9441 33.2566 58.039 33.1067C57.3302 32.9898 56.6142 32.8975 55.9012 32.8104C55.1882 32.7234 54.5794 32.6755 53.9196 32.604C52.7363 32.4883 51.5471 32.7556 50.527 33.3664C50.3707 34.2106 50.2186 35.056 50.0541 35.8978C49.8699 36.8228 49.6405 37.7347 49.4944 38.6664C49.3208 39.5671 49.3364 40.494 49.5399 41.3884C49.6503 41.7585 49.7471 42.1602 49.8494 42.6347ZM54.5589 23.9117C54.6825 23.9045 54.8053 23.8866 54.9258 23.8581C55.6842 23.5946 56.4699 23.417 57.2679 23.3287C58.9471 23.0603 60.6346 23.1458 62.3215 23.111C63.6153 23.0821 64.8117 23.5719 65.9988 24.0324C66.2219 24.1429 66.4339 24.2745 66.6319 24.4254C66.7664 24.5134 66.8945 24.6084 67.0003 24.6881C68.0446 24.0832 69.1807 23.653 70.3637 23.4145C70.7343 23.3176 71.1022 23.1842 71.4629 23.0755L71.9489 22.1981C71.8325 21.6009 71.7494 20.9976 71.7 20.3911C71.686 19.6633 71.4171 18.9634 70.9401 18.4135C70.6074 18.0277 70.264 17.6789 69.9595 17.288C69.7971 17.0619 69.5757 16.8847 69.3195 16.7758C69.0634 16.6668 68.7822 16.6303 68.5067 16.6702C68.1234 16.719 67.7337 16.7437 67.3567 16.8166C66.3998 16.9902 65.4852 17.3467 64.6632 17.8666C63.9132 18.3405 63.0777 18.6629 62.2038 18.8157C61.4437 18.9816 60.6536 18.9482 59.9102 18.7188C59.4643 18.5689 58.9971 18.4918 58.5267 18.4903C57.6912 18.4878 56.8523 18.6044 56.2259 19.2453C55.5994 19.8861 55.0161 20.5618 54.3882 21.269C54.2338 21.4632 54.1071 21.6779 54.0117 21.9068C53.9548 22.0049 53.9339 22.1197 53.9525 22.2315C53.9712 22.3432 54.0283 22.445 54.1139 22.5192C54.3183 22.6761 54.4706 22.8909 54.5511 23.1356C54.6315 23.3803 54.6363 23.6437 54.5648 23.8912L54.5589 23.9117ZM60.4205 100.681C60.3557 100.762 60.3133 100.859 60.2976 100.961C60.2819 101.064 60.2934 101.168 60.3311 101.265C60.4235 101.865 60.5523 102.463 60.6259 103.067C60.7238 103.668 60.7687 104.277 60.7604 104.886C60.6042 106.627 60.2046 108.337 59.5733 109.967C59.518 110.101 59.4521 110.231 59.3762 110.355C58.8798 111.255 58.5099 112.219 58.2771 113.22C57.9927 114.547 57.5414 115.833 56.9342 117.047C56.7537 117.394 56.6668 117.783 56.6822 118.174C56.6902 118.621 56.8308 118.796 57.2482 118.859C58.4038 119.03 59.4777 118.84 60.2955 117.939C60.5914 117.609 60.8685 117.264 61.1255 116.903C62.0375 115.647 62.9454 114.389 63.8381 113.123C64.0755 112.784 64.2888 112.428 64.4764 112.059C64.8842 111.146 65.2087 110.198 65.4459 109.227C65.697 108.348 65.852 107.444 65.9083 106.532C65.9609 105.978 65.8807 105.42 65.6745 104.903C65.5622 104.65 65.4684 104.39 65.3939 104.123C65.3392 103.851 65.3019 103.576 65.282 103.299C64.8364 103.103 64.4037 102.924 63.9797 102.729C63.5558 102.535 63.1705 102.361 62.7801 102.159C62.3897 101.956 61.9555 101.706 61.5476 101.471C61.1899 101.18 60.8156 100.909 60.4265 100.661L60.4205 100.681ZM76.1327 23.5202C76.2436 23.5917 76.3581 23.6577 76.4756 23.7177C77.4761 24.1234 78.4019 24.6929 79.2151 25.4031C79.6884 25.8253 80.1411 26.2726 80.6174 26.7C81.1872 27.1963 81.5641 27.8774 81.6819 28.6238C81.7175 28.8076 81.7477 28.9943 81.7965 29.2398C82.1008 29.1414 82.3565 29.0422 82.6191 28.9806C82.8552 28.9049 83.1027 28.8714 83.3504 28.8817C83.9864 28.9506 84.5985 29.1635 85.1399 29.5042C85.6813 29.8449 86.138 30.3045 86.4753 30.848C86.693 31.207 86.8812 31.583 87.0382 31.9723C87.3742 32.8216 87.6954 33.6755 88.0102 34.5364C88.1505 34.8975 88.2674 35.2673 88.3603 35.6433C88.696 37.0752 89.0153 38.5024 89.3387 39.9307C89.3692 40.0552 89.4197 40.1721 89.4834 40.3508C89.658 40.1484 89.7741 39.9023 89.8192 39.6388C90.1469 38.6588 90.7924 37.8163 91.6533 37.2449C91.8234 37.1586 91.9732 37.0372 92.093 36.8888C92.2128 36.7403 92.2998 36.5682 92.3482 36.3837C92.4716 35.897 92.7414 35.4599 93.1211 35.1315C93.223 35.041 93.3179 34.9441 93.3986 34.8652C93.1724 34.4037 92.9708 33.9803 92.752 33.5699C92.6698 33.3992 92.5669 33.2393 92.4455 33.0939C91.9346 32.5088 91.4894 31.8693 91.1181 31.1871C90.8463 30.7045 90.4933 30.2725 90.0747 29.9099C89.6615 29.5408 89.2666 29.1548 88.8676 28.7675C88.3915 28.309 87.9349 27.8294 87.4352 27.3907C87.0367 27.0488 86.6735 26.6676 86.3513 26.2529C86.1646 25.9815 85.9326 25.7441 85.6656 25.5511C84.8436 25.0277 84.0026 24.5699 82.9558 24.7284C82.6513 24.7642 82.3426 24.7386 82.0481 24.653C81.7537 24.5675 81.4794 24.4238 81.2414 24.2304C81.066 24.0993 80.8717 23.9717 80.7122 23.832C80.3278 23.5102 79.855 23.3123 79.3559 23.2645C78.4219 23.1549 77.4769 23.18 76.55 23.339C76.4145 23.3308 76.3309 23.4043 76.1386 23.4997L76.1327 23.5202ZM43.9849 65.8393C43.7206 65.7746 43.4529 65.725 43.183 65.6908C42.0505 65.5931 40.9269 65.4802 39.7895 65.43C39.0691 65.3992 38.365 65.2054 37.7304 64.863C36.8551 64.39 36.0075 63.8676 35.1917 63.2983C33.4022 62.0655 31.9367 60.4191 30.9195 58.4989L29.7853 56.2791C29.3708 55.4933 29.0369 54.6676 28.7888 53.8146C28.3818 52.2292 28.1075 50.6127 27.9689 48.9817C27.9364 48.7354 27.9371 48.4857 27.971 48.2396C28.1081 47.3542 27.601 46.7265 27.1414 45.9659C27.0904 46.0991 27.0505 46.2363 27.0223 46.3761C26.9859 46.8993 26.9836 47.4279 26.9256 47.9492C26.7451 49.4643 26.8099 50.9986 27.1178 52.493C27.3468 53.6619 27.4634 54.8501 27.4659 56.0412C27.4608 56.512 27.4815 56.9828 27.5278 57.4514C27.72 58.9483 28.2391 60.3 29.4274 61.308C30.4647 62.1822 31.4248 63.1442 32.297 64.1832C32.9251 64.926 33.6902 65.5409 34.5507 65.9943C35.7947 66.6522 37.0453 67.3031 38.3023 67.947C38.6954 68.1509 39.1009 68.3296 39.5166 68.4821C41.2202 69.0781 42.7715 70.0421 44.0604 71.3054C44.1753 71.4057 44.2973 71.4976 44.4253 71.5804C44.4482 71.483 44.4592 71.3832 44.4582 71.2831C44.2891 70.3444 44.1125 69.4213 43.9284 68.5139C43.7427 67.7268 43.7609 66.9054 43.9812 66.1273C43.9962 66.032 43.9974 65.935 43.9849 65.8393ZM89.89 57.8601C89.9695 57.8048 90.0461 57.7454 90.1196 57.6822C90.2211 57.5471 90.3173 57.4149 90.4107 57.2775C91.3343 55.9203 91.9431 54.3739 92.1925 52.7512C92.3192 51.8383 92.7507 50.9949 93.417 50.3581C94.1554 49.6429 94.7734 48.8131 95.2472 47.9008C95.3365 47.731 95.4422 47.566 95.5397 47.3986C96.3432 45.9454 97.2336 44.542 98.2061 43.196C98.4604 42.8661 98.686 42.515 98.8802 42.1464C99.5141 41.1045 99.9007 39.931 100.01 38.7162C100.053 37.2951 100.427 35.9036 101.102 34.6521C101.245 34.3835 101.297 34.0754 101.25 33.7745C101.079 32.0658 100.211 30.7061 99.1252 29.4522C99.1047 29.4462 99.0719 29.4367 98.9899 29.4128C98.9662 29.5685 98.9547 29.7258 98.9555 29.8832C99.0494 30.8001 99.1352 31.7146 99.2674 32.607C99.4973 34.1721 99.4852 35.7632 99.2313 37.3246C99.1352 38.1543 98.8663 38.9546 98.442 39.674C98.0178 40.3935 97.4475 41.0161 96.768 41.5017C96.4944 41.6935 96.2376 41.9036 95.9639 42.0954C95.4692 42.4517 95.0272 42.8758 94.6506 43.3552C94.0323 44.1394 93.5262 45.0058 93.1467 45.9296C92.5249 47.3495 91.79 48.7171 90.9491 50.0193C90.5091 50.726 89.9539 51.354 89.3063 51.8772C88.8072 52.3075 88.2814 52.7059 87.7322 53.0701C87.4972 53.216 87.2798 53.3887 87.0846 53.5847C86.7492 53.8784 86.4892 54.2482 86.3265 54.6633C86.5953 54.7708 86.8836 54.8212 87.173 54.8113C87.8295 54.8263 88.4579 55.0805 88.9402 55.5261C89.4225 55.9717 89.7256 56.5781 89.7924 57.2313C89.7835 57.3844 89.8244 57.5653 89.8772 57.8431L89.89 57.8601ZM98.3134 28.2511C97.6696 27.6194 96.9862 26.9404 96.2845 26.2785C96.0137 26.0086 95.6897 25.798 95.3331 25.6603C94.9765 25.5227 94.595 25.4608 94.2131 25.4788C93.8313 25.4967 93.4573 25.5941 93.1152 25.7647C92.7731 25.9353 92.4703 26.1753 92.2261 26.4695C91.9211 26.8114 91.7477 27.2507 91.7369 27.7087C91.726 28.1668 91.8785 28.6138 92.1669 28.9698C92.3704 29.2304 92.5483 29.51 92.6983 29.8047C92.8394 30.1057 93.0393 30.3755 93.2862 30.5982C93.6848 30.9484 93.963 31.4151 94.0816 31.9323C94.2615 32.6606 94.4143 33.39 94.5818 34.1148C94.6256 34.3009 94.6264 34.528 94.7396 34.6587C95.2193 35.2429 95.1947 35.894 95.1243 36.5497C95.0008 37.6791 94.835 38.8008 94.7033 39.9278C94.5774 40.6035 94.5138 41.2892 94.513 41.9764C94.5911 41.968 94.662 41.9841 94.6961 41.9584C95.2659 41.528 95.8358 41.0975 96.4032 40.6752C96.956 40.2536 97.4194 39.7261 97.7663 39.1235C98.1131 38.521 98.3365 37.8554 98.4234 37.1655C98.6328 35.7967 98.6643 34.4066 98.5174 33.0296C98.4222 32.148 98.3404 31.2658 98.2939 30.3849C98.2728 29.7072 98.301 29.0437 98.2981 28.2423L98.3134 28.2511ZM45.3704 23.6043C45.788 22.7026 46.1673 21.9632 46.474 21.1983C46.8369 20.2691 47.3852 19.4235 48.0855 18.7131C48.7173 18.0513 49.4322 17.4741 50.2123 16.9958C50.6833 16.7273 51.0796 16.3452 51.365 15.8842C51.6504 15.4233 51.8158 14.8982 51.8461 14.3569C51.9718 13.1435 51.9694 13.2585 51.0337 12.7286C50.6313 12.4792 50.1472 12.3977 49.6853 12.5015C49.2084 12.6121 48.7291 12.7308 48.2225 12.806C47.251 13.0301 46.2528 13.116 45.2574 13.0611C45.1186 13.0512 44.9794 13.0724 44.8499 13.1233C44.7205 13.1742 44.604 13.2535 44.5092 13.3553C43.9933 13.8148 43.4773 14.2742 42.9782 14.752C42.8017 14.9283 42.644 15.1225 42.5075 15.3313C42.2897 15.5725 42.175 15.8893 42.1879 16.2139C42.2009 16.5386 42.3404 16.8453 42.5767 17.0683C42.7553 17.2803 42.9586 17.4684 43.1425 17.6775C43.3573 17.9152 43.5216 18.1941 43.6255 18.4972C43.7293 18.8003 43.7705 19.1214 43.7466 19.4409C43.6887 19.8221 43.5947 20.1969 43.4659 20.5603C43.398 20.7941 43.3108 21.0178 43.2162 21.2972C44.0843 21.4782 44.4794 22.109 44.8419 22.7747C44.973 22.9818 45.1309 23.2189 45.3575 23.5872L45.3704 23.6043ZM66.5495 32.977C66.5401 32.8408 66.5175 32.7809 66.5359 32.7329C66.8936 31.7159 66.7291 31.8994 66.2554 31.1568L66.2082 31.0898C65.9842 30.789 65.8636 30.745 65.5017 30.8578C64.9711 31.0228 64.4764 31.2866 64.0438 31.6353C63.4969 32.0635 62.9611 32.4994 62.4393 32.9483C61.8833 33.4764 61.4186 34.0929 61.0641 34.7728C61.831 34.5063 62.4869 34.2387 63.1689 34.0498C63.8509 33.861 64.6579 34.0376 65.3757 34.1083C65.4753 34.026 65.5631 33.9536 65.6426 33.8789C65.8877 33.6456 66.1965 33.4903 66.5299 33.4327C66.8634 33.3752 67.2065 33.418 67.5156 33.5556C67.7986 33.6663 68.0751 33.7927 68.344 33.9342C68.5346 34.0476 68.7521 34.1081 68.9739 34.1092C69.1957 34.1102 69.4137 34.0519 69.6054 33.9403C70.0146 33.6901 70.5056 33.6107 70.9728 33.7192C71.3447 33.8199 71.7094 33.9452 72.0647 34.0943C72.5539 34.3241 72.968 34.6881 73.2587 35.1439L75.5573 35.4069C75.9732 35.0162 76.327 34.6253 76.7362 34.3038C77.9267 33.3597 78.4154 32.0294 78.8822 30.6216C78.7401 30.5702 78.5949 30.528 78.4474 30.4953C77.7656 30.3773 77.0886 30.2429 76.4014 30.1589C76.0677 30.1356 75.7471 30.0199 75.4755 29.8247C75.2039 29.6295 74.9918 29.3626 74.8632 29.0538C74.7709 28.8534 74.6911 28.6476 74.6242 28.4373C74.5667 28.2355 74.4462 28.0575 74.2802 27.9292C74.1141 27.801 73.9113 27.7292 73.7016 27.7245C72.9857 27.6112 72.2523 27.7176 71.5981 28.0297C71.1318 28.2723 70.6818 28.5508 70.23 28.8199C69.886 29.0564 69.5268 29.27 69.1547 29.4594C68.7256 29.622 68.2866 29.7574 67.8404 29.8648C67.6859 30.198 67.3565 30.5204 67.401 31.0715L68.1477 30.8437C70.3878 30.16 72.6128 30.0947 74.8076 31.0214C75.6715 31.3453 76.4012 31.9505 76.8793 32.7396C76.9433 32.8561 77.0225 32.9814 76.8453 33.1167C75.7935 32.9036 74.7693 32.5718 73.7924 32.1276C73.5661 32.0242 73.3337 31.9344 73.0966 31.8588C71.6349 31.4037 70.0792 31.3414 68.5858 31.6781C68.038 31.7725 67.5076 31.8987 67.2322 32.4948C67.1789 32.6349 67.0834 32.7551 66.9587 32.8384C66.8341 32.9218 66.6865 32.9642 66.5367 32.9599L66.5495 32.977ZM59.7503 5.79569C60.011 5.61789 60.2347 5.46046 60.4665 5.30542C61.0118 4.92398 61.6244 4.64917 62.2718 4.49548C62.6201 4.41429 62.9742 4.34366 63.3207 4.25307C64.5106 3.96031 65.7576 3.99662 66.9284 4.35812C68.0077 4.64888 68.9717 5.26431 69.6898 6.12105C70.2693 6.79457 70.7387 7.55539 71.0808 8.37543C71.4455 9.18725 71.9773 9.91311 72.6414 10.5056C73.3512 10.1292 74.0484 9.81128 74.7014 9.40052C73.8638 8.3032 73.8262 8.31008 73.6234 7.33935C73.3582 6.13538 72.6642 5.06903 71.6707 4.33913C70.7071 3.6144 69.6627 2.9685 68.656 2.28466C68.0935 1.91841 67.4211 1.75925 66.7541 1.83448C65.622 1.91927 64.477 2.01808 63.3647 2.12642C63.0903 2.15012 62.8178 2.19283 62.5493 2.25426C61.2242 2.55213 59.9312 2.97793 58.6884 3.52569C58.0254 3.81272 57.423 4.22345 56.9136 4.7359C56.8475 4.77829 56.7991 4.84323 56.7772 4.91865C56.7553 4.99407 56.7614 5.07486 56.7945 5.14608C57.826 4.99457 58.8774 5.22564 59.7503 5.79569ZM68.414 29.1152C68.8268 29.0589 69.204 28.8515 69.4727 28.5331C69.6677 28.3363 69.8389 28.1147 70.041 27.9243C70.4544 27.4916 70.9558 27.1526 71.5114 26.9304C72.0671 26.7081 72.6639 26.6077 73.2617 26.636C74.4083 26.7155 75.3831 27.0654 75.6694 28.3762C75.7124 28.6238 75.8439 28.8472 76.0397 29.0047C76.2354 29.1623 76.4818 29.2431 76.7328 29.2322C77.816 29.2701 78.8813 29.5191 79.869 29.9653C80.2317 29.8547 80.5775 29.6947 80.8966 29.4899C80.7689 29.2735 80.6575 29.0479 80.5634 28.8149C80.2899 28.0253 79.8156 27.3203 79.1873 26.7694C78.5452 26.0789 77.791 25.5019 76.9566 25.0628C75.9828 24.6621 74.9743 24.3513 73.9439 24.1343C73.8077 24.1097 73.6682 24.1083 73.5315 24.1301C72.1652 24.2403 70.8323 24.2356 69.4829 24.5019C68.9092 24.5931 68.3492 24.7562 67.8163 24.9874C67.674 25.0484 67.4465 25.1735 67.4556 25.234C67.4655 25.5456 67.5624 25.8482 67.7355 26.1076C67.9085 26.367 68.1508 26.5727 68.4347 26.7015C68.6159 26.7813 68.7617 26.9245 68.8447 27.1043C68.9276 27.284 68.942 27.4879 68.8851 27.6775C68.8353 27.9204 68.7728 28.1606 68.6982 28.3971C68.5806 28.6031 68.5046 28.8035 68.3935 29.1092L68.414 29.1152ZM73.2127 74.4365C71.9082 74.5024 71.4045 74.445 70.4699 74.049C69.78 73.7596 69.0914 73.4661 68.3944 73.2014C68.1643 73.1173 67.9218 73.0724 67.6769 73.0686C67.014 73.0539 66.3451 73.0598 65.6874 73.0733C65.5929 73.077 65.5022 73.1441 65.3665 73.198C65.6346 73.8212 65.9677 74.4145 66.3602 74.9679C67.0509 75.9726 67.6646 77.0281 68.196 78.1254C68.4542 78.6452 68.7495 79.1446 69.0224 79.6598C69.0996 79.8074 69.2182 79.9292 69.3638 80.0102C69.5094 80.0913 69.6755 80.1279 69.8417 80.1157C70.1773 80.133 70.5063 80.0178 70.7578 79.7948C71.2458 79.3461 71.7056 78.8676 72.1346 78.3622C72.7466 77.557 73.2624 75.5362 73.1922 74.4306L73.2127 74.4365ZM93.9252 35.7165C93.7542 35.7638 93.5955 35.8473 93.4595 35.9613C93.3236 36.0752 93.2137 36.2171 93.1374 36.3772C93.0004 36.6185 92.8801 36.8689 92.7773 37.1266C92.6592 37.4389 92.4522 37.7096 92.1819 37.9055C91.2721 38.6067 90.6765 39.6392 90.5247 40.7778C90.4398 41.2691 90.3848 41.7646 90.304 42.2571C90.3028 42.4794 90.2528 42.6987 90.1575 42.8995C90.0009 43.1424 89.8952 43.4145 89.8468 43.6994C89.7985 43.9842 89.8085 44.276 89.8761 44.5569C89.8928 44.7221 89.8907 44.8886 89.8699 45.0533C89.7294 46.6493 89.5882 48.248 89.4461 49.8495C89.4483 50.0277 89.4619 50.2055 89.4872 50.3819C89.7998 50.1595 90.0556 49.8666 90.2338 49.5268C90.9388 48.4326 91.5677 47.2911 92.1157 46.1104C92.5661 45.2897 92.8732 44.3982 93.0238 43.4742C93.1233 42.4579 93.3829 41.4569 93.5517 40.4473C93.6957 39.5995 93.8151 38.7447 93.9221 37.8862C93.9714 37.4868 94.1545 37.0864 93.8265 36.6842C93.7653 36.6041 93.8365 36.4202 93.8501 36.2818C93.8636 36.1434 93.8796 35.9657 93.9048 35.7106L93.9252 35.7165ZM55.3814 92.4746C55.4124 92.1558 55.3402 91.8355 55.1754 91.5608L53.9668 88.6477C53.9282 88.5436 53.8951 88.4375 53.8678 88.3298C53.675 87.7534 53.477 87.1799 53.2894 86.6006C53.181 86.3154 53.0968 86.0217 53.0375 85.7224C53.0176 85.5864 52.9664 85.4568 52.8881 85.3438C52.8098 85.2308 52.7065 85.1374 52.5863 85.0709C52.471 84.9929 52.3558 84.915 52.237 84.8493C50.9013 84.1509 49.7942 83.0837 49.0473 81.7744C48.992 81.6739 48.8614 81.6181 48.6872 81.483C48.5418 81.9834 48.3863 82.3963 48.2483 82.81C47.9788 83.692 47.9841 84.6352 48.2634 85.5142C48.4179 86.0778 48.7207 86.5898 49.1403 86.9965C49.6363 87.4787 50.1051 87.9929 50.5958 88.478C50.8902 88.771 51.1958 89.0511 51.5126 89.3181C52.639 90.2635 53.7701 91.1926 54.9042 92.1269C55.0135 92.2254 55.148 92.3134 55.3609 92.4686L55.3814 92.4746ZM35.9565 29.6765C35.9807 29.5984 35.9966 29.5181 36.0039 29.4367C36.0289 28.8865 36.0928 28.3388 36.1953 27.7977C36.4257 26.7098 36.4187 25.5851 36.1747 24.5002C36.0744 24.18 36.0214 23.847 36.0171 23.5115C36.0305 22.2906 36.254 21.0811 36.6778 19.9361C37.0209 19.0305 37.2955 18.1006 37.5947 17.1779C37.6261 17.0721 37.6472 16.9635 37.6577 16.8537C37.6693 16.737 37.4993 16.5719 37.3818 16.609C37.1941 16.6462 37.018 16.7277 36.868 16.8467C36.5763 17.1772 36.3221 17.5389 36.1099 17.9252C35.8733 18.395 35.6775 18.8843 35.5249 19.3877C35.1751 20.4937 34.672 21.5454 34.0304 22.5118C33.9024 22.6922 33.839 22.9104 33.8505 23.1312C33.8384 24.3211 33.9182 25.5101 34.0893 26.6877C34.2809 27.6141 34.2582 28.5721 34.0229 29.4884C33.95 29.8133 33.896 30.1422 33.8613 30.4733C33.8339 30.5677 33.797 30.6949 33.9686 30.7625L35.9565 29.6765ZM58.3877 14.7582C58.0503 14.532 57.7246 14.289 57.4118 14.0299C57.1706 13.7985 56.8705 13.6376 56.5443 13.5648C56.2181 13.492 55.878 13.51 55.5613 13.6169C54.8894 13.7865 54.2273 13.9989 53.5612 14.179C53.3435 14.2247 53.1454 14.337 52.9943 14.5003C52.8433 14.6636 52.7468 14.8699 52.7182 15.0906C52.6036 15.6485 52.3775 16.1776 52.0534 16.646C51.7293 17.1144 51.314 17.5124 50.8323 17.8164C50.1777 18.282 49.5484 18.7822 48.947 19.3147C48.4162 19.7659 47.9883 20.3256 47.6919 20.9561C47.1249 22.2508 46.4641 23.5023 45.7146 24.7006C45.9621 25.2984 46.0041 25.9614 45.8342 26.5857C45.7914 26.853 45.7694 27.1232 45.7683 27.3939C45.8775 27.2635 45.9506 27.1069 45.9805 26.9395C46.0363 26.64 46.0705 26.3385 46.1264 26.039C46.359 25.0389 46.6995 24.067 47.1418 23.1404C47.5612 22.1726 48.1538 21.2896 48.8906 20.5348C49.4075 19.9956 49.9566 19.4835 50.4776 18.9454C51.1689 18.2192 52.0297 17.6761 52.9827 17.3647C53.7472 17.1127 54.4777 16.7677 55.158 16.3375C56.012 15.819 56.912 15.3807 57.8467 15.0281C57.9791 14.9553 58.1003 14.8749 58.3672 14.7522L58.3877 14.7582ZM42.1002 14.1767C41.909 14.2221 41.7231 14.2874 41.5455 14.3714C40.897 14.7968 40.237 15.2011 39.6341 15.6842C39.1886 16.0428 38.8736 16.5382 38.738 17.0938C38.6023 17.6493 38.6535 18.2341 38.8837 18.7577C38.9559 18.9374 39.0422 19.1112 39.1418 19.2774C39.5292 19.9225 39.6989 20.6751 39.6257 21.424C39.6146 21.5542 39.5459 21.6988 39.7274 21.7782C40.2245 21.598 40.6989 21.3888 41.2152 21.2497C41.7315 21.1106 42.2177 21.0294 42.7391 20.9185C42.8255 20.4988 42.9159 20.0803 42.9845 19.691C43.0375 19.4296 43.0223 19.159 42.9402 18.9053C42.8581 18.6516 42.7118 18.4234 42.5157 18.2427C42.3399 18.067 42.1676 17.9102 41.9713 17.7287C41.6154 17.3933 41.3855 16.9459 41.3198 16.4613C41.2541 15.9768 41.3567 15.4844 41.6105 15.0663C41.7448 14.8029 41.8798 14.5219 42.0756 14.1695L42.1002 14.1767ZM50.6788 9.38753C51.5076 9.18348 52.1511 9.05018 52.7937 8.8899C53.7546 8.64419 54.7371 8.43141 55.6848 8.12404C56.6325 7.81666 57.5437 7.40529 58.4641 7.02328C58.6304 6.95596 58.8385 6.88297 58.8433 6.5908C58.2798 6.36581 57.6603 6.32105 57.0703 6.46272C55.7516 6.77648 54.438 7.11843 53.1296 7.48856C52.3087 7.7588 51.572 8.23751 50.9915 8.87787C50.8624 9.03354 50.7493 9.2019 50.6542 9.38037L50.6788 9.38753ZM38.1048 19.2342C38.016 19.2796 37.9408 19.2933 37.9248 19.3331C37.6062 20.038 37.3307 20.7615 37.0997 21.4998C36.8017 22.6315 36.7992 23.8208 37.0926 24.9537C37.1146 25.0313 37.2099 25.0856 37.2876 25.1705C37.497 24.7865 37.6723 24.4282 37.8714 24.0947C38.1222 23.7655 38.3419 23.414 38.5279 23.0444C38.631 22.6448 38.6889 22.2349 38.7005 21.8224C38.716 21.7691 38.7315 21.7158 38.7469 21.6624C38.8093 20.7983 38.5741 19.9388 38.0802 19.227L38.1048 19.2342ZM66.9867 30.2929C67.0918 30.1889 67.1731 30.0632 67.2249 29.9246C67.2766 29.7861 67.2977 29.6379 67.2865 29.4904C67.2858 29.4243 67.3004 29.3588 67.3293 29.2993C67.3582 29.2398 67.4005 29.1878 67.4529 29.1474C67.7657 28.7963 67.9839 28.3714 68.0873 27.9128C68.103 27.8307 68.108 27.7469 68.1019 27.6635C68.0936 27.6164 68.0749 27.5717 68.0473 27.5327C68.0197 27.4937 67.9838 27.4612 67.9422 27.4377C67.9006 27.4141 67.8544 27.4001 67.8067 27.3965C67.7591 27.3929 67.7111 27.3999 67.6665 27.4169C67.592 27.4519 67.5232 27.4979 67.4623 27.5533C66.8606 28.126 66.1287 28.5437 65.3296 28.7707C64.6523 29.0147 64.021 29.3712 63.4622 29.8251C63.2377 30.0122 63.0598 30.2491 62.9426 30.5169C62.8255 30.7847 62.7722 31.0761 62.7871 31.3681C63.009 31.2012 63.2098 31.0461 63.3923 30.9078C63.9533 30.4546 64.5883 30.1019 65.2696 29.8652C65.5012 29.7711 65.7536 29.7396 66.0013 29.7741C66.249 29.8086 66.4832 29.9077 66.6803 30.0616C66.7374 30.1404 66.8462 30.2254 66.9633 30.2817L66.9867 30.2929ZM71.9792 35.3994L71.9812 35.2087C71.3754 34.9971 70.756 34.7104 70.1032 35.059C69.7652 35.2543 69.3817 35.357 68.9913 35.3568C68.6009 35.3566 68.2175 35.2536 67.8796 35.058C67.6266 34.9451 67.3628 34.8581 67.0923 34.7982C66.9654 34.7875 66.8378 34.7907 66.7116 34.8077C66.8584 35.3225 67.0352 35.8283 67.2411 36.3225C67.2961 36.4178 67.3734 36.4983 67.4665 36.557C67.7927 36.8276 68.1766 37.0198 68.5887 37.1188C68.7169 36.9592 68.8632 36.8152 69.0247 36.6894C69.7862 36.2366 70.5943 35.8674 71.435 35.5882C71.6014 35.5209 71.7771 35.4519 71.9557 35.3881L71.9792 35.3994Z" fill="#A5594B"/>
</svg>
