<svg width="72" height="22" viewBox="0 0 72 22" fill="none" xmlns="http://www.w3.org/2000/svg">
<path d="M11.0062 7.84582L10.2586 6.56063C10.259 6.5604 10.2594 6.56016 10.2598 6.55993C10.5675 6.38096 10.9221 6.1807 11.2649 5.98706C11.5404 5.83147 11.8082 5.68016 12.0381 5.54762L12.0422 5.54531C12.5848 5.2347 13.132 4.93855 13.6836 4.65658C13.6836 4.65655 13.6837 4.65651 13.6838 4.65648C17.705 2.60091 21.9613 1.29913 26.4042 0.64806C26.4045 0.648005 26.4049 0.647951 26.4053 0.647897C27.7729 0.447521 29.1582 0.308801 30.5598 0.22873L30.5617 0.228621C32.4978 0.120481 34.4378 0.130914 36.3695 0.259299L36.38 0.119327M11.0062 7.84582L71.3806 21.0578L71.4237 21.0143L71.7013 20.7342C71.6059 20.6396 71.5283 20.5349 71.4692 20.4245L71.4567 20.4011L71.4433 20.3781C71.4264 20.3491 71.4095 20.32 71.3925 20.291C71.3923 20.2908 71.3922 20.2905 71.392 20.2902C70.4414 18.6667 69.3567 17.1178 68.1483 15.6579L68.1419 15.6503C66.8668 14.1304 65.4785 12.7066 63.9901 11.3885C63.99 11.3885 63.99 11.3884 63.99 11.3884C61.1234 8.84985 57.8854 6.70353 54.3692 5.01898C50.1266 2.95203 45.5727 1.52076 40.8699 0.774869C39.3787 0.531429 37.8768 0.35948 36.3698 0.259316L36.38 0.119327M11.0062 7.84582L11.0129 7.85722L11.0062 7.8458C11.554 7.44168 12.1217 7.06216 12.7074 6.70851C12.7075 6.70842 12.7077 6.70834 12.7078 6.70825C13.2177 6.40037 13.7413 6.1121 14.2772 5.84426L14.2789 5.8434C18.1244 3.91525 22.2891 2.61286 26.5977 1.99277L26.5977 1.99281L26.6094 1.99103C27.9447 1.78806 29.2887 1.64791 30.6364 1.57077C30.6365 1.57077 30.6366 1.57076 30.6366 1.57076C32.5114 1.46346 34.3935 1.47811 36.2694 1.61524L10.9106 7.91676C10.9424 7.89303 10.9743 7.86938 11.0062 7.84582ZM36.38 0.119327C33.0435 -0.124671 29.6881 0.0058213 26.384 0.508065M36.38 0.119327C46.92 0.909034 56.2456 4.47802 64.1077 11.2517C67.0969 13.8227 69.6137 16.8451 71.5553 20.1956C71.6719 20.3946 71.782 20.5935 71.8791 20.8078L26.384 0.508065M26.384 0.508065C21.9175 1.15088 17.5978 2.5013 13.6066 4.50251M26.384 0.508065L13.6066 4.50251M13.6066 4.50251L13.6066 4.50254L13.6066 4.50251Z" fill="white" stroke="white" stroke-width="3"/>
</svg>
